<svg width="23" height="24" viewBox="0 0 23 24" fill="none" xmlns="http://www.w3.org/2000/svg">
<path fill-rule="evenodd" clip-rule="evenodd" d="M8.13894 1.09543C8.77597 1.99558 8.93108 3.90823 8.55042 6.16917C7.86936 10.2141 5.76886 14.136 3.16713 16.2206C3.01741 16.3405 2.89385 16.4501 2.8926 16.4641C2.89053 16.4874 17.9843 16.4725 18.2539 16.4489C18.367 16.439 18.3707 16.4269 18.3605 16.0994C18.2622 12.9524 17.5239 9.84372 16.3331 7.56243C14.7017 4.43745 12.1677 2.27786 8.82727 1.16571C8.05001 0.906943 8.00203 0.902047 8.13894 1.09543ZM12.553 6.25893C12.9461 6.37637 12.9693 6.40797 12.888 6.71545C12.7678 7.17023 12.4262 7.39701 11.9584 7.3325C11.54 7.27477 11.3156 7.06132 11.2519 6.66034C11.2135 6.41892 11.2574 6.36726 11.5854 6.26761C11.8973 6.17285 12.2542 6.16965 12.553 6.25893ZM10.7169 6.80298C10.8041 7.2708 11.1105 7.63542 11.5927 7.84529L11.8487 7.95677L11.8495 8.5505C11.85 8.87708 11.8383 9.14423 11.8236 9.14423C11.8088 9.14423 11.7519 9.04066 11.697 8.91401C11.5342 8.53838 11.1991 8.10295 10.9493 7.94227C10.3414 7.55138 9.77857 7.62752 9.32783 8.16169C9.25191 8.25165 9.18225 8.31766 9.173 8.3084C9.13943 8.27457 9.30051 7.81427 9.41434 7.6188C9.47865 7.50839 9.63045 7.32605 9.75169 7.21365C9.99781 6.98537 10.5326 6.62389 10.6241 6.62389C10.6568 6.62389 10.6985 6.7045 10.7169 6.80298ZM13.7143 6.73018C13.999 6.89522 14.4379 7.25093 14.567 7.42115C14.6897 7.58313 14.9334 8.12573 14.9334 8.2372C14.9334 8.27307 14.8257 8.19799 14.694 8.07028C14.3684 7.75451 14.1668 7.67415 13.8013 7.71428C13.2425 7.77569 12.7922 8.14506 12.4617 8.8132L12.2859 9.16847L12.297 8.54459L12.308 7.92071L12.5248 7.83564C12.965 7.6629 13.3901 7.13392 13.3914 6.75718C13.392 6.5936 13.4677 6.5873 13.7143 6.73018ZM10.676 8.27462C10.9326 8.39962 11.1655 8.6565 11.3668 9.03649C11.4527 9.19852 11.6188 9.4441 11.7359 9.58219C11.8531 9.72032 11.9708 9.87455 11.9977 9.92496C12.0683 10.0578 12.1179 10.0393 12.2407 9.8349C12.3008 9.73496 12.4006 9.59087 12.4626 9.51472C12.5246 9.43858 12.6388 9.24771 12.7162 9.09063C13.0289 8.45662 13.3257 8.22557 13.8788 8.18573C14.656 8.1298 15.1494 8.64588 15.0589 9.42011C15.0419 9.5662 14.9972 9.74548 14.9597 9.81847C14.8687 9.99553 14.5284 10.3004 14.3275 10.3849C14.09 10.4847 13.6004 10.47 13.267 10.3531C13.0292 10.2698 12.9526 10.2621 12.8016 10.3066C12.584 10.3708 12.4535 10.5474 12.4965 10.7197C12.5225 10.8242 12.546 10.8373 12.6583 10.8102C12.7306 10.7928 12.8507 10.7476 12.9253 10.7098C12.9998 10.672 13.1292 10.6478 13.2128 10.656C13.3375 10.6683 13.3727 10.699 13.4091 10.8275C13.4597 11.0061 13.3906 11.1314 13.2415 11.1314C13.1383 11.1314 13.1252 11.0799 13.2072 10.9973C13.3227 10.8811 13.0993 10.8742 12.861 10.9865C12.643 11.0892 12.5877 11.0946 12.0831 11.0625C11.7046 11.0384 11.4704 10.9978 11.3107 10.9287C11.0361 10.8098 10.9376 10.8323 10.9707 11.0064C10.9902 11.1086 10.9761 11.1314 10.8937 11.1314C10.8382 11.1314 10.7573 11.0769 10.7139 11.0103C10.6408 10.898 10.6408 10.8802 10.7139 10.7679C10.8084 10.6227 11.0474 10.6054 11.3712 10.7204C11.5369 10.7792 11.5864 10.7816 11.6174 10.7325C11.6752 10.6408 11.6686 10.6188 11.5359 10.4601C11.3702 10.262 11.208 10.2365 10.8667 10.3546C10.3122 10.5466 9.74876 10.4599 9.42234 10.1326C9.13389 9.84338 9.0082 9.58423 9.0082 9.27854C9.0082 8.61753 9.46502 8.18103 10.1612 8.17676C10.3787 8.17545 10.5322 8.20463 10.676 8.27462ZM9.92902 8.39123C9.53699 8.51759 9.20422 8.95719 9.20195 9.35182C9.20065 9.57938 9.3892 9.96354 9.58251 10.1272C9.83749 10.3431 10.3661 10.3884 10.6756 10.2209C10.7316 10.1906 10.8431 10.0905 10.9234 9.99843C11.3463 9.51375 11.2104 8.77122 10.6456 8.48095C10.3553 8.33176 10.1812 8.30995 9.92902 8.39123ZM13.4641 8.45972C13.2671 8.58326 13.0713 8.80113 13.0096 8.96563C12.9814 9.04066 12.9583 9.22726 12.9583 9.38022C12.9583 9.60342 12.9857 9.70186 13.097 9.87843C13.296 10.1941 13.5019 10.3075 13.8761 10.3075C14.4759 10.3075 14.8404 9.98162 14.8764 9.41328C14.904 8.97668 14.7259 8.65737 14.3452 8.46098C14.1055 8.33734 13.6603 8.33671 13.4641 8.45972ZM9.54783 10.5591C9.75959 10.6503 10.0649 10.9341 10.357 11.3111L10.4775 11.4665L11.2186 11.4202C11.6887 11.3908 12.2438 11.3907 12.7361 11.4199L13.5123 11.466L13.8134 11.3199C13.979 11.2396 14.1145 11.1521 14.1145 11.1255C14.1145 11.0516 14.603 10.5483 14.74 10.481C14.8617 10.4213 15.0297 10.4295 15.0297 10.4951C15.0297 10.5145 14.9545 10.5577 14.8627 10.5911C14.6344 10.6742 14.3068 11.077 14.1013 11.5273C13.9018 11.9643 13.7527 12.0841 13.1992 12.2513C12.6999 12.4021 11.4051 12.4167 10.9592 12.2765C10.3602 12.0881 10.1494 11.9157 10.0353 11.5208C9.8874 11.0089 9.62799 10.7329 9.14256 10.5706C9.0163 10.5284 8.89881 10.4709 8.88146 10.4426C8.83397 10.3653 9.27792 10.4429 9.54783 10.5591ZM9.10903 11.0009C9.3866 11.1471 9.61349 11.4853 9.68734 11.863C9.72043 12.0321 9.80102 12.2323 9.88051 12.3426C10.0365 12.5593 10.6276 12.9271 11.492 13.3453C11.9294 13.557 12.0793 13.6081 12.194 13.585C12.3611 13.5514 13.4437 13.0132 13.9348 12.7197C14.341 12.4769 14.4745 12.3069 14.5751 11.9041C14.6733 11.5109 14.8382 11.2208 15.0607 11.0502C15.2981 10.868 15.7486 10.8359 15.984 10.9845C16.1705 11.1021 16.2822 11.3389 16.2822 11.6162C16.2822 11.8032 16.2932 11.8182 16.4951 11.9053C16.7478 12.0142 17.0777 12.3024 17.1819 12.5051C17.2901 12.7156 17.2416 13.0355 17.068 13.2555C16.9728 13.3763 16.7809 13.5067 16.4724 13.6604C16.1467 13.8227 15.9539 13.9562 15.7945 14.1298C15.5583 14.3869 15.5121 14.5363 15.4399 15.2751C15.4222 15.4562 15.3714 15.6252 15.3049 15.7241C15.11 16.0142 14.6593 16.1516 14.3223 16.0237C14.2478 15.9954 13.9808 15.7581 13.7291 15.4965C13.1398 14.884 13.0267 14.8392 12.0671 14.8392C11.4374 14.8392 11.3751 14.8477 11.1278 14.9671C10.8111 15.1199 10.646 15.2717 10.357 15.676C9.98571 16.1954 9.59282 16.2967 9.22151 15.9686C8.98277 15.7577 8.92858 15.6231 8.8989 15.167C8.86908 14.7097 8.74634 14.4027 8.51497 14.2069C8.43332 14.1377 8.17603 13.9849 7.94331 13.8673C7.25642 13.5202 7.03314 13.264 7.03314 12.823C7.03314 12.4857 7.34467 12.111 7.77557 11.9298C7.93551 11.8626 7.94842 11.8417 7.94842 11.651C7.94842 11.3642 8.08628 11.1313 8.33442 10.9993C8.59816 10.859 8.84052 10.8595 9.10903 11.0009ZM8.4022 11.1743C8.23875 11.2746 8.12439 11.4979 8.1492 11.6684C8.16143 11.7525 8.22126 11.7963 8.40384 11.8547C8.80569 11.9834 8.93835 12.3736 8.64585 12.5664C8.54623 12.6321 8.5023 12.6356 8.38625 12.5873C8.15238 12.4898 8.14366 12.2563 8.37007 12.1525C8.47224 12.1056 8.48361 12.0854 8.42763 12.0497C8.17863 11.8913 7.48457 12.2227 7.29563 12.5903C7.19442 12.7872 7.20941 12.914 7.3493 13.0445C7.53678 13.2193 7.77297 13.2371 8.28914 13.1152C8.65611 13.0285 8.81975 13.0144 9.16785 13.0392C9.67105 13.0751 9.85907 13.1502 10.3666 13.5177C10.6039 13.6896 10.8257 13.8076 10.9825 13.8454C11.2455 13.9089 11.5934 13.8794 11.7253 13.7824C11.7944 13.7315 11.7135 13.6762 11.1521 13.3915C10.3177 12.9683 9.8214 12.6417 9.69167 12.4306C9.63536 12.3389 9.55886 12.1329 9.52177 11.9728C9.44546 11.6437 9.37875 11.4968 9.231 11.3328C8.99963 11.0759 8.66647 11.0122 8.4022 11.1743ZM15.2187 11.1932C14.9878 11.3497 14.8602 11.5636 14.7653 11.9532C14.6247 12.5303 14.3281 12.7811 13.0065 13.4403L12.4043 13.7407L12.5489 13.8001C12.6283 13.8327 12.8175 13.8698 12.9692 13.8825C13.3138 13.9114 13.543 13.8247 13.9758 13.5019C14.4414 13.1547 14.6499 13.0764 15.2037 13.0411C15.5661 13.0179 15.7509 13.0294 15.976 13.0889C16.3729 13.1937 16.7264 13.191 16.8483 13.0823C16.9006 13.0356 16.9707 12.9263 17.0042 12.8394C17.0597 12.6955 17.0539 12.6643 16.9397 12.4907C16.7259 12.1657 16.1486 11.9149 15.8657 12.0241C15.795 12.0513 15.8061 12.0714 15.9357 12.1506C16.1085 12.2564 16.1325 12.3859 16.0014 12.5052C15.7633 12.722 15.4258 12.4981 15.5156 12.183C15.5764 11.9699 15.6973 11.8607 15.9104 11.8264L16.1004 11.7958L16.0771 11.5513C16.0591 11.3633 16.0238 11.2808 15.9244 11.1949C15.75 11.0439 15.4398 11.0432 15.2187 11.1932ZM11.0974 11.6484C10.7873 11.6642 10.6882 11.6879 10.6211 11.7625C10.4469 11.9562 10.7159 12.0721 11.5132 12.1468C12.1343 12.205 13.1473 12.1269 13.3678 12.0037C13.5445 11.9049 13.5756 11.786 13.4434 11.7148C13.3382 11.6582 11.7768 11.614 11.0974 11.6484ZM8.98841 13.4132C8.91981 13.4952 8.86369 13.5916 8.86369 13.6275C8.86369 13.7389 9.10758 13.991 9.28919 14.0674C9.69678 14.2387 9.7501 14.4767 9.44436 14.76C9.22402 14.9642 9.14357 15.1445 9.18336 15.3448C9.22773 15.568 9.41333 15.7117 9.65737 15.7117C9.89486 15.7117 10.0291 15.6146 10.1666 15.3435C10.3448 14.9922 10.7883 14.7267 11.3344 14.6443C11.5883 14.606 11.6261 14.551 11.4321 14.5021C11.2224 14.4491 10.5835 14.1129 10.2144 13.8613C9.68252 13.4987 9.28139 13.264 9.19333 13.264C9.14921 13.264 9.057 13.3311 8.98841 13.4132ZM14.7648 13.4013C14.6323 13.4758 14.3397 13.6644 14.1145 13.8203C13.7613 14.065 13.4077 14.2523 12.7897 14.5222C12.6474 14.5843 12.652 14.587 13.1028 14.6996C13.6087 14.8261 13.8894 14.9902 14.0422 15.2487C14.0952 15.3384 14.2069 15.4847 14.2903 15.5738C14.4903 15.7875 14.7592 15.801 14.9519 15.6071C15.2066 15.3508 15.1786 15.1037 14.8593 14.7915C14.712 14.6474 14.6444 14.5411 14.6444 14.4535C14.6444 14.305 14.8288 14.1127 15.0167 14.0653C15.4151 13.9647 15.5321 13.665 15.2743 13.4057C15.1014 13.2318 15.0666 13.2314 14.7648 13.4013ZM21.4217 15.6447C21.62 15.8564 21.6777 16.0178 21.6764 16.357C21.6742 16.9334 21.3824 17.3044 20.6177 17.7028C20.0721 17.987 19.9159 18.11 19.6163 18.4914C19.1315 19.1084 19.1632 19.7219 19.7108 20.3197C19.9143 20.5417 20.4113 20.825 20.5974 20.825C20.7478 20.825 21.6767 19.8895 22.0061 19.4062C22.5107 18.6658 22.8955 17.6361 22.8976 17.0203C22.8982 16.8277 22.8643 16.6523 22.7973 16.5009C22.5793 16.009 22.0134 15.5776 21.4984 15.5107L21.268 15.4807L21.4217 15.6447ZM0 17.4289C0 17.4479 0.145625 17.5928 0.323621 17.7508C0.501569 17.9089 0.811895 18.1908 1.01316 18.3774C1.21437 18.564 1.61338 18.9021 1.89977 19.1287C2.18615 19.3552 2.66604 19.7969 2.96625 20.1101C3.26641 20.4233 3.54104 20.6796 3.57655 20.6796C3.612 20.6796 3.82237 20.5673 4.04406 20.4301C4.34672 20.2427 4.69433 19.9379 5.4398 19.2062C6.34019 18.3226 6.91204 17.8481 7.42502 17.559C7.51419 17.5088 7.56545 17.4614 7.53895 17.4539C7.42729 17.4219 0 17.3973 0 17.4289ZM9.39358 17.524C8.61175 17.6984 7.72764 18.1124 7.09543 18.6002C6.89291 18.7564 6.35709 19.2503 5.90471 19.6977C5.07441 20.5189 4.69356 20.8438 4.27528 21.0883C4.14946 21.1618 4.04647 21.2381 4.04647 21.2577C4.04647 21.2773 4.22528 21.4749 4.44389 21.6968C4.87406 22.1334 5.21349 22.3754 5.92518 22.7527C6.39722 23.003 7.9015 23.5537 8.34352 23.638C8.67948 23.7021 9.7159 23.8301 9.89795 23.8299C10.0346 23.8298 10.0257 23.8187 9.75921 23.6571C9.10778 23.2619 8.63492 22.7792 8.42889 22.2989C8.14915 21.647 8.2097 20.9018 8.60404 20.1439C8.87419 19.6247 9.31391 19.2279 9.96057 18.9197C10.2459 18.7837 10.3338 18.7651 10.6942 18.7651C11.0588 18.7651 11.1322 18.781 11.3639 18.9102C11.5071 18.9899 11.7018 19.1485 11.7965 19.2626C11.9427 19.4386 11.9739 19.457 12.0025 19.3841C12.0658 19.2231 12.0432 18.7102 11.9623 18.4708C11.8432 18.1183 11.4365 17.7316 11.0314 17.5857C10.5915 17.4273 9.93745 17.4026 9.39358 17.524ZM12.4164 17.4679C12.2012 17.485 12.13 17.5362 12.2328 17.6001C12.3133 17.6501 12.5729 18.1436 12.6456 18.385C12.8749 19.1453 12.5864 20.0913 12.0139 20.4565C11.7673 20.6139 11.6096 20.6164 11.4684 20.4652C11.3728 20.3628 11.3629 20.3166 11.3914 20.1076C11.4217 19.8861 11.4128 19.8544 11.2762 19.698C10.9892 19.3691 10.6553 19.3411 10.1055 19.5999C9.33785 19.9613 8.81373 20.8992 8.95372 21.6611C9.07902 22.343 9.4998 22.7851 10.4675 23.2516C11.0753 23.5446 11.7232 23.6952 12.2877 23.6745C12.6941 23.6597 12.7879 23.6385 13.0736 23.4969C13.4749 23.2982 13.9463 22.8612 14.2416 22.4143C14.3646 22.2282 14.7081 21.6 15.0049 21.0183C15.3017 20.4366 15.6555 19.8101 15.7911 19.6261C16.0785 19.236 16.7671 18.5546 17.1916 18.2401C17.3547 18.1194 17.4715 18.011 17.4512 17.9993C17.4309 17.9877 17.2734 17.9631 17.1011 17.9449C16.9289 17.9265 16.2252 17.8243 15.5374 17.7176C14.5022 17.557 13.0193 17.4124 12.7175 17.4425C12.6777 17.4465 12.5423 17.4579 12.4164 17.4679ZM18.5222 18.1969C18.043 18.4534 17.5674 18.7811 17.1493 19.1429C16.485 19.7178 16.193 20.1339 15.5439 21.4309C14.9782 22.5611 14.6826 23.0215 14.2246 23.4854C14.0301 23.6824 13.877 23.849 13.8843 23.8554C13.9059 23.8746 14.6393 23.7484 15.0053 23.6626C15.8753 23.4586 16.8343 23.0907 17.5307 22.6936C17.7316 22.579 18.1453 22.3603 18.45 22.2074C19.0097 21.9266 19.8772 21.4267 19.9169 21.3621C19.9287 21.3428 19.7998 21.2354 19.6305 21.1234C19.2817 20.8926 19.0568 20.6482 18.8618 20.2878C18.4974 19.6141 18.5114 18.9943 18.9059 18.3352C18.9996 18.1787 19.0762 18.0423 19.0762 18.0323C19.0762 17.9643 18.8076 18.0442 18.5222 18.1969Z" fill="black"/>
</svg>
