<svg width="24" height="27" viewBox="0 0 24 27" fill="none" xmlns="http://www.w3.org/2000/svg">
<path fill-rule="evenodd" clip-rule="evenodd" d="M7.89526 2.65966V4.50218H6.48609C5.2112 4.50218 5.07693 4.54108 5.07693 4.91163C5.07693 5.13908 5.2112 5.32108 5.37889 5.32108C5.6418 5.32108 5.79661 5.84947 5.69897 6.41349C5.68267 6.50766 5.85318 6.63356 6.07764 6.69334C6.42429 6.78547 6.48609 6.9689 6.48609 7.90408C6.48609 8.74714 6.41523 9.00612 6.18413 9.00612C6.01644 9.00612 5.88216 9.18812 5.88216 9.41556C5.88216 9.77035 6.01644 9.82501 6.88871 9.82501C7.63315 9.82501 7.89526 9.90219 7.89526 10.1215C7.89526 10.3346 7.59873 10.4351 6.83838 10.4797L5.78151 10.5415L5.72072 11.6164C5.66596 12.5839 5.70099 12.6912 6.07301 12.6912C6.45851 12.6912 6.48609 12.8121 6.48609 14.5097C6.48609 16.1649 6.44945 16.3381 6.07764 16.437C5.85318 16.4968 5.68267 16.6227 5.69897 16.7169C5.71528 16.811 5.7179 17.3257 5.70461 17.8604C5.6871 18.5776 5.60154 18.8329 5.37889 18.8329C5.21281 18.8329 5.07693 18.6947 5.07693 18.5258C5.07693 18.3569 4.98634 18.2187 4.87562 18.2187C4.7649 18.2187 4.67431 18.5016 4.67431 18.8476C4.67431 19.3742 4.74779 19.4704 5.12726 19.4391C6.16802 19.3533 6.48609 19.4471 6.48609 19.8395C6.48609 20.0553 6.59943 20.2782 6.73773 20.3352C6.93904 20.4177 6.93904 20.4416 6.73773 20.4545C6.59581 20.4637 6.48609 20.7387 6.48609 21.0849C6.48609 21.6853 6.46375 21.699 5.47955 21.699H4.473V19.8565C4.473 18.4576 4.53762 18.014 4.74135 18.014C4.91387 18.014 5.00989 17.7581 5.00989 17.2975V16.5809H3.74788C3.05397 16.5809 2.25377 16.6708 1.96972 16.7805C1.62085 16.9154 1.45336 16.9113 1.45336 16.7676C1.45336 16.6507 1.15905 16.5838 0.799106 16.6192C0.148071 16.6831 0.144448 16.6896 0.0423839 17.9949C-0.0459909 19.1267 -0.011567 19.3193 0.29402 19.4006C0.543845 19.4671 0.648124 19.6987 0.648124 20.1875C0.648124 20.7436 0.72744 20.8801 1.05074 20.8801C1.38632 20.8801 1.45336 21.0167 1.45336 21.699C1.45336 22.2905 1.53731 22.5179 1.75532 22.5179C1.9663 22.5179 2.05729 22.7341 2.05729 23.2345C2.05729 23.8144 2.13399 23.951 2.45991 23.951C2.72825 23.951 2.86253 24.0875 2.86253 24.3604C2.86253 24.5879 2.9968 24.7699 3.16449 24.7699C3.33057 24.7699 3.46645 24.9081 3.46645 25.077C3.46645 25.2987 3.69011 25.3841 4.27169 25.3841C5.0578 25.3841 5.07693 25.4011 5.07693 26.1006V26.8171H9.10311H13.1293V26.1006C13.1293 25.398 13.1454 25.3841 13.9561 25.3841C14.6083 25.3841 14.7583 25.3192 14.6669 25.077C14.5882 24.8682 14.6778 24.7699 14.9473 24.7699C15.2094 24.7699 15.3437 24.6313 15.3437 24.3604C15.3437 24.0875 15.478 23.951 15.7463 23.951C16.0215 23.951 16.1489 23.8144 16.1489 23.5196C16.1489 23.2093 16.2387 23.1233 16.4696 23.2134C16.6834 23.2969 16.8253 23.2019 16.8956 22.9282C16.9536 22.7026 17.1265 22.5179 17.2797 22.5179C17.4327 22.5179 17.5581 22.3337 17.5581 22.1085C17.5581 21.8356 17.6924 21.699 17.9607 21.699C18.2866 21.699 18.3633 21.5625 18.3633 20.9825C18.3633 20.4821 18.4543 20.266 18.6653 20.266C18.833 20.266 18.9673 20.084 18.9673 19.8565C18.9673 19.5126 19.1015 19.4471 19.8061 19.4471C20.2673 19.4471 20.5876 19.3889 20.5178 19.3179C20.2226 19.0178 20.7732 18.4791 21.2753 18.5766C21.6916 18.6576 21.7856 18.596 21.7856 18.2427C21.7856 17.9122 21.9171 17.8035 22.3392 17.7851C22.6436 17.7716 22.9693 17.7747 23.0627 17.7915C23.1561 17.8082 23.1992 17.7202 23.1583 17.5955C23.1175 17.4711 23.0184 17.3761 22.9381 17.3845C22.8578 17.3929 22.4378 17.3998 22.0046 17.3998C21.2841 17.3998 21.2217 17.4434 21.2725 17.9116C21.3027 18.1931 21.2495 18.4234 21.1539 18.4234C21.0585 18.4234 20.9804 18.3272 20.9804 18.2097C20.9804 18.0922 20.8672 18.0109 20.7287 18.0293C20.5904 18.0476 19.5032 18.0517 18.313 18.0381C16.2911 18.0156 16.1489 17.9872 16.1489 17.6045C16.1489 17.2254 16.2832 17.1951 17.9607 17.1951H19.7725V16.0691C19.7725 15.0797 19.7238 14.9431 19.3699 14.9431C19.016 14.9431 18.9673 14.8066 18.9673 13.8171V12.6912H17.5581C16.4396 12.6912 16.1489 12.6277 16.1489 12.3841C16.1489 12.1695 16.3615 12.077 16.8535 12.077H17.5581V10.1321C17.5581 8.53975 17.5033 8.18722 17.2561 8.18722C17.0901 8.18722 16.9542 8.04903 16.9542 7.88013C16.9542 7.7096 16.7752 7.57304 16.5516 7.57304C16.2832 7.57304 16.1489 7.43649 16.1489 7.1636C16.1489 6.8907 16.0147 6.75415 15.7463 6.75415C15.5227 6.75415 15.3437 6.6176 15.3437 6.44706C15.3437 6.21122 15.601 6.13997 16.4509 6.13997C17.4238 6.13997 17.5581 6.09043 17.5581 5.73052C17.5581 5.39908 17.4238 5.32108 16.8535 5.32108C16.2832 5.32108 16.1489 5.24308 16.1489 4.91163C16.1489 4.57035 16.0147 4.50218 15.3437 4.50218H14.5385V8.18722C14.5385 11.3263 14.4938 11.8723 14.2365 11.8723C14.0704 11.8723 13.9345 11.7341 13.9345 11.5652C13.9345 11.3946 13.7556 11.2581 13.5319 11.2581C13.2658 11.2581 13.1293 11.1215 13.1293 10.8556C13.1293 10.4842 12.9634 10.4486 10.9815 10.395C9.4848 10.3544 8.8086 10.2592 8.75042 10.0809C8.70251 9.93413 8.83578 9.82501 9.06285 9.82501C9.29496 9.82501 9.50432 9.64813 9.56874 9.39755C9.66859 9.00919 9.80005 8.97623 11.0019 9.03928L12.3249 9.10848L12.3245 6.80533L12.3241 4.50218H10.6129H8.9018V3.78564V3.06911H10.6129H12.3241V2.35257C12.3241 1.67023 12.2904 1.63604 11.6195 1.63604C11.0492 1.63604 10.9149 1.55804 10.9149 1.22659C10.9149 0.85358 10.7806 0.817139 9.40508 0.817139H7.89526V2.65966ZM1.45336 6.54308C1.45336 7.545 1.39901 7.74378 1.1514 7.64715C0.985317 7.58226 0.849433 7.62361 0.849433 7.73887C0.849433 7.85413 0.96277 7.99478 1.10107 8.05169C1.25145 8.11331 1.21078 8.16142 1.00041 8.17104C0.726232 8.18353 0.648124 8.36881 0.648124 9.00612C0.648124 9.68846 0.71516 9.82501 1.05074 9.82501C1.40364 9.82501 1.45336 9.96156 1.45336 10.9283C1.45336 11.8442 1.39478 12.0266 1.10872 12.0031C0.919287 11.9875 0.731466 12.1357 0.691405 12.3329C0.640675 12.5827 0.744953 12.6912 1.03605 12.6912C1.37888 12.6912 1.45336 12.8191 1.45336 13.4077C1.45336 13.9877 1.37666 14.1242 1.05074 14.1242C0.782397 14.1242 0.648124 14.2608 0.648124 14.5337C0.648124 14.8066 0.782397 14.9431 1.05074 14.9431C1.38632 14.9431 1.45336 15.0797 1.45336 15.762C1.45336 16.4444 1.5204 16.5809 1.85598 16.5809C2.18049 16.5809 2.2586 16.4444 2.2586 15.8781C2.2586 15.0473 2.60163 14.8729 4.03133 14.9769C4.88206 15.0387 4.98271 14.9996 5.04069 14.5849C5.08377 14.2751 5.00144 14.1242 4.78906 14.1242C4.61512 14.1242 4.473 13.986 4.473 13.8171C4.473 13.6466 4.29404 13.5101 4.07038 13.5101C3.80204 13.5101 3.66776 13.3735 3.66776 13.1006C3.66776 12.7692 3.53349 12.6912 2.96318 12.6912H2.2586V11.282C2.2586 10.0938 2.31577 9.85756 2.62337 9.77567C2.93439 9.69297 2.97063 9.53164 2.86917 8.67712C2.79428 8.04555 2.6594 7.69424 2.5044 7.72659C2.36308 7.75607 2.2586 7.56035 2.2586 7.26596C2.2586 6.78117 2.31798 6.75415 3.38049 6.75415C4.34034 6.75415 4.49273 6.70235 4.43475 6.39629C4.39751 6.19934 4.23223 6.02922 4.06776 6.01796C3.18784 5.95818 3.06383 5.90986 3.06383 5.62816C3.06383 5.40645 2.84018 5.32108 2.2586 5.32108H1.45336V6.54308ZM11.7201 12.6912C11.7201 13.9877 11.6819 14.1242 11.3175 14.1242C11.0492 14.1242 10.9149 14.2608 10.9149 14.5337C10.9149 14.8885 10.7806 14.9431 9.90835 14.9431C9.12163 14.9431 8.9018 14.8719 8.9018 14.6168C8.9018 14.4375 8.72063 14.2424 8.49919 14.1836C8.14569 14.0896 8.09657 13.9044 8.09657 12.6672V11.2581H9.90835H11.7201V12.6912ZM8.7005 13.1006C8.7005 13.3735 8.83477 13.5101 9.10311 13.5101C9.37146 13.5101 9.50573 13.3735 9.50573 13.1006C9.50573 12.8277 9.37146 12.6912 9.10311 12.6912C8.83477 12.6912 8.7005 12.8277 8.7005 13.1006ZM10.1097 13.1006C10.1097 13.3735 10.2439 13.5101 10.5123 13.5101C10.7806 13.5101 10.9149 13.3735 10.9149 13.1006C10.9149 12.8277 10.7806 12.6912 10.5123 12.6912C10.2439 12.6912 10.1097 12.8277 10.1097 13.1006ZM15.3437 15.3526C15.3437 17.0892 15.4178 18.014 15.5569 18.014C15.674 18.014 15.7167 18.102 15.6513 18.2095C15.5778 18.3303 16.4573 18.3888 17.9547 18.363C19.2867 18.3399 20.3766 18.3946 20.3766 18.4842C20.3764 18.5741 19.4025 18.6388 18.2124 18.628C15.4055 18.6028 13.9345 18.7952 13.9345 19.1877C13.9345 19.3515 13.7602 19.5318 13.5472 19.5883C13.3215 19.6485 13.1867 19.8326 13.2239 20.0299C13.2813 20.3327 12.9656 20.3683 10.2266 20.3683H7.16511L7.25167 19.9077C7.33602 19.4595 7.40587 19.4471 9.83125 19.4471C11.9128 19.4471 12.3241 19.3965 12.3241 19.14C12.3241 18.9694 12.503 18.8329 12.7267 18.8329C12.995 18.8329 13.1293 18.6963 13.1293 18.4234C13.1293 18.1505 13.2636 18.014 13.5319 18.014C13.9043 18.014 13.9345 17.8774 13.9345 16.1954C13.9345 14.5515 13.973 14.3664 14.3355 14.27C14.6482 14.1869 14.7206 14.0253 14.6647 13.5363C14.5864 12.8531 14.6651 12.6912 15.0754 12.6912C15.2851 12.6912 15.3437 13.2711 15.3437 15.3526ZM7.89526 15.3647C7.89526 15.4707 7.75937 15.5573 7.59329 15.5573C7.28207 15.5573 7.19329 15.3157 7.41997 15.0852C7.58081 14.9216 7.89526 15.1065 7.89526 15.3647ZM12.3241 15.2502C12.3241 15.4191 12.1882 15.5573 12.0221 15.5573C11.856 15.5573 11.7201 15.4191 11.7201 15.2502C11.7201 15.0813 11.856 14.9431 12.0221 14.9431C12.1882 14.9431 12.3241 15.0813 12.3241 15.2502ZM8.7005 16.0691C8.7005 16.238 8.56461 16.3762 8.39853 16.3762C8.23245 16.3762 8.09657 16.238 8.09657 16.0691C8.09657 15.9002 8.23245 15.762 8.39853 15.762C8.56461 15.762 8.7005 15.9002 8.7005 16.0691ZM11.7201 16.0691C11.7201 16.2396 11.5412 16.3762 11.3175 16.3762C11.0939 16.3762 10.9149 16.2396 10.9149 16.0691C10.9149 15.8986 11.0939 15.762 11.3175 15.762C11.5412 15.762 11.7201 15.8986 11.7201 16.0691ZM10.9149 16.8641C10.9149 17.0198 11.0961 17.1955 11.3175 17.2545C11.539 17.3132 11.7201 17.4623 11.7201 17.5853C11.7201 17.7085 11.539 17.8093 11.3175 17.8093C11.0939 17.8093 10.9149 17.6727 10.9149 17.5022C10.9149 17.2702 10.6689 17.1951 9.90835 17.1951C9.1478 17.1951 8.9018 17.12 8.9018 16.888C8.9018 16.6561 9.1478 16.5809 9.90835 16.5809C10.6311 16.5809 10.9149 16.6608 10.9149 16.8641ZM23.4422 16.8241C23.5666 17.2037 24 17.2665 24 16.905C24 16.7269 23.8565 16.5809 23.6813 16.5809C23.506 16.5809 23.3983 16.6902 23.4422 16.8241ZM8.6544 17.5663C8.69828 17.6999 8.59058 17.8093 8.41524 17.8093C8.2399 17.8093 8.09657 17.6633 8.09657 17.4852C8.09657 17.1236 8.52999 17.1865 8.6544 17.5663ZM7.89526 18.3211C7.89526 18.49 7.75937 18.6282 7.59329 18.6282C7.42721 18.6282 7.29133 18.49 7.29133 18.3211C7.29133 18.1522 7.42721 18.014 7.59329 18.014C7.75937 18.014 7.89526 18.1522 7.89526 18.3211ZM12.3241 18.3211C12.3241 18.49 12.1882 18.6282 12.0221 18.6282C11.856 18.6282 11.7201 18.49 11.7201 18.3211C11.7201 18.1522 11.856 18.014 12.0221 18.014C12.1882 18.014 12.3241 18.1522 12.3241 18.3211ZM17.3568 20.1636C17.3568 20.8232 17.3089 20.8801 16.7529 20.8801C16.1969 20.8801 16.1489 20.8232 16.1489 20.1636C16.1489 19.504 16.1969 19.4471 16.7529 19.4471C17.3089 19.4471 17.3568 19.504 17.3568 20.1636ZM5.11316 20.5198C5.20879 21.2003 5.88216 21.2601 5.88216 20.588C5.88216 20.1918 5.77889 20.0612 5.46545 20.0612C5.1492 20.0612 5.06445 20.1716 5.11316 20.5198ZM13.6694 20.7139C13.6052 20.8771 13.5575 20.8285 13.5478 20.59C13.5392 20.3743 13.5867 20.2535 13.6535 20.3214C13.7203 20.3894 13.7276 20.5661 13.6694 20.7139ZM3.56791 21.9052C3.63696 22.0186 3.54778 22.1683 3.36983 22.2377C2.98452 22.3879 2.76972 22.2223 2.95493 21.9175C3.12201 21.6423 3.40485 21.6368 3.56791 21.9052ZM7.89526 22.0061C7.89526 22.175 7.8101 22.3132 7.70583 22.3132C7.45197 22.3132 7.27019 21.9934 7.43104 21.8298C7.65771 21.5993 7.89526 21.6896 7.89526 22.0061ZM4.27169 22.825C4.27169 22.9939 4.13581 23.1321 3.96973 23.1321C3.80365 23.1321 3.66776 22.9939 3.66776 22.825C3.66776 22.6561 3.80365 22.5179 3.96973 22.5179C4.13581 22.5179 4.27169 22.6561 4.27169 22.825ZM7.29133 22.825C7.29133 22.9939 7.16088 23.1321 7.00124 23.1321C6.66486 23.1321 6.43798 22.84 6.6258 22.6487C6.86637 22.4041 7.29133 22.5167 7.29133 22.825ZM10.0267 23.0801C9.95787 23.1499 9.78998 23.0846 9.65329 22.935C9.45621 22.7188 9.45702 22.6924 9.65671 22.807C9.80065 22.8897 9.9152 22.8369 9.92425 22.6835C9.93734 22.4635 9.95908 22.4637 10.0458 22.6844C10.104 22.832 10.0954 23.0101 10.0267 23.0801ZM14.5385 22.8471C14.5385 23.0164 14.1475 23.1122 14.0579 22.9648C13.9998 22.8692 14.0841 22.7908 14.2454 22.7908C14.4066 22.7908 14.5385 22.8162 14.5385 22.8471ZM6.03315 23.2611C6.55192 23.4025 6.64553 23.7463 6.16521 23.7463C5.98886 23.7463 5.79701 23.9305 5.73924 24.1557C5.68126 24.3809 5.49887 24.5652 5.3338 24.5652C5.14215 24.5652 5.07834 24.4475 5.15685 24.239C5.23898 24.0216 5.14557 23.8773 4.87642 23.8058C4.37919 23.6736 4.35282 23.3989 4.82529 23.2732C5.36641 23.1294 5.54336 23.1276 6.03315 23.2611Z" fill="#333333"/>
</svg>
