<svg width="55" height="47" viewBox="0 0 55 47" fill="none" xmlns="http://www.w3.org/2000/svg">
<g clip-path="url(#clip0_1620_20322)">
<path fill-rule="evenodd" clip-rule="evenodd" d="M46.2752 0.174168C45.8975 0.210101 45.5639 0.277345 45.5339 0.32357C45.5037 0.369794 45.2686 0.434945 45.0115 0.468349C44.5792 0.524516 43.9165 0.668074 43.1678 0.867799C42.3461 1.08697 41.5366 1.3256 41.3799 1.39476C41.284 1.43715 40.8326 1.59492 40.3769 1.74546C39.9212 1.89599 39.429 2.07243 39.2831 2.13749C39.1372 2.20256 38.7919 2.32536 38.5157 2.41039C38.2396 2.49543 37.9387 2.6348 37.8471 2.72019C37.7555 2.80548 37.6494 2.87665 37.6115 2.87831C37.5734 2.87996 37.3854 2.95706 37.1935 3.04978C37.0017 3.14249 36.7957 3.21959 36.7356 3.22124C36.6757 3.2229 36.6266 3.26346 36.6266 3.31142C36.6266 3.35939 36.5678 3.39864 36.4958 3.39864C36.4239 3.39864 36.365 3.44024 36.365 3.491C36.365 3.54176 36.3255 3.55894 36.2771 3.52903C36.1673 3.46126 35.9149 3.70198 35.9985 3.7946C36.0322 3.83193 35.9936 3.83882 35.9128 3.80995C35.8319 3.781 35.7534 3.79138 35.7383 3.83306C35.7232 3.87475 35.6522 3.92159 35.5804 3.9372C35.5086 3.95281 35.3977 4.02442 35.334 4.09637C35.2459 4.19597 35.2336 4.19763 35.2826 4.10326C35.3236 4.0245 35.2658 4.04038 35.1237 4.14687C35.0008 4.23906 34.9137 4.33665 34.9302 4.36386C34.9466 4.39099 34.8346 4.48474 34.6814 4.57214C34.1663 4.86579 33.4435 5.35019 33.4142 5.42136C33.3981 5.46008 33.3295 5.49183 33.2616 5.49183C33.1936 5.49183 33.138 5.53108 33.138 5.57905C33.138 5.62702 33.0791 5.66626 33.0072 5.66626C32.9352 5.66626 32.8763 5.69984 32.8763 5.74083C32.8763 5.78182 32.6997 5.92704 32.4839 6.06345C32.268 6.19994 32.0914 6.34297 32.0914 6.38135C32.0914 6.41981 32.0491 6.45121 31.9974 6.45121C31.9458 6.45121 31.7858 6.56895 31.6419 6.71286C31.498 6.85676 31.3538 6.97512 31.3215 6.9759C31.2893 6.97669 31.1399 7.08457 30.9895 7.21575C30.3669 7.75876 30.2552 7.84667 30.188 7.84667C30.1493 7.84667 29.92 8.03314 29.6786 8.26095C29.4372 8.48884 28.9917 8.89108 28.6885 9.15491C28.3852 9.41874 27.8986 9.86215 27.6068 10.1402C27.3151 10.4183 26.9293 10.7784 26.7494 10.9406C26.5695 11.1027 26.4218 11.2676 26.4211 11.3071C26.4205 11.3467 26.188 11.6066 25.9045 11.8848C25.3876 12.392 25.0347 12.7837 24.5472 13.3912C24.4033 13.5705 24.1754 13.8386 24.0407 13.9871C23.9061 14.1356 23.7098 14.3684 23.6046 14.5044C23.4994 14.6405 23.3737 14.7975 23.3252 14.8533C23.169 15.033 22.369 15.9957 22.2997 16.0872C22.2629 16.136 22.1504 16.2739 22.0498 16.3939C21.9493 16.5138 21.8028 16.71 21.7244 16.8299C21.56 17.0813 21.3761 17.3189 21.1894 17.5211C21.1174 17.5991 20.9015 17.8967 20.7097 18.1825C20.3127 18.7739 20.3039 18.7862 20.0326 19.1412C19.6986 19.5783 19.1834 20.3976 19.1834 20.4917C19.1834 20.5404 19.1531 20.5802 19.1161 20.5802C19.0792 20.5802 18.9524 20.7569 18.8345 20.9727C18.7166 21.1886 18.5958 21.3652 18.5661 21.3652C18.5364 21.3652 18.4413 21.5222 18.3548 21.7141C18.2683 21.9059 18.1643 22.0629 18.1235 22.0629C18.0829 22.0629 18.0496 22.1057 18.0496 22.158C18.0496 22.311 16.9694 24.0685 16.8728 24.0726C16.8245 24.0747 16.5972 24.3986 16.3679 24.7922C16.0009 25.4218 15.7434 25.833 15.2586 26.5631C15.1867 26.6714 14.9535 27.0474 14.7404 27.3985C14.5273 27.7496 14.2821 28.113 14.1953 28.2061C14.1086 28.2992 14.0376 28.4076 14.0376 28.4471C14.0376 28.4865 13.9077 28.7047 13.7488 28.9321C13.5898 29.1594 13.4333 29.4164 13.4008 29.503C13.3682 29.5896 13.0861 30.048 12.7739 30.5216C12.4615 30.9952 12.2061 31.4019 12.2061 31.4255C12.2061 31.4807 11.2312 32.9073 11.1541 32.9649C11.122 32.9889 11.0657 33.1048 11.0289 33.2225C10.9921 33.3402 10.9182 33.4861 10.8645 33.5466C10.6685 33.7678 10.5828 33.8876 10.3764 34.2296C10.2605 34.4215 10.143 34.5981 10.1152 34.6221C10.0875 34.646 9.92842 34.8409 9.76175 35.055C9.59508 35.2692 9.37041 35.5398 9.26253 35.6564C9.15464 35.7731 9.06629 35.8964 9.06629 35.9303C9.06629 35.9642 8.97794 36.0899 8.87005 36.2096C8.60841 36.4996 8.38696 36.7672 8.0197 37.2373C7.85181 37.4521 7.65557 37.6923 7.58362 37.7709C7.51166 37.8496 7.31543 38.0811 7.14753 38.2853C6.5119 39.0586 6.30537 39.288 5.83929 39.7389C5.57546 39.9941 5.2968 40.2031 5.21997 40.2034C4.32914 40.2065 3.65295 41.5594 3.918 42.8084C4.02223 43.2996 4.43955 43.9542 4.64853 43.9542C4.68673 43.9542 4.77368 44.0099 4.84171 44.078C4.90983 44.1461 5.23078 44.2304 5.55505 44.2654C5.87924 44.3004 10.187 44.3039 15.1278 44.2733C20.0686 44.2428 26.5935 44.2173 29.6275 44.2168C34.4725 44.2159 35.144 44.1999 35.144 44.085C35.144 44.0131 35.1734 43.953 35.2094 43.9515C35.2453 43.95 35.5299 43.7089 35.8417 43.4156C36.9904 42.3354 37.3954 42.1904 39.4612 42.1204C40.3246 42.0912 41.0997 42.0362 41.1837 41.9984C41.3055 41.9434 41.3363 41.8191 41.3363 41.3829C41.3363 41.0823 41.3612 40.7113 41.3919 40.5586C41.4388 40.324 41.4185 40.2735 41.261 40.2322C41.1585 40.2055 41.0747 40.1321 41.0747 40.0692C41.0747 39.8862 40.6625 39.6127 40.292 39.5501C39.9742 39.4965 39.9487 39.4703 39.9239 39.1723C39.8998 38.8827 39.8705 38.8494 39.6194 38.8251C39.3548 38.7995 39.3402 38.8142 39.3141 39.1304L39.2867 39.4626L38.698 39.4884C38.1099 39.5141 38.1093 39.5144 38.1093 39.7718C38.1093 40.0046 38.082 40.0294 37.8259 40.0282C37.67 40.0274 37.4999 39.998 37.4479 39.9627C37.271 39.8426 36.1344 37.8959 35.6028 36.8025C35.012 35.5871 34.8851 35.2976 34.6661 34.6657C34.583 34.4258 34.4825 34.1511 34.4427 34.0552C34.1791 33.4183 33.7216 31.5264 33.5571 30.3921C33.4079 29.3635 33.4066 25.8382 33.555 24.8538C33.8043 23.2003 34.3102 21.3927 34.9462 19.8825C35.2144 19.2455 36.1435 17.3956 36.2092 17.3678C36.2469 17.3518 36.2778 17.2962 36.2778 17.2442C36.2778 17.0096 38.2873 14.1179 38.6911 13.7714C38.7789 13.6961 39.0665 13.383 39.3303 13.0755C40.6235 11.5687 42.2113 9.98041 43.2951 9.10991C43.533 8.91882 43.7908 8.70357 43.8682 8.63162C44.0814 8.43311 44.6561 7.9877 44.8149 7.89769C44.8924 7.85382 44.9754 7.79303 44.9994 7.76251C45.1943 7.51446 48.2287 5.46567 48.9677 5.08305C49.1596 4.98371 49.5685 4.77012 49.8763 4.60842C50.6231 4.21612 51.5845 3.27287 51.7091 2.81019C51.8537 2.27311 51.7426 1.94727 51.244 1.44639C50.7965 0.996879 49.849 0.433288 49.5407 0.433288C49.4494 0.433288 49.3593 0.387063 49.3405 0.330547C49.2717 0.124106 47.6632 0.0420355 46.2752 0.174168ZM-14.3488 0.231207C-14.6833 0.251267 -14.9777 0.297579 -15.003 0.334123C-15.0283 0.370666 -15.5396 0.451865 -16.1392 0.514573C-16.7388 0.577194 -17.2425 0.663016 -17.2585 0.705315C-17.2745 0.747615 -17.3824 0.782153 -17.4983 0.782153C-17.6143 0.782153 -17.7091 0.817562 -17.7091 0.860822C-17.7091 0.904081 -17.9544 0.967662 -18.2542 1.00211C-18.554 1.03656 -18.8219 1.10032 -18.8495 1.14384C-18.8771 1.18727 -19.1027 1.24693 -19.3509 1.27632C-19.5992 1.30571 -19.8023 1.35813 -19.8023 1.39293C-19.8023 1.42764 -20.0378 1.50605 -20.3256 1.5671C-20.6134 1.62815 -20.8489 1.70961 -20.8489 1.74807C-20.8489 1.78662 -21.0255 1.84453 -21.2414 1.87689C-21.4572 1.90925 -21.6338 1.96611 -21.6338 2.00318C-21.6338 2.04025 -21.7516 2.09467 -21.8955 2.12415C-22.0394 2.15354 -22.2749 2.20168 -22.4188 2.23108C-22.5627 2.26056 -22.6804 2.31507 -22.6804 2.35222C-22.6804 2.38946 -22.8178 2.44563 -22.9857 2.47711C-23.1536 2.5086 -23.2909 2.56791 -23.2909 2.60898C-23.2909 2.64998 -23.4872 2.73056 -23.727 2.78813C-23.9747 2.84752 -24.1631 2.94206 -24.1631 3.00678C-24.1631 3.07062 -24.3552 3.17013 -24.5992 3.23267C-24.839 3.29407 -25.0353 3.37448 -25.0353 3.4112C-25.0353 3.44792 -25.1726 3.50374 -25.3405 3.53522C-25.5084 3.56671 -25.6458 3.62575 -25.6458 3.66648C-25.6458 3.70721 -25.8028 3.78754 -25.9946 3.84501C-26.1865 3.90249 -26.3435 3.97837 -26.3435 4.01352C-26.3435 4.04866 -26.4416 4.10213 -26.5615 4.13222C-26.6815 4.16231 -26.7796 4.22179 -26.7796 4.26444C-26.7796 4.307 -26.9758 4.39221 -27.2157 4.4537C-27.4555 4.5151 -27.6518 4.59725 -27.6518 4.63615C-27.6518 4.67505 -27.7118 4.70688 -27.7853 4.70688C-27.8588 4.70688 -27.9401 4.76218 -27.9661 4.82986C-27.992 4.89745 -28.1085 4.97673 -28.2249 5.00595C-28.3415 5.03517 -28.4367 5.09761 -28.4367 5.14462C-28.4367 5.19172 -28.4956 5.23018 -28.5675 5.23018C-28.6395 5.23018 -28.6983 5.2669 -28.6983 5.31173C-28.6983 5.35664 -28.8357 5.44299 -29.0036 5.50369C-29.1715 5.56439 -29.3089 5.64542 -29.3089 5.68379C-29.3089 5.72208 -29.3886 5.75348 -29.486 5.75348C-29.5835 5.75348 -29.6844 5.80877 -29.7104 5.87645C-29.7363 5.94405 -29.8456 6.02149 -29.9532 6.04853C-30.0608 6.07548 -30.2406 6.17718 -30.3528 6.27442C-30.4648 6.37167 -30.6094 6.45121 -30.6741 6.45121C-30.7387 6.45121 -30.7915 6.49142 -30.7915 6.54061C-30.7915 6.58971 -30.8868 6.6662 -31.0032 6.71042C-31.2839 6.81717 -31.5765 7.07315 -31.5765 7.21191C-31.5765 7.27322 -31.6359 7.32337 -31.7085 7.32337C-31.8629 7.32337 -32.15 7.47827 -32.3953 7.69404C-32.4907 7.77803 -32.616 7.84667 -32.6738 7.84667C-32.7316 7.84667 -32.8014 7.90554 -32.8291 7.97749C-32.8566 8.04945 -32.9211 8.10832 -32.9721 8.10832C-33.0232 8.10832 -33.1801 8.22606 -33.3208 8.36997C-33.4615 8.51387 -33.6348 8.63162 -33.706 8.63162C-33.7772 8.63162 -33.8668 8.68473 -33.9052 8.74971C-33.9435 8.81468 -34.0645 8.91481 -34.174 8.97228C-34.2834 9.02976 -34.65 9.34949 -34.9886 9.68275C-35.3272 10.016 -35.634 10.2887 -35.6702 10.2887C-35.7065 10.2887 -35.8182 10.3599 -35.9185 10.4468C-36.0187 10.5337 -36.2037 10.6809 -36.3297 10.7738C-36.7312 11.0701 -37.0401 11.3744 -37.0963 11.5289C-37.1263 11.6114 -37.2456 11.7028 -37.3615 11.7318C-37.4773 11.7609 -37.6229 11.8798 -37.6852 11.9961C-37.7474 12.1123 -37.8465 12.2075 -37.9052 12.2075C-37.964 12.2075 -38.1046 12.308 -38.2176 12.431C-38.3305 12.554 -38.6486 12.8811 -38.9245 13.158C-39.2002 13.4348 -39.4259 13.7004 -39.4259 13.7482C-39.4259 13.796 -39.5143 13.8828 -39.6222 13.9412C-39.7302 13.9994 -39.9362 14.1832 -40.0801 14.3495C-40.224 14.5157 -40.5673 14.8905 -40.8432 15.1823C-41.1191 15.474 -41.3447 15.7513 -41.3447 15.7984C-41.3447 15.9198 -41.9945 16.5683 -42.116 16.5683C-42.1715 16.5683 -42.2169 16.6191 -42.2169 16.6812C-42.2169 16.7433 -42.3723 16.969 -42.5622 17.1826C-42.7521 17.3964 -42.968 17.64 -43.0418 17.7239C-43.1158 17.8078 -43.1763 17.9256 -43.1763 17.9856C-43.1764 18.0852 -43.2907 18.2415 -43.7869 18.8215C-43.8828 18.9335 -43.9612 19.0611 -43.9612 19.105C-43.9612 19.1488 -44.0174 19.1848 -44.0862 19.1848C-44.1549 19.1848 -44.237 19.2664 -44.2686 19.3662C-44.3003 19.466 -44.435 19.6523 -44.568 19.7805C-44.701 19.9085 -44.8374 20.1016 -44.871 20.2096C-44.9048 20.3175 -44.9689 20.4058 -45.0136 20.4058C-45.0584 20.4058 -45.095 20.4643 -45.095 20.5359C-45.095 20.6075 -45.1735 20.715 -45.2694 20.7749C-45.3654 20.8348 -45.4439 20.9273 -45.4439 20.9804C-45.4439 21.0334 -45.5234 21.1686 -45.6207 21.2807C-45.7179 21.3928 -45.8191 21.5704 -45.8453 21.6753C-45.8717 21.7802 -45.9884 21.917 -46.1046 21.9793C-46.2209 22.0415 -46.316 22.1601 -46.316 22.2428C-46.316 22.3254 -46.3749 22.4157 -46.4469 22.4434C-46.5188 22.4709 -46.5777 22.5536 -46.5777 22.6271C-46.5777 22.7006 -46.6121 22.7606 -46.6543 22.7606C-46.6965 22.7606 -46.7798 22.8784 -46.8393 23.0223C-46.8989 23.1662 -46.9822 23.2839 -47.0243 23.2839C-47.0665 23.2839 -47.101 23.3409 -47.101 23.4104C-47.101 23.48 -47.1501 23.5683 -47.2102 23.6066C-47.2702 23.645 -47.3782 23.7942 -47.45 23.9381C-47.5219 24.082 -47.6297 24.2516 -47.6897 24.3149C-47.7496 24.3783 -47.7987 24.4863 -47.7987 24.5548C-47.7987 24.6233 -47.84 24.6794 -47.8905 24.6794C-47.941 24.6794 -48.0233 24.7971 -48.0734 24.9411C-48.1236 25.085 -48.2149 25.2027 -48.2764 25.2027C-48.3378 25.2027 -48.4396 25.3303 -48.5025 25.4862C-48.5655 25.6421 -48.6683 25.801 -48.7311 25.8394C-48.7939 25.8778 -48.8453 25.966 -48.8453 26.0356C-48.8453 26.1051 -48.8846 26.1621 -48.9325 26.1621C-48.9805 26.1621 -49.0197 26.2215 -49.0197 26.2941C-49.0197 26.4611 -49.204 26.7946 -49.3468 26.886C-49.4067 26.9244 -49.4558 27.0084 -49.4558 27.0729C-49.4558 27.1373 -49.511 27.2112 -49.5784 27.237C-49.6459 27.2629 -49.7267 27.4013 -49.7582 27.5444C-49.7896 27.6875 -49.8718 27.8263 -49.9408 27.8528C-50.0098 27.8793 -50.0663 27.961 -50.0663 28.0345C-50.0663 28.108 -50.1056 28.1681 -50.1535 28.1681C-50.2015 28.1681 -50.2408 28.2227 -50.2408 28.2895C-50.2408 28.3564 -50.2996 28.4336 -50.3716 28.4613C-50.4435 28.4888 -50.5024 28.587 -50.5024 28.6793C-50.5024 28.7716 -50.5576 28.8683 -50.625 28.8941C-50.6925 28.92 -50.7741 29.0616 -50.8064 29.2087C-50.8387 29.3559 -50.9013 29.4763 -50.9454 29.4763C-50.9896 29.4763 -51.0257 29.5364 -51.0257 29.6098C-51.0257 29.6834 -51.0822 29.7651 -51.1512 29.7916C-51.2202 29.8181 -51.3024 29.9569 -51.3338 30.1C-51.3653 30.2431 -51.4462 30.3814 -51.5136 30.4073C-51.581 30.4331 -51.6362 30.5226 -51.6362 30.6061C-51.6362 30.6896 -51.7147 30.8484 -51.8107 30.959C-51.9066 31.0696 -51.9851 31.2069 -51.9851 31.2642C-51.9851 31.3215 -52.0636 31.4589 -52.1595 31.5695C-52.2555 31.6801 -52.334 31.8235 -52.334 31.8881C-52.334 31.9527 -52.3898 32.0056 -52.458 32.0056C-52.5263 32.0056 -52.6274 32.1429 -52.6828 32.3108C-52.7382 32.4787 -52.8192 32.6161 -52.8627 32.6161C-52.9064 32.6161 -52.9857 32.79 -53.0393 33.0026C-53.0928 33.2153 -53.1915 33.4102 -53.2586 33.436C-53.3257 33.4617 -53.3806 33.5428 -53.3806 33.6164C-53.3806 33.6898 -53.4167 33.7499 -53.4609 33.7499C-53.505 33.7499 -53.5662 33.8644 -53.597 34.0044C-53.6277 34.1444 -53.729 34.3465 -53.822 34.4538C-53.915 34.561 -53.9911 34.7016 -53.9911 34.7662C-53.9911 34.8309 -54.0253 34.8837 -54.0669 34.8837C-54.1087 34.8837 -54.1913 35.0568 -54.2505 35.2684C-54.3197 35.5152 -54.4175 35.6686 -54.5235 35.6963C-54.6144 35.7201 -54.6888 35.8021 -54.6888 35.8785C-54.6888 35.955 -54.7218 36.0175 -54.7622 36.0175C-54.8026 36.0175 -54.8827 36.1745 -54.9402 36.3664C-54.9976 36.5583 -55.0823 36.7152 -55.1284 36.7152C-55.1744 36.7152 -55.2121 36.7753 -55.2121 36.8488C-55.2121 36.9223 -55.2666 37.0032 -55.3331 37.0288C-55.3997 37.0543 -55.4754 37.1812 -55.5013 37.3108C-55.6081 37.8451 -55.9216 38.0038 -56.8992 38.0184L-57.2344 38.0235L-57.2045 38.8803C-57.1742 39.745 -57.0613 40.0499 -56.803 39.9638C-56.58 39.8895 -56.6831 40.463 -56.9346 40.6963C-57.1548 40.9007 -57.1745 40.9719 -57.1745 41.5675C-57.1745 41.969 -57.1356 42.2403 -57.0723 42.2794C-57.0162 42.314 -56.9432 42.45 -56.9103 42.5814C-56.8773 42.7128 -56.8181 42.8204 -56.7788 42.8204C-56.7394 42.8204 -56.6456 42.882 -56.5701 42.9574C-56.4948 43.0328 -56.4331 43.0525 -56.4331 43.001C-56.4331 42.9459 -56.2364 42.9076 -55.9534 42.9076C-55.6896 42.9076 -55.4737 42.9468 -55.4737 42.9948C-55.4737 43.0428 -55.2971 43.082 -55.0813 43.082C-54.7158 43.082 -54.5505 42.9682 -54.7967 42.8861C-54.8561 42.8664 -54.7562 42.8446 -54.575 42.8378C-54.3565 42.8296 -54.2287 42.8687 -54.1961 42.9537C-54.169 43.0243 -54.0529 43.082 -53.9381 43.082C-53.6966 43.082 -53.6567 42.939 -53.882 42.8813C-53.9659 42.8599 -53.8188 42.863 -53.555 42.8883C-53.2912 42.9135 -53.0464 42.9773 -53.0112 43.03C-52.9671 43.096 -52.9467 43.0918 -52.9458 43.0166C-52.9451 42.9567 -52.8692 42.9076 -52.7773 42.9076C-52.6853 42.9076 -52.5956 42.8639 -52.5777 42.8104C-52.5599 42.757 -52.4684 42.7332 -52.3742 42.7576C-52.2138 42.7991 -52.2153 42.8058 -52.3994 42.865C-52.5073 42.8996 -52.5956 42.9626 -52.5956 43.005C-52.5956 43.1073 -52.2694 43.1045 -52.2322 43.0019C-52.2162 42.9578 -52.0265 42.9039 -51.8107 42.8823C-51.5948 42.8607 -51.3495 42.814 -51.2656 42.7787C-51.1816 42.7434 -51.1129 42.751 -51.1129 42.7955C-51.1129 42.8401 -50.6522 42.8825 -50.0889 42.8896C-49.4771 42.8975 -49.053 42.9388 -49.0351 42.9924C-49.0186 43.0417 -48.9454 43.082 -48.8723 43.082C-48.7993 43.082 -48.7588 43.0315 -48.7824 42.9699C-48.8082 42.903 -48.7592 42.8578 -48.6609 42.8578C-48.5705 42.8578 -48.4964 42.9082 -48.4964 42.9699C-48.4964 43.114 -48.1783 43.1166 -48.1112 42.973C-48.0706 42.8858 -48.0502 42.8858 -48.0095 42.973C-47.9438 43.1138 -47.7389 43.1138 -47.6818 42.973C-47.6483 42.8905 -47.6159 42.8952 -47.5485 42.9923C-47.4386 43.1505 -47.3391 43.0703 -47.4114 42.882C-47.4439 42.7973 -47.5192 42.7653 -47.6068 42.7988C-47.733 42.8473 -47.7347 42.8375 -47.6214 42.7133C-47.5044 42.5851 -47.4867 42.5873 -47.4147 42.7403C-47.3714 42.8323 -47.2831 42.9076 -47.2185 42.9076C-47.1538 42.9076 -47.101 42.9468 -47.101 42.9948C-47.101 43.0428 -47.0421 43.082 -46.9702 43.082C-46.8982 43.082 -46.8393 43.0428 -46.8393 42.9948C-46.8393 42.9468 -46.7608 42.9076 -46.6649 42.9076C-46.569 42.9076 -46.4905 42.9468 -46.4905 42.9948C-46.4905 43.0428 -46.3531 43.082 -46.1852 43.082C-45.9537 43.082 -45.8793 43.0451 -45.8772 42.9294C-45.8745 42.784 -45.8689 42.784 -45.7585 42.9294C-45.6325 43.0955 -45.4439 43.1346 -45.4439 42.9948C-45.4439 42.9468 -45.3261 42.9076 -45.1822 42.9076C-45.0383 42.9076 -44.9206 42.9468 -44.9206 42.9948C-44.9206 43.044 -44.6735 43.082 -44.3537 43.082C-43.8449 43.082 -43.7868 43.0642 -43.7868 42.9076C-43.7868 42.8117 -43.7475 42.7332 -43.6995 42.7332C-43.6516 42.7332 -43.6123 42.7626 -43.6122 42.7986C-43.6122 42.8346 -43.5127 42.8697 -43.3912 42.8767C-43.2116 42.8871 -43.1801 42.8586 -43.2227 42.7241C-43.259 42.6098 -43.233 42.5587 -43.1385 42.5587C-43.0448 42.5587 -43.0018 42.641 -43.0018 42.8204C-43.0018 43.0294 -42.9643 43.082 -42.8158 43.082C-42.7135 43.082 -42.5565 42.9975 -42.4669 42.8943C-42.3773 42.791 -42.3041 42.7517 -42.3041 42.807C-42.3041 42.8663 -42.1605 42.9076 -41.9552 42.9076C-41.7633 42.9076 -41.6064 42.8684 -41.6064 42.8204C-41.6064 42.6598 -41.3572 42.731 -41.3011 42.9076C-41.2386 43.1046 -41.1194 43.1361 -41.0536 42.973C-41.0184 42.8858 -41.0082 42.8858 -41.0027 42.973C-40.9928 43.1306 -40.8164 43.1069 -40.6782 42.9294C-40.565 42.784 -40.5619 42.784 -40.6125 42.9294C-40.6567 43.0564 -40.6128 43.082 -40.3511 43.082C-40.1195 43.082 -40.0365 43.0448 -40.0365 42.941C-40.0365 42.843 -40.0896 42.8139 -40.2109 42.8457C-40.3068 42.8707 -40.3853 42.8557 -40.3853 42.8122C-40.3853 42.7688 -40.3283 42.7332 -40.2586 42.7332C-40.0783 42.7332 -39.6876 42.9218 -39.6876 43.0089C-39.6876 43.0491 -39.6091 43.082 -39.5132 43.082C-39.4172 43.082 -39.3387 43.0428 -39.3387 42.9948C-39.3387 42.8693 -39.0998 42.8872 -39.0476 43.0166C-39.0125 43.1038 -39.0023 43.1038 -38.9968 43.0166C-38.9886 42.8882 -38.7282 42.867 -38.7282 42.9948C-38.7282 43.1203 -38.4893 43.1024 -38.4371 42.973C-38.4019 42.8858 -38.3917 42.8858 -38.3862 42.973C-38.3781 43.1015 -38.1177 43.1227 -38.1177 42.9948C-38.1177 42.8686 -37.7915 42.8875 -37.7394 43.0166C-37.7145 43.0784 -37.6924 43.0553 -37.6885 42.9636C-37.6828 42.8312 -37.6378 42.8124 -37.4427 42.8615C-37.3112 42.8944 -37.1745 42.9673 -37.1387 43.0235C-37.0905 43.0995 -37.0735 43.0977 -37.0724 43.0166C-37.0717 42.9567 -36.9959 42.9076 -36.9039 42.9076C-36.812 42.9076 -36.7139 42.9567 -36.6859 43.0166C-36.6452 43.1038 -36.6248 43.1038 -36.5842 43.0166C-36.5562 42.9567 -36.4581 42.9076 -36.3661 42.9076C-36.2742 42.9076 -36.1983 42.9567 -36.1976 43.0166C-36.1966 43.1018 -36.1815 43.1024 -36.1285 43.019C-36.0305 42.8649 -33.9174 42.822 -33.8663 42.973C-33.8188 43.114 -33.6099 43.114 -33.553 42.973C-33.5178 42.8858 -33.5076 42.8858 -33.5021 42.973C-33.494 43.1015 -33.1464 43.1228 -33.1464 42.9948C-33.1464 42.9468 -33.0875 42.9076 -33.0156 42.9076C-32.9436 42.9076 -32.8841 42.9567 -32.8834 43.0166C-32.8825 43.0905 -32.8523 43.0835 -32.7896 42.9948C-32.7199 42.8964 -32.6861 42.8909 -32.6528 42.973C-32.6282 43.0335 -32.4599 43.082 -32.2742 43.082C-32.0884 43.082 -31.9204 43.0336 -31.8959 42.973C-31.8607 42.8858 -31.8505 42.8858 -31.845 42.973C-31.8404 43.0459 -31.6818 43.082 -31.3657 43.082C-31.0694 43.082 -30.8769 43.0414 -30.8493 42.973C-30.8141 42.8858 -30.8039 42.8858 -30.7984 42.973C-30.7896 43.112 -29.513 43.1276 -29.4669 42.9893C-29.4499 42.9383 -29.3387 42.8841 -29.2198 42.8688C-29.1009 42.8534 -28.9389 42.814 -28.8598 42.7811C-28.7807 42.7482 -28.6929 42.7588 -28.6645 42.8046C-28.6362 42.8504 -28.6771 42.8825 -28.7553 42.8759C-28.8336 42.8694 -28.9149 42.9131 -28.9361 42.973C-28.9613 43.0445 -28.8846 43.082 -28.7129 43.082C-28.569 43.082 -28.4315 43.033 -28.4072 42.973C-28.3721 42.8858 -28.3619 42.8858 -28.3564 42.973C-28.3481 43.1042 -27.6518 43.1257 -27.6518 42.9948C-27.6518 42.9468 -27.5929 42.9076 -27.5209 42.9076C-27.449 42.9076 -27.3901 42.9468 -27.3901 42.9948C-27.3901 43.0492 -26.8814 43.082 -26.0383 43.082C-25.1951 43.082 -24.6864 43.0492 -24.6864 42.9948C-24.6864 42.9468 -24.5523 42.9076 -24.3884 42.9076C-24.2245 42.9076 -24.0675 42.8586 -24.0395 42.7986C-23.9989 42.7114 -23.9785 42.7114 -23.9378 42.7986C-23.9049 42.8692 -23.6897 42.9076 -23.3273 42.9076C-22.9384 42.9076 -22.7672 42.9408 -22.7663 43.0166C-22.7654 43.0905 -22.7352 43.0835 -22.6725 42.9948C-22.6028 42.8964 -22.569 42.8909 -22.5357 42.973C-22.4811 43.1077 -21.6617 43.1219 -21.6174 42.9891C-21.5764 42.8664 -20.0331 42.8691 -19.9922 42.9919C-19.946 43.1306 -19.1918 43.1065 -19.1918 42.9663C-19.1918 42.8874 -19.1087 42.8628 -18.9301 42.889C-18.7862 42.9101 -18.6685 42.9622 -18.6685 43.0047C-18.6685 43.1384 -17.994 43.0941 -17.9414 42.9569C-17.8804 42.798 -17.3609 42.8043 -17.2994 42.9647C-17.2449 43.1066 -15.8776 43.1356 -15.8776 42.9948C-15.8776 42.9468 -15.7798 42.9076 -15.6602 42.9076C-15.5374 42.9076 -15.3956 42.8318 -15.334 42.7332C-15.2741 42.6372 -15.1756 42.5587 -15.1152 42.5587C-15.0479 42.5587 -15.0054 42.4407 -15.0054 42.2535C-15.0054 42.0529 -15.0465 41.9482 -15.1251 41.9482C-15.1973 41.9482 -15.2669 41.8098 -15.3005 41.5994C-15.3548 41.26 -15.3658 41.2505 -15.7042 41.2505C-15.9552 41.2505 -16.052 41.2869 -16.052 41.3813C-16.052 41.573 -16.1985 41.541 -16.2517 41.3377C-16.279 41.2333 -16.3707 41.1633 -16.4799 41.1633C-16.6043 41.1633 -16.6625 41.1077 -16.6625 40.9888C-16.6625 40.8919 -16.7207 40.8144 -16.7933 40.8144C-16.9337 40.8144 -16.9558 40.6455 -16.871 40.2219C-16.8326 40.0295 -16.7548 39.9405 -16.5885 39.8988C-16.4623 39.8672 -16.3298 39.7953 -16.294 39.7391C-16.2458 39.6632 -16.2288 39.6649 -16.2277 39.746C-16.226 39.8877 -15.9925 39.8877 -15.9353 39.746C-15.9001 39.6588 -15.8899 39.6588 -15.8844 39.746C-15.8742 39.9071 -15.3832 39.882 -15.32 39.7171C-15.2909 39.6412 -15.267 39.4449 -15.267 39.281C-15.267 39.0741 -15.227 38.9829 -15.1362 38.9829C-15.0548 38.9829 -15.0054 38.9005 -15.0054 38.7648C-15.0054 38.6432 -15.0559 38.5468 -15.1197 38.5468C-15.1839 38.5468 -15.2831 38.3554 -15.3458 38.1107C-15.4073 37.8709 -15.4898 37.6746 -15.5291 37.6746C-15.5684 37.6746 -15.6271 37.5176 -15.6595 37.3258C-15.692 37.1339 -15.748 36.9769 -15.7841 36.9769C-15.8202 36.9769 -15.9015 36.761 -15.9648 36.4972C-16.0281 36.2334 -16.1066 36.0175 -16.1393 36.0175C-16.1719 36.0175 -16.247 35.8017 -16.3061 35.5378C-16.3651 35.274 -16.4443 35.0581 -16.4821 35.0581C-16.52 35.0581 -16.5754 34.8523 -16.6051 34.6008C-16.6349 34.3492 -16.6969 34.1309 -16.7427 34.1157C-16.7885 34.1003 -16.8731 33.7959 -16.9307 33.4392C-16.9951 33.0395 -17.0766 32.7905 -17.1429 32.7905C-17.2095 32.7905 -17.2728 32.5937 -17.309 32.2732C-17.3412 31.9888 -17.4003 31.7435 -17.4402 31.7281C-17.5668 31.6796 -17.7091 29.5393 -17.7091 27.6833C-17.7091 25.9249 -17.5866 24.2442 -17.4521 24.1568C-17.4146 24.1325 -17.356 23.8869 -17.3221 23.611C-17.2821 23.285 -17.2202 23.1095 -17.1454 23.1095C-17.0735 23.1095 -16.9881 22.897 -16.9176 22.5426C-16.8556 22.2308 -16.7747 21.9757 -16.7377 21.9757C-16.7007 21.9757 -16.6446 21.8383 -16.6131 21.6704C-16.5817 21.5026 -16.5281 21.3652 -16.4941 21.3652C-16.4602 21.3652 -16.3794 21.1706 -16.3146 20.9328C-16.2499 20.6949 -16.1447 20.4803 -16.0809 20.4558C-16.017 20.4314 -15.9648 20.318 -15.9648 20.2038C-15.9648 20.0897 -15.8863 19.9059 -15.7903 19.7953C-15.6944 19.6847 -15.6159 19.5413 -15.6159 19.4767C-15.6159 19.4121 -15.5815 19.3592 -15.5392 19.3592C-15.4971 19.3592 -15.4138 19.2415 -15.3543 19.0976C-15.2947 18.9537 -15.1918 18.8359 -15.1257 18.8359C-15.0595 18.8359 -15.0054 18.779 -15.0054 18.7095C-15.0054 18.6399 -14.9563 18.5516 -14.8962 18.5132C-14.8362 18.4748 -14.7283 18.3257 -14.6565 18.1818C-14.5848 18.0379 -14.4769 17.8887 -14.4169 17.8504C-14.3568 17.812 -14.3077 17.7437 -14.3077 17.6985C-14.3077 17.6534 -14.1899 17.5039 -14.046 17.3663C-13.9021 17.2289 -13.7844 17.081 -13.7844 17.0379C-13.7844 16.9948 -13.5883 16.7832 -13.3487 16.5677C-12.8707 16.1376 -12.6956 15.9639 -12.0528 15.2819C-11.8155 15.0301 -11.5922 14.824 -11.5566 14.824C-11.5211 14.824 -11.3795 14.7062 -11.242 14.5623C-11.1045 14.4184 -10.9592 14.3007 -10.919 14.3007C-10.8789 14.3007 -10.7321 14.2026 -10.5928 14.0827C-10.4533 13.9629 -10.2902 13.8648 -10.2303 13.8647C-10.1703 13.8647 -10.1213 13.8023 -10.1213 13.7262C-10.1213 13.65 -10.0061 13.5443 -9.86531 13.4911C-9.72445 13.438 -9.5645 13.3109 -9.50981 13.2086C-9.45504 13.1063 -9.26604 12.971 -9.08987 12.9077C-8.9136 12.8445 -8.69059 12.7102 -8.5943 12.6092C-8.49802 12.5082 -8.30178 12.3667 -8.15822 12.2949C-8.01466 12.223 -7.86587 12.115 -7.8275 12.055C-7.78912 11.9949 -7.70086 11.9458 -7.63126 11.9458C-7.56175 11.9458 -7.5048 11.9139 -7.5048 11.8749C-7.5048 11.8359 -7.36743 11.75 -7.19954 11.6842C-7.03165 11.6183 -6.89428 11.5171 -6.89428 11.4593C-6.89428 11.4015 -6.80341 11.3314 -6.69229 11.3036C-6.58127 11.2757 -6.39863 11.1733 -6.28647 11.076C-6.1744 10.9788 -6.02979 10.8992 -5.96517 10.8992C-5.90054 10.8992 -5.84769 10.8648 -5.84769 10.8226C-5.84769 10.7804 -5.72018 10.6938 -5.56424 10.6301C-5.40829 10.5663 -5.23307 10.4732 -5.17481 10.4232C-5.11647 10.3732 -5.01617 10.2888 -4.95181 10.2356C-4.88753 10.1825 -4.68989 10.0911 -4.51275 10.0327C-4.33553 9.97413 -4.19058 9.89084 -4.19058 9.8475C-4.19058 9.80424 -4.09386 9.74449 -3.97568 9.71484C-3.8575 9.6851 -3.73706 9.58628 -3.7081 9.49514C-3.67923 9.40392 -3.59803 9.32935 -3.52782 9.32935C-3.45761 9.32935 -3.38017 9.27719 -3.35566 9.21335C-3.33115 9.14959 -3.17538 9.04415 -3.0095 8.97908C-2.84361 8.91393 -2.7079 8.82881 -2.7079 8.78974C-2.7079 8.75075 -2.62819 8.71883 -2.53077 8.71883C-2.43326 8.71883 -2.33235 8.66354 -2.30644 8.59603C-2.28054 8.52844 -2.14719 8.42674 -2.01017 8.36997C-1.87316 8.31319 -1.73981 8.21149 -1.7139 8.1439C-1.688 8.0764 -1.62834 8.0211 -1.58133 8.0211C-1.45757 8.0211 -1.05079 7.6268 -1.05079 7.50687C-1.05079 7.45088 -0.995763 7.38399 -0.928519 7.35817C-0.861275 7.33244 -0.781033 7.17667 -0.750158 7.0121C-0.719283 6.84752 -0.642274 6.71286 -0.579042 6.71286C-0.50831 6.71286 -0.442634 6.557 -0.408533 6.30817C-0.295152 5.48084 -0.375655 4.70688 -0.575119 4.70688C-0.637217 4.70688 -0.713965 4.58914 -0.745537 4.44524C-0.77711 4.30133 -0.829529 4.18359 -0.861973 4.18359C-0.894418 4.18359 -0.977447 4.05599 -1.04643 3.90013C-1.11542 3.74428 -1.30163 3.49432 -1.46018 3.34474C-1.61874 3.19517 -1.74852 3.03312 -1.74852 2.98462C-1.74852 2.93613 -1.86347 2.84892 -2.00389 2.79074C-2.1444 2.73257 -2.28054 2.62965 -2.30644 2.56206C-2.33235 2.49456 -2.42907 2.43926 -2.52143 2.43926C-2.61371 2.43926 -2.71043 2.38405 -2.73625 2.31664C-2.76215 2.24922 -2.90048 2.16837 -3.0436 2.13688C-3.18672 2.10548 -3.32548 2.02324 -3.352 1.95425C-3.37851 1.88526 -3.47985 1.82875 -3.57736 1.82875C-3.67478 1.82875 -3.7545 1.79456 -3.7545 1.75287C-3.7545 1.71109 -3.93111 1.62754 -4.14697 1.5671C-4.36283 1.50666 -4.53944 1.42651 -4.53944 1.389C-4.53944 1.3515 -4.69643 1.29429 -4.88831 1.26184C-5.08019 1.2294 -5.23717 1.17053 -5.23717 1.13102C-5.23717 1.09151 -5.39416 1.03264 -5.58604 1.00019C-5.77792 0.967749 -5.9349 0.905477 -5.9349 0.861694C-5.9349 0.817912 -6.05265 0.782153 -6.19655 0.782153C-6.34046 0.782153 -6.4582 0.749708 -6.4582 0.710024C-6.4582 0.63214 -7.63449 0.431805 -8.08627 0.432677C-8.23811 0.433026 -8.37783 0.386976 -8.39676 0.330285C-8.42196 0.254582 -9.13496 0.223009 -11.0859 0.211061C-12.5461 0.202077 -14.0144 0.211148 -14.3488 0.231207ZM103.724 2.96238C98.3547 3.5258 93.1462 5.66775 87.0634 9.81392C83.7177 12.0944 81.3616 14.0727 77.7063 17.6709C74.7557 20.5754 73.6323 21.7724 71.8657 23.8945C68.0658 28.4589 64.8039 33.2288 61.6179 38.8794L60.5515 40.7708L58.9896 40.8428C58.1306 40.8824 57.3787 40.9302 57.3187 40.9491C57.1932 40.9886 57.165 42.1789 57.2851 42.3683C57.3297 42.4385 57.6181 42.5027 58.0289 42.5337C58.6075 42.5775 58.7235 42.6144 58.8706 42.8014C59.0969 43.0892 59.0922 43.551 58.8608 43.7667C58.6568 43.9565 58.321 44.0414 57.7728 44.0414C57.1567 44.0414 57.1224 44.0766 57.1224 44.7088C57.1224 45.1809 57.1549 45.3028 57.326 45.4739L57.5297 45.6775L61.0109 45.7312C66.4856 45.8157 69.0376 45.8711 70.0741 45.928C70.9296 45.975 71.0546 45.963 71.2291 45.8178C71.3679 45.7022 71.628 45.0509 72.1259 43.5724C72.5117 42.4269 72.8693 41.4112 72.9206 41.3152C73.0087 41.1505 73.074 41.1437 74.0733 41.1942C74.656 41.2237 76.0745 41.2698 77.2258 41.2965C78.3771 41.3232 79.4486 41.3653 79.607 41.3899L79.895 41.4345L79.8352 43.5883C79.7575 46.3886 79.588 46.1463 81.6839 46.2318C82.5418 46.2669 84.6566 46.3233 86.3835 46.3571L89.5233 46.4187L89.7143 46.2112C89.8749 46.0367 90.2291 45.1446 91.3691 42.0438L91.5103 41.6596L94.7734 41.7115C97.5213 41.7551 98.0437 41.744 98.0831 41.6415C98.1089 41.5744 98.0683 41.0372 97.9931 40.4475C97.4746 36.3841 97.6668 32.7815 98.5956 29.1577C99.4128 25.9692 101.261 22.3016 103.402 19.6209C104.289 18.5101 106.072 16.7783 107.102 16.0277C108.382 15.0949 109.484 14.4571 112.243 13.0511C115.028 11.6323 115.311 11.4548 115.655 10.9126C115.986 10.3907 116.093 9.9744 116.091 9.22224C116.088 8.3329 115.941 7.72823 115.513 6.84368C115.038 5.86276 114.527 5.28033 113.612 4.67488C111.811 3.48333 109.682 2.96753 106.356 2.91686C105.301 2.90072 104.116 2.92122 103.724 2.96238ZM-22.1242 23.8545C-22.0656 24.0071 -22.2476 24.7666 -22.3427 24.7666C-22.3769 24.7666 -22.4308 24.8844 -22.4624 25.0283C-22.494 25.1722 -22.5516 25.2899 -22.5904 25.2899C-22.6292 25.2899 -22.6868 25.4273 -22.7183 25.5952L-22.7756 25.9004L-24.6685 25.9017C-26.5432 25.9028 -26.954 25.9358 -26.954 26.0851C-26.954 26.1274 -26.3798 26.1621 -25.678 26.1621H-24.4019L-24.4516 26.4682C-24.4789 26.6366 -24.5626 26.8357 -24.6375 26.9106C-24.7123 26.9854 -24.7736 27.1028 -24.7736 27.1713C-24.7736 27.2398 -24.8082 27.2959 -24.8505 27.2959C-24.8928 27.2959 -24.9718 27.4725 -25.0262 27.6884L-25.125 28.0808H-28.0455C-30.5138 28.0808 -30.966 28.0617 -30.966 27.9566C-30.966 27.7025 -30.759 26.947 -30.6893 26.947C-30.6496 26.947 -30.6171 26.8909 -30.6171 26.8224C-30.6171 26.7539 -30.563 26.6438 -30.4969 26.5777C-30.4308 26.5116 -30.3487 26.3295 -30.3143 26.1731C-30.2799 26.0166 -30.2001 25.8689 -30.1371 25.8446C-30.0739 25.8204 -29.9984 25.7053 -29.9692 25.5889C-29.94 25.4724 -29.8841 25.3771 -29.845 25.3771C-29.8059 25.3771 -29.6049 25.221 -29.3982 25.0302C-29.1915 24.8394 -28.9494 24.6601 -28.8604 24.6319C-28.7713 24.6036 -28.6983 24.5439 -28.6983 24.4991C-28.6983 24.4544 -28.6395 24.4178 -28.5675 24.4178C-28.4956 24.4178 -28.4367 24.3785 -28.4367 24.3305C-28.4367 24.2826 -28.361 24.2433 -28.2685 24.2433C-28.176 24.2433 -28.042 24.1851 -27.9708 24.1138C-27.895 24.038 -27.5848 23.9605 -27.2232 23.9268C-26.8833 23.8952 -26.6052 23.8358 -26.6052 23.7947C-26.6052 23.7536 -25.6085 23.72 -24.3905 23.72C-22.4753 23.72 -22.1688 23.7383 -22.1242 23.8545ZM-26.1691 28.4733C-26.1691 28.5932 -26.2052 28.6914 -26.2494 28.6914C-26.2935 28.6914 -26.3555 28.8091 -26.3871 28.953C-26.4187 29.0969 -26.4776 29.2147 -26.5179 29.2147C-26.5583 29.2147 -26.6177 29.335 -26.6501 29.4822C-26.6823 29.6294 -26.764 29.7709 -26.8314 29.7968C-26.8988 29.8226 -26.954 29.8997 -26.954 29.968C-26.954 30.0364 -27.0062 30.1123 -27.07 30.1368C-27.1338 30.1613 -27.2392 30.3171 -27.3043 30.4829C-27.3694 30.6488 -27.4754 30.7845 -27.5399 30.7845C-27.6045 30.7845 -27.6832 30.8521 -27.7148 30.9346C-27.8005 31.1578 -28.629 31.8997 -29.0083 32.0928C-29.1496 32.1647 -29.3172 32.2727 -29.3805 32.3326C-29.4439 32.3926 -29.5911 32.4417 -29.7075 32.4417C-29.8241 32.4417 -29.9194 32.4781 -29.9194 32.5227C-29.9194 32.6587 -30.8712 32.8107 -31.5007 32.7751C-32.1825 32.7365 -32.4486 32.5463 -32.4486 32.0974C-32.4486 31.8162 -32.2235 31.4823 -32.034 31.4823C-31.9712 31.4823 -31.8973 31.4234 -31.8697 31.3514C-31.8421 31.2795 -31.7809 31.2206 -31.7337 31.2206C-31.6276 31.2206 -31.1404 30.7681 -31.1404 30.6696C-31.1404 30.63 -31.0843 30.5416 -31.0159 30.4731C-30.8539 30.3111 -30.7574 29.5176 -30.8139 28.8129L-30.8587 28.2553H-28.5139H-26.1691V28.4733ZM-26.6404 30.9601C-26.6356 31.0315 -26.6257 31.237 -26.6184 31.4169C-26.6017 31.8288 -26.4685 31.8417 -26.3929 31.4387C-26.3614 31.2708 -26.3027 31.1334 -26.2625 31.1334C-26.2223 31.1334 -26.1689 31.0549 -26.1438 30.959C-26.1165 30.8546 -26.0248 30.7845 -25.9156 30.7845C-25.7523 30.7845 -25.7323 30.8374 -25.7261 31.286C-25.7224 31.5619 -25.6994 31.7385 -25.6753 31.6785C-25.651 31.6186 -25.5764 31.5695 -25.5094 31.5695C-25.4423 31.5695 -25.3629 31.4714 -25.3328 31.3514C-25.3027 31.2315 -25.2475 31.1334 -25.2104 31.1334C-25.1732 31.1334 -25.1223 31.0549 -25.0972 30.959C-25.0514 30.7837 -24.7736 30.7088 -24.7736 30.8718C-24.7736 30.9197 -24.8078 30.959 -24.8495 30.959C-24.8913 30.959 -24.9748 31.1356 -25.0353 31.3514C-25.0957 31.5673 -25.1749 31.7439 -25.2114 31.7439C-25.2477 31.7439 -25.3033 31.8813 -25.3348 32.0492C-25.3871 32.3281 -25.4181 32.3544 -25.6933 32.3544H-25.9946L-26.0039 31.8529C-26.0124 31.3986 -26.0221 31.374 -26.1079 31.5913C-26.1601 31.7232 -26.2313 31.8311 -26.2662 31.8311C-26.3011 31.8311 -26.3555 31.9489 -26.3871 32.0928C-26.435 32.3107 -26.4872 32.3544 -26.6993 32.3544H-26.954V31.5631C-26.954 30.8567 -26.9376 30.7749 -26.8016 30.8011C-26.7177 30.8172 -26.6452 30.8889 -26.6404 30.9601ZM-23.4533 31.039C-23.2849 31.2198 -23.2852 31.2206 -23.5083 31.2206C-23.6316 31.2206 -23.7551 31.1618 -23.7827 31.0898C-23.8492 30.9166 -24.0333 30.9242 -24.2494 31.1092C-24.3797 31.2208 -24.4248 31.3665 -24.4248 31.6761V32.0928H-24.1195C-23.9063 32.0928 -23.8142 32.0534 -23.8142 31.962C-23.8142 31.8893 -23.7367 31.8311 -23.6398 31.8311C-23.4054 31.8311 -23.4202 31.9525 -23.6873 32.2197C-23.9725 32.5048 -24.2698 32.5015 -24.5614 32.2098C-24.7575 32.0138 -24.7869 31.922 -24.7522 31.6142C-24.7284 31.403 -24.6237 31.1494 -24.5026 31.0094C-24.324 30.8031 -24.2455 30.7748 -23.9582 30.813C-23.7735 30.8374 -23.5463 30.9392 -23.4533 31.039ZM-21.8242 30.9139C-21.7995 30.9387 -21.8652 30.959 -21.9703 30.959C-22.113 30.959 -22.1747 31.0254 -22.2138 31.2206C-22.2426 31.3645 -22.3005 31.4823 -22.3425 31.4823C-22.3844 31.4823 -22.4188 31.6164 -22.4188 31.7804C-22.4188 32.1688 -22.4942 32.3544 -22.6522 32.3544C-22.7582 32.3544 -22.7703 32.2335 -22.7238 31.6349C-22.693 31.2391 -22.7001 30.9601 -22.7396 31.0147C-22.7922 31.0877 -22.8397 31.0834 -22.9183 30.9987C-23.0044 30.9059 -22.9875 30.8764 -22.831 30.8476C-22.5963 30.8043 -21.8872 30.851 -21.8242 30.9139ZM20.8141 32.4155C21.1554 32.54 21.1821 32.5736 21.2066 32.9097C21.2281 33.2029 21.2682 33.2753 21.4218 33.2971C21.5468 33.3149 21.6226 33.2707 21.6458 33.1662C21.6652 33.0796 21.7114 33.2517 21.7485 33.549C21.7856 33.8463 21.7922 34.1278 21.7633 34.1746C21.7344 34.2215 21.5836 34.2847 21.4282 34.3151C21.2728 34.3457 21.0672 34.4026 20.9713 34.4419C20.8754 34.481 20.6871 34.5573 20.5529 34.6112C20.4188 34.6651 20.1833 34.7067 20.0296 34.7033C19.7653 34.6978 19.7608 34.6924 19.9465 34.6029C20.1676 34.4962 20.2117 34.1553 20.0282 33.9718C19.8632 33.8068 19.2156 33.4882 19.0451 33.4882C18.9325 33.4882 18.9109 33.5432 18.9489 33.7329C18.9897 33.9368 18.9394 34.0326 18.6475 34.3074C18.2886 34.6454 18.2419 34.8768 18.595 34.5674C19.0693 34.1518 19.0918 34.1471 18.9881 34.4849C18.9359 34.655 18.8211 34.8717 18.733 34.9662C18.5232 35.1914 18.5305 35.2165 18.7909 35.1667C18.9349 35.1392 19.0089 35.0671 19.0089 34.9545C19.0089 34.8608 19.0644 34.7285 19.1323 34.6607C19.236 34.557 19.291 34.5558 19.479 34.6534L19.7025 34.7693L19.5083 34.8637C19.4016 34.9156 19.2553 34.9776 19.1834 35.0013C19.1114 35.025 19.1899 35.0458 19.3578 35.0474C19.5257 35.0491 19.8201 34.9939 20.0119 34.9248C20.4244 34.7762 20.4916 34.7696 20.4916 34.8776C20.4916 34.9223 20.4033 34.9758 20.2954 34.9966C20.1535 35.024 20.1776 35.0376 20.3826 35.0463C20.6027 35.0555 20.6661 35.0227 20.6661 34.8997C20.6661 34.7845 20.7937 34.7009 21.1316 34.5944C21.3877 34.5136 21.6228 34.4476 21.6542 34.4476C21.7727 34.4476 21.4148 35.2001 21.1741 35.4572C20.8994 35.7506 20.1898 36.0175 19.6843 36.0175C19.1553 36.0175 18.2839 35.7543 18.034 35.519C17.75 35.2517 17.5762 34.5962 17.6523 34.0795C17.7888 33.1526 18.0496 32.5927 18.0496 33.2266C18.0496 33.401 18.0932 33.4882 18.1804 33.4882C18.2523 33.4882 18.3112 33.449 18.3112 33.401C18.3112 33.3531 18.4015 33.3138 18.5117 33.3138C18.6896 33.3138 18.7082 33.2793 18.6767 33.0086C18.657 32.8407 18.606 32.7033 18.5634 32.7033C18.5206 32.7033 18.4856 32.7413 18.4856 32.7878C18.4856 32.8342 18.4268 32.8496 18.3548 32.8221C18.1719 32.7519 18.1919 32.6395 18.4078 32.5239C18.5407 32.4527 18.618 32.4519 18.6869 32.5208C18.8373 32.6712 19.0089 32.6321 19.0089 32.4474C19.0089 32.3308 19.0829 32.267 19.2488 32.2408C19.6256 32.1811 20.4128 32.269 20.8141 32.4155ZM19.6751 32.398C19.6475 32.47 19.663 32.5289 19.7094 32.5289C19.7559 32.5289 19.7939 32.47 19.7939 32.398C19.7939 32.3261 19.7785 32.2672 19.7596 32.2672C19.7408 32.2672 19.7028 32.3261 19.6751 32.398ZM19.103 32.4925C19.1072 32.5941 19.1279 32.6148 19.1557 32.5453C19.1809 32.4823 19.1778 32.407 19.1488 32.3781C19.1199 32.3491 19.0993 32.4006 19.103 32.4925ZM19.2706 32.4635C19.2706 32.5314 19.3306 32.587 19.4039 32.587C19.5547 32.587 19.5323 32.4272 19.3742 32.3744C19.3172 32.3554 19.2706 32.3955 19.2706 32.4635ZM19.9683 32.6109C19.9683 32.8138 19.8269 32.9237 19.7646 32.7692C19.7403 32.709 19.7173 32.8069 19.7136 32.9868C19.7074 33.2787 19.73 33.3138 19.9231 33.3138C20.1261 33.3138 20.139 33.2865 20.1298 32.8777C20.1244 32.6379 20.0858 32.4417 20.0441 32.4417C20.0024 32.4417 19.9683 32.5178 19.9683 32.6109ZM18.7473 32.7731C18.7473 32.8114 18.7827 32.8802 18.8261 32.9257C18.8694 32.9712 18.9236 33.0871 18.9468 33.183C18.9785 33.3149 18.9912 33.2988 18.9988 33.1176C19.0044 32.9857 19.0482 32.8777 19.0962 32.8777C19.1441 32.8777 19.1834 32.8385 19.1834 32.7905C19.1834 32.7425 19.0853 32.7033 18.9653 32.7033C18.8454 32.7033 18.7473 32.7347 18.7473 32.7731ZM19.2706 33.0086C19.2706 33.2316 19.3086 33.3138 19.4116 33.3138C19.5152 33.3138 19.5387 33.2618 19.5 33.1176C19.4711 33.0096 19.4469 32.8723 19.4462 32.8123C19.4455 32.7524 19.4058 32.7033 19.3578 32.7033C19.3098 32.7033 19.2706 32.8407 19.2706 33.0086ZM20.23 33.0086C20.23 33.1764 20.2692 33.3138 20.3172 33.3138C20.3652 33.3138 20.4044 33.2353 20.4044 33.1394C20.4044 33.0425 20.4626 32.9649 20.5352 32.9649C20.6072 32.9649 20.6661 32.9061 20.6661 32.8341C20.6661 32.7528 20.5837 32.7033 20.448 32.7033C20.257 32.7033 20.23 32.7411 20.23 33.0086ZM20.7533 33.0086C20.7533 33.2162 20.7935 33.3138 20.8789 33.3138C21.071 33.3138 21.1082 33.1874 20.9907 32.9342C20.8437 32.6177 20.7533 32.6459 20.7533 33.0086ZM79.2047 33.8894C79.5554 34.0142 79.8946 34.166 79.9585 34.2269C80.0528 34.3166 80.0628 34.7753 80.0113 36.6601L79.9479 38.9829H79.1189H78.2898L78.3481 37.0423C78.4056 35.1294 78.4892 33.6627 78.5408 33.6627C78.5554 33.6627 78.8541 33.7647 79.2047 33.8894ZM19.445 34.0988C19.445 34.1467 19.4081 34.186 19.363 34.186C19.3178 34.186 19.2566 34.1467 19.227 34.0988C19.1973 34.0508 19.2343 34.0115 19.3091 34.0115C19.3838 34.0115 19.445 34.0508 19.445 34.0988ZM20.843 34.7931C20.7725 34.8377 20.7484 34.9058 20.7896 34.9444C20.8307 34.983 20.882 34.9653 20.9035 34.905C20.925 34.8447 20.9785 34.8176 21.0223 34.8447C21.0662 34.8718 21.1021 34.8524 21.1021 34.8016C21.1021 34.6886 21.0129 34.6856 20.843 34.7931ZM82.1381 36.3243C82.1536 36.7552 82.1399 37.5493 82.1077 38.0889L82.0491 39.0701H81.2268H80.4046L80.4545 37.3912C80.4819 36.4678 80.5238 35.5511 80.5474 35.3542L80.5905 34.996L81.3503 35.2684L82.1099 35.5408L82.1381 36.3243ZM21.7781 35.9904C21.6942 36.0124 21.6254 36.0667 21.6254 36.1111C21.6254 36.2195 21.8628 36.2145 21.9307 36.1047C21.9603 36.0568 22.0215 36.0175 22.0667 36.0175C22.1118 36.0175 22.1487 36.0568 22.1487 36.1047C22.1487 36.1527 22.0899 36.192 22.0179 36.192C21.946 36.192 21.8871 36.2312 21.8871 36.2792C21.8871 36.3271 21.9656 36.3664 22.0615 36.3664C22.1575 36.3664 22.2359 36.3366 22.2359 36.3002C22.2359 36.2187 22.588 35.9916 22.6375 36.0411C22.6571 36.0607 22.5996 36.1615 22.5097 36.2652C22.3147 36.49 22.0481 36.5059 21.7499 36.3106C21.545 36.1763 21.5236 36.1776 21.3993 36.3324C21.2734 36.4892 21.2714 36.488 21.359 36.3067C21.4805 36.0551 21.4771 36.0371 21.2984 35.9904C21.2145 35.9685 21.3224 35.9505 21.5382 35.9505C21.7541 35.9505 21.862 35.9685 21.7781 35.9904ZM23.3392 36.1453C23.2504 36.2125 23.2037 36.3094 23.2354 36.3605C23.2669 36.4117 23.2512 36.4536 23.2005 36.4536C23.0513 36.4536 23.0946 36.2085 23.2607 36.1117C23.4815 35.9832 23.5274 36.0028 23.3392 36.1453ZM16.1298 36.3644C16.205 36.5051 16.1976 36.5275 16.0892 36.486C16.001 36.452 15.9564 36.4869 15.9564 36.5897C15.9564 36.6747 15.9348 36.7227 15.9085 36.6965C15.8603 36.6482 15.9487 36.192 16.0064 36.192C16.0234 36.192 16.079 36.2696 16.1298 36.3644ZM16.3864 36.519C16.3809 36.7316 16.3717 36.739 16.3052 36.5844C16.2028 36.3462 16.2028 36.2792 16.3052 36.2792C16.3532 36.2792 16.3897 36.3871 16.3864 36.519ZM16.6809 36.4477C16.645 36.5849 16.6717 36.6071 16.8249 36.5671C16.9379 36.5375 16.9946 36.4703 16.967 36.3986C16.9418 36.3329 16.9593 36.2792 17.0057 36.2792C17.1027 36.2792 17.1132 36.3792 17.0372 36.5773C17.0058 36.6591 16.8817 36.7152 16.732 36.7152C16.4528 36.7152 16.439 36.6926 16.5699 36.4478C16.6856 36.2318 16.7374 36.2317 16.6809 36.4477ZM18.0219 36.47C17.9941 36.5395 17.9734 36.5188 17.9692 36.4172C17.9655 36.3253 17.9861 36.2738 18.015 36.3028C18.044 36.3318 18.0471 36.407 18.0219 36.47ZM18.3112 36.3592C18.3112 36.5125 18.2048 36.7152 18.1244 36.7152C18.0769 36.7152 18.0794 36.648 18.1307 36.5522C18.1786 36.4627 18.193 36.3646 18.1628 36.3342C18.1325 36.3039 18.1535 36.2792 18.2094 36.2792C18.2654 36.2792 18.3112 36.3152 18.3112 36.3592ZM19.0002 36.519L18.9916 36.7589L18.9249 36.5408L18.8581 36.3228L18.7647 36.5408C18.667 36.7685 18.6207 36.6577 18.713 36.4171C18.8031 36.1824 19.0098 36.2557 19.0002 36.519ZM17.5263 36.5844C17.5263 36.6564 17.5108 36.7152 17.492 36.7152C17.4732 36.7152 17.4351 36.6564 17.4075 36.5844C17.3799 36.5125 17.3954 36.4536 17.4418 36.4536C17.4882 36.4536 17.5263 36.5125 17.5263 36.5844ZM70.3615 37.0423C70.3341 37.1791 70.2269 37.192 69.3304 37.1662C68.1298 37.1319 67.8257 37.2148 67.8661 37.5656L67.8937 37.8055L68.9621 37.83C69.8326 37.8499 70.0305 37.8782 70.0305 37.9826C70.0305 38.0885 69.841 38.1107 68.9403 38.1107H67.85V38.5032V38.8957H67.2021H66.5542L66.5254 38.0889C66.5095 37.6452 66.5348 37.2287 66.5816 37.1634C66.7437 36.9369 67.03 36.9007 68.7068 36.8952C70.267 36.8901 70.3899 36.901 70.3615 37.0423ZM73.868 37.0713C73.868 37.2411 73.824 37.2518 73.192 37.2364C72.1981 37.2119 72.1611 37.2183 71.8687 37.4643C71.5294 37.7498 71.5134 38.0858 71.8252 38.379C72.0264 38.5682 72.1416 38.5935 72.9202 38.6205C73.6401 38.6454 73.7857 38.6734 73.7638 38.7825C73.7413 38.8936 73.5395 38.9122 72.4814 38.9008C71.1074 38.8859 70.7913 38.8091 70.4812 38.4147C70.1007 37.9311 70.2963 37.347 70.936 37.0566C71.234 36.9213 71.5139 36.8932 72.5815 36.8916C73.8274 36.8898 73.868 36.8954 73.868 37.0713ZM77.313 37.0641C77.313 37.1711 77.1359 37.1994 76.3402 37.2195C75.6144 37.2378 75.3404 37.2766 75.2612 37.3722C75.0525 37.6235 75.3121 37.7618 75.9936 37.7624C77.0862 37.7632 77.5337 38.0026 77.4045 38.517C77.3065 38.9078 76.8854 39.0017 75.3797 38.9686C74.1769 38.9422 74.0436 38.924 74.043 38.7866C74.0425 38.6501 74.1476 38.634 75.0348 38.634C75.8104 38.634 76.0507 38.6054 76.1356 38.5032C76.3502 38.2445 76.0906 38.1111 75.3618 38.1058C74.5607 38.0999 74.1269 37.9658 73.9849 37.6801C73.8476 37.4039 73.9666 37.1764 74.3327 37.0157C74.7436 36.8353 77.313 36.877 77.313 37.0641ZM83.9069 38.5032C83.9965 38.791 84.0703 39.0559 84.071 39.0919C84.0732 39.2068 83.8359 39.162 83.7234 39.0265C83.6637 38.9545 83.5453 38.8957 83.4605 38.8957C83.3755 38.8957 83.2834 38.9545 83.2557 39.0265C83.2014 39.1682 82.9385 39.2091 82.9385 39.0758C82.9385 39.031 83.0426 38.7544 83.1698 38.461C83.478 37.7502 83.6762 37.7616 83.9069 38.5032ZM85.0804 38.0613C85.3216 38.2393 85.1322 38.4366 84.8746 38.2757C84.6507 38.1359 84.4211 38.2952 84.4211 38.5904C84.4211 38.8856 84.6507 39.0449 84.8746 38.9051C85.1503 38.7329 85.2785 38.9314 85.0066 39.1096C84.5869 39.3845 84.1595 39.1132 84.1595 38.5719C84.1595 38.0316 84.6624 37.7527 85.0804 38.0613ZM86.1696 38.0966C86.2891 38.1933 86.3414 38.2994 86.3015 38.3639C86.251 38.4455 86.199 38.438 86.0822 38.3323C85.888 38.1567 85.6564 38.2418 85.5881 38.5139C85.5089 38.8294 85.7016 39.0075 86.0509 38.942C86.2099 38.9121 86.3399 38.9209 86.3399 38.9615C86.3399 39.1174 86.1189 39.2445 85.8477 39.2445C85.3128 39.2445 85.0993 38.5584 85.5074 38.1504C85.7633 37.8944 85.9057 37.8829 86.1696 38.0966ZM-42.2708 38.1589C-42.241 38.2365 -42.2557 38.2714 -42.305 38.2409C-42.3525 38.2116 -42.3913 38.1507 -42.3913 38.1056C-42.3913 37.9801 -42.3288 38.0078 -42.2708 38.1589ZM87.1173 38.0787C87.4719 38.1496 87.4164 38.3378 87.0521 38.3004C86.8469 38.2793 86.776 38.3073 86.776 38.4094C86.776 38.5039 86.8576 38.5468 87.0376 38.5468C87.2179 38.5468 87.2993 38.5896 87.2993 38.6845C87.2993 38.7909 87.2421 38.8097 87.0487 38.7673C86.8715 38.7284 86.7838 38.7493 86.7495 38.8391C86.6812 39.017 86.7608 39.0701 87.0958 39.0701C87.306 39.0701 87.3865 39.1093 87.3865 39.2118C87.3865 39.3241 87.3297 39.3422 87.1139 39.299C86.964 39.269 86.7506 39.2445 86.6397 39.2445C86.419 39.2445 86.4071 39.1818 86.4865 38.4378C86.5341 37.991 86.5718 37.9696 87.1173 38.0787ZM87.9098 38.5904C87.9098 39.0439 87.9217 39.0701 88.1278 39.0701C88.2635 39.0701 88.3459 39.1195 88.3459 39.2009C88.3459 39.2982 88.2434 39.3317 87.9472 39.3317H87.5486L87.5676 38.7866C87.589 38.1703 87.6081 38.1107 87.7841 38.1107C87.8783 38.1107 87.9098 38.2309 87.9098 38.5904ZM89.1526 38.1967C89.3103 38.1975 89.3925 38.2441 89.3925 38.3327C89.3925 38.4395 89.3291 38.4556 89.0872 38.4102C88.8409 38.364 88.782 38.3801 88.782 38.4935C88.782 38.5966 88.8652 38.634 89.0944 38.634C89.3068 38.634 89.3947 38.669 89.3687 38.743C89.3475 38.8031 89.2072 38.8463 89.0561 38.8392C88.8405 38.8291 88.782 38.8616 88.782 38.9919C88.782 39.1228 88.8456 39.1573 89.0872 39.1573C89.3004 39.1573 89.3925 39.1967 89.3925 39.2881C89.3925 39.4287 89.1602 39.4553 88.7136 39.366C88.4793 39.3192 88.4517 39.2817 88.4722 39.039C88.485 38.8882 88.501 38.6131 88.5079 38.4276C88.5191 38.1227 88.5391 38.0954 88.7165 38.143C88.8244 38.1718 89.0207 38.1961 89.1526 38.1967ZM90.5068 38.3337C90.7344 38.4931 90.7532 38.6562 90.5657 38.8438C90.4632 38.9462 90.4528 39.0199 90.5221 39.1495C90.6568 39.4012 90.634 39.4952 90.4497 39.447C90.3596 39.4235 90.2427 39.3094 90.1899 39.1935C90.0651 38.9196 89.9158 38.9236 89.9158 39.2009C89.9158 39.3653 89.87 39.419 89.7299 39.419C89.5637 39.419 89.5498 39.3844 89.5981 39.0919C89.6279 38.9121 89.6526 38.6373 89.6532 38.4814C89.654 38.2118 89.6702 38.1979 89.9835 38.1979C90.1648 38.1979 90.4002 38.2591 90.5068 38.3337ZM-40.1237 38.4689C-40.1237 38.5117 -40.1826 38.5468 -40.2545 38.5468C-40.3265 38.5468 -40.3853 38.4891 -40.3853 38.4187C-40.3853 38.3407 -40.3342 38.3103 -40.2545 38.3408C-40.1826 38.3684 -40.1237 38.4261 -40.1237 38.4689ZM91.7994 38.9175C91.9919 39.4893 91.9926 39.5062 91.8288 39.5062C91.736 39.5062 91.6601 39.4695 91.6601 39.4248C91.6601 39.266 91.3018 39.226 91.1455 39.3675C91.0003 39.4988 90.7879 39.5559 90.7879 39.4635C90.7879 39.44 90.891 39.1632 91.017 38.8484C91.2047 38.3797 91.2784 38.2807 91.4237 38.3023C91.5574 38.3222 91.6501 38.4742 91.7994 38.9175ZM92.7939 38.416C92.7939 38.4886 92.7164 38.5468 92.6195 38.5468C92.4659 38.5468 92.445 38.605 92.445 39.0328C92.445 39.4439 92.4221 39.5145 92.2964 39.4903C92.175 39.4669 92.1522 39.3778 92.172 39.0042C92.1939 38.5917 92.1786 38.5468 92.0154 38.5468C91.9128 38.5468 91.8345 38.4902 91.8345 38.416C91.8345 38.3155 91.946 38.2851 92.3142 38.2851C92.6824 38.2851 92.7939 38.3155 92.7939 38.416ZM93.8112 38.5095C93.9957 38.6941 94.0268 38.7889 93.9857 39.0422C93.899 39.5763 93.4511 39.7488 93.0237 39.4126C92.7233 39.1763 92.7166 38.7906 93.008 38.4993C93.2824 38.2248 93.5296 38.2279 93.8112 38.5095ZM-46.1416 38.4502C-46.1416 38.4931 -46.2037 38.5519 -46.2796 38.5811C-46.4745 38.6559 -46.4905 38.65 -46.4905 38.5032C-46.4905 38.4305 -46.4129 38.3724 -46.316 38.3724C-46.2201 38.3724 -46.1416 38.4074 -46.1416 38.4502ZM83.4275 38.5103C83.3527 38.7053 83.3586 38.7212 83.5054 38.7212C83.578 38.7212 83.6362 38.6437 83.6362 38.5468C83.6362 38.3389 83.5022 38.3154 83.4275 38.5103ZM95.0673 38.4626C95.2729 38.5727 95.2903 38.9438 95.0948 39.0532C94.9657 39.1255 94.9665 39.1516 95.1049 39.3628C95.251 39.5856 95.2502 39.5934 95.0816 39.5934C94.9856 39.5934 94.8429 39.4953 94.7643 39.3753C94.5804 39.0947 94.451 39.0973 94.451 39.3817C94.451 39.5386 94.4102 39.5977 94.3156 39.5779C94.2411 39.5624 94.1822 39.5204 94.1847 39.4844C94.1873 39.4483 94.1894 39.1835 94.1894 38.8957V38.3724H94.544C94.739 38.3724 94.9745 38.413 95.0673 38.4626ZM89.9158 38.6401C89.9158 38.7771 89.9628 38.8138 90.1111 38.7927C90.401 38.7513 90.4265 38.4596 90.1402 38.4596C89.9714 38.4596 89.9158 38.5043 89.9158 38.6401ZM-46.9502 38.5995C-46.9791 38.6284 -47.0544 38.6316 -47.1173 38.6064C-47.1869 38.5785 -47.1662 38.5579 -47.0646 38.5537C-46.9727 38.5499 -46.9212 38.5705 -46.9502 38.5995ZM93.1368 38.7322C93.0057 38.9772 93.1611 39.3317 93.3994 39.3317C93.6097 39.3317 93.7745 39.0546 93.6939 38.8365C93.5723 38.5075 93.2859 38.4538 93.1368 38.7322ZM94.4777 38.6903C94.411 38.8641 94.5612 39.0021 94.7417 38.9328C94.9438 38.8553 94.9236 38.6639 94.7073 38.6073C94.5947 38.5779 94.5089 38.6089 94.4777 38.6903ZM-49.1942 38.7212C-49.1942 38.7692 -49.2334 38.8084 -49.2814 38.8084C-49.3294 38.8084 -49.3686 38.7692 -49.3686 38.7212C-49.3686 38.6733 -49.3294 38.634 -49.2814 38.634C-49.2334 38.634 -49.1942 38.6733 -49.1942 38.7212ZM91.277 38.8592C91.2021 39.0541 91.208 39.0701 91.3548 39.0701C91.4275 39.0701 91.4857 38.9926 91.4857 38.8957C91.4857 38.6877 91.3517 38.6643 91.277 38.8592ZM-50.0028 38.8611C-50.0317 38.8901 -50.107 38.8932 -50.1699 38.868C-50.2395 38.8402 -50.2188 38.8195 -50.1172 38.8153C-50.0253 38.8116 -49.9738 38.8322 -50.0028 38.8611ZM-29.0708 38.8611C-29.0998 38.8901 -29.1751 38.8932 -29.238 38.868C-29.3076 38.8402 -29.2869 38.8195 -29.1853 38.8153C-29.0934 38.8116 -29.0419 38.8322 -29.0708 38.8611ZM-53.7294 39.0265C-53.7294 39.0984 -53.7687 39.1573 -53.8166 39.1573C-53.8646 39.1573 -53.9038 39.0984 -53.9038 39.0265C-53.9038 38.9545 -53.8646 38.8957 -53.8166 38.8957C-53.7687 38.8957 -53.7294 38.9545 -53.7294 39.0265ZM-46.078 38.9483C-46.107 38.9773 -46.1822 38.9804 -46.2451 38.9552C-46.3147 38.9274 -46.2941 38.9067 -46.1924 38.9025C-46.1005 38.8988 -46.0491 38.9194 -46.078 38.9483ZM-43.0018 39.0265C-43.0018 39.0991 -43.0794 39.1573 -43.1762 39.1573C-43.3693 39.1573 -43.4126 39.0224 -43.2417 38.9534C-43.0519 38.8768 -43.0018 38.8921 -43.0018 39.0265ZM-38.0305 39.0265C-38.0305 39.0991 -38.108 39.1573 -38.2049 39.1573C-38.4197 39.1573 -38.4357 39.0103 -38.2267 38.9557C-38.1428 38.9339 -38.0642 38.9114 -38.0523 38.9058C-38.0403 38.9002 -38.0305 38.9545 -38.0305 39.0265ZM-35.1524 39.0265C-35.1524 39.0991 -35.2299 39.1573 -35.3268 39.1573C-35.5005 39.1573 -35.5536 39.0643 -35.443 38.9538C-35.3368 38.8476 -35.1524 38.8937 -35.1524 39.0265ZM-23.4156 39.0327C-23.4909 39.1081 -23.5526 39.2062 -23.5526 39.2507C-23.5526 39.2953 -23.6115 39.3317 -23.6834 39.3317C-24.0017 39.3317 -23.6941 38.9356 -23.3502 38.9025C-23.3107 38.8988 -23.3401 38.9573 -23.4156 39.0327ZM-22.7559 39.2225C-22.8037 39.3118 -22.816 39.4264 -22.7833 39.4773C-22.7486 39.5315 -22.1465 39.5963 -21.3286 39.6338C-20.5611 39.6689 -19.9135 39.7273 -19.8895 39.7637C-19.8655 39.8 -19.7006 39.8771 -19.523 39.935C-19.3226 40.0003 -19.1776 40.1127 -19.1406 40.2311C-19.1079 40.336 -19.0507 40.4417 -19.0136 40.4657C-18.9765 40.4899 -18.9181 40.6591 -18.8838 40.8418C-18.829 41.1341 -18.8438 41.1798 -19.0066 41.2224C-19.1085 41.249 -19.1918 41.3189 -19.1918 41.3775C-19.1918 41.4926 -19.5533 41.6866 -19.7679 41.6866C-19.8502 41.6866 -19.8752 41.6456 -19.8343 41.5776C-19.7837 41.4934 -19.7975 41.4915 -19.8946 41.5689C-19.9747 41.6328 -20.4183 41.6684 -21.1181 41.667L-22.216 41.6648L-22.1862 41.4358C-22.1698 41.3099 -22.1824 41.2651 -22.2143 41.3361C-22.3126 41.5551 -22.4852 41.6866 -22.6742 41.6866C-22.7736 41.6866 -22.8502 41.6572 -22.8446 41.6212C-22.8388 41.5851 -22.8388 41.487 -22.8446 41.4031C-22.8607 41.1645 -23.0293 41.2242 -23.0293 41.4685C-23.0293 41.6042 -23.0787 41.6866 -23.1601 41.6866C-23.2321 41.6866 -23.2909 41.7258 -23.2909 41.7738C-23.2909 41.8218 -23.3302 41.861 -23.3782 41.861C-23.4261 41.861 -23.4707 41.7139 -23.4772 41.5339C-23.4846 41.3315 -23.5035 41.2816 -23.5269 41.4031C-23.5788 41.6725 -24.0759 41.6922 -24.0759 41.4249C-24.0759 41.328 -24.1341 41.2505 -24.2067 41.2505C-24.2787 41.2505 -24.3375 41.1752 -24.3375 41.0832C-24.3375 40.9912 -24.3613 40.8538 -24.3905 40.778C-24.4252 40.6874 -24.3953 40.64 -24.3033 40.64C-24.2213 40.64 -24.1631 40.5676 -24.1631 40.4655C-24.1631 40.3696 -24.2121 40.2905 -24.2721 40.2898C-24.3472 40.2888 -24.3514 40.2685 -24.2856 40.2244C-24.233 40.1892 -24.1635 40.0524 -24.1313 39.9204C-24.0862 39.7362 -24.1041 39.6806 -24.2085 39.6806C-24.3204 39.6806 -24.3245 39.6591 -24.2319 39.5583C-24.1355 39.4535 -24.1155 39.4535 -24.0913 39.5583C-24.07 39.6509 -23.9744 39.6667 -23.6989 39.6237C-23.4984 39.5924 -23.3215 39.5336 -23.3055 39.4929C-23.2895 39.4523 -23.2208 39.419 -23.1529 39.419C-23.0802 39.419 -23.0293 39.3317 -23.0293 39.2073C-23.0293 39.0758 -22.9715 38.9838 -22.8767 38.9643C-22.6853 38.925 -22.644 39.0135 -22.7559 39.2225ZM-21.1914 39.1573C-21.051 39.1573 -20.9361 39.1966 -20.9361 39.2445C-20.9361 39.2925 -21.0931 39.3317 -21.285 39.3317C-21.5651 39.3317 -21.6338 39.3002 -21.6338 39.1719C-21.6338 38.9604 -21.5108 38.8418 -21.4748 39.0186C-21.4568 39.1073 -21.3547 39.1573 -21.1914 39.1573ZM-51.4618 39.0701C-51.4618 39.1181 -51.501 39.1573 -51.549 39.1573C-51.597 39.1573 -51.6362 39.1181 -51.6362 39.0701C-51.6362 39.0221 -51.597 38.9829 -51.549 38.9829C-51.501 38.9829 -51.4618 39.0221 -51.4618 39.0701ZM-45.5311 39.0701C-45.5311 39.1181 -45.6096 39.1573 -45.7055 39.1573C-45.8015 39.1573 -45.88 39.1181 -45.88 39.0701C-45.88 39.0221 -45.8015 38.9829 -45.7055 38.9829C-45.6096 38.9829 -45.5311 39.0221 -45.5311 39.0701ZM-43.874 39.0701C-43.874 39.1181 -43.9525 39.1573 -44.0484 39.1573C-44.1443 39.1573 -44.2228 39.1181 -44.2228 39.0701C-44.2228 39.0221 -44.1443 38.9829 -44.0484 38.9829C-43.9525 38.9829 -43.874 39.0221 -43.874 39.0701ZM-42.3913 39.0701C-42.3913 39.1181 -42.4502 39.1573 -42.5221 39.1573C-42.5941 39.1573 -42.653 39.1181 -42.653 39.0701C-42.653 39.0221 -42.5941 38.9829 -42.5221 38.9829C-42.4502 38.9829 -42.3913 39.0221 -42.3913 39.0701ZM-37.3328 39.0701C-37.3328 39.1181 -37.4113 39.1573 -37.5072 39.1573C-37.6031 39.1573 -37.6816 39.1181 -37.6816 39.0701C-37.6816 39.0221 -37.6031 38.9829 -37.5072 38.9829C-37.4113 38.9829 -37.3328 39.0221 -37.3328 39.0701ZM-35.9373 39.0701C-35.9373 39.1181 -35.9962 39.1573 -36.0681 39.1573C-36.1401 39.1573 -36.1989 39.1181 -36.1989 39.0701C-36.1989 39.0221 -36.1401 38.9829 -36.0681 38.9829C-35.9962 38.9829 -35.9373 39.0221 -35.9373 39.0701ZM-28.6406 39.2663C-28.6648 39.3263 -28.6846 39.2772 -28.6846 39.1573C-28.6846 39.0374 -28.6648 38.9884 -28.6406 39.0483C-28.6164 39.1083 -28.6164 39.2064 -28.6406 39.2663ZM-22.164 39.1791C-22.1678 39.2871 -22.1907 39.3263 -22.2149 39.2663C-22.2391 39.2064 -22.3145 39.1573 -22.3824 39.1573C-22.4504 39.1573 -22.506 39.1181 -22.506 39.0701C-22.506 39.0221 -22.4275 38.9829 -22.3316 38.9829C-22.2068 38.9829 -22.1591 39.0387 -22.164 39.1791ZM-19.7608 39.1573C-19.6979 39.1573 -19.6239 39.2162 -19.5963 39.2881C-19.5687 39.3601 -19.4841 39.419 -19.4084 39.419C-19.1907 39.419 -18.8415 39.8535 -18.8548 40.1076C-18.8655 40.313 -18.8703 40.316 -18.9045 40.1385C-18.9252 40.0306 -18.9788 39.9422 -19.0234 39.9422C-19.068 39.9422 -19.1046 39.8834 -19.1046 39.8114C-19.1046 39.7395 -19.1606 39.6806 -19.2292 39.6806C-19.2977 39.6806 -19.4078 39.6265 -19.4739 39.5604C-19.54 39.4943 -19.7194 39.4127 -19.8727 39.379C-20.0258 39.3454 -20.1512 39.2997 -20.1512 39.2775C-20.1512 39.1842 -19.9307 39.0068 -19.9041 39.0787C-19.888 39.1219 -19.8236 39.1573 -19.7608 39.1573ZM-54.6888 39.2445C-54.6888 39.2925 -54.728 39.3317 -54.776 39.3317C-54.824 39.3317 -54.8632 39.2925 -54.8632 39.2445C-54.8632 39.1966 -54.824 39.1573 -54.776 39.1573C-54.728 39.1573 -54.6888 39.1966 -54.6888 39.2445ZM-49.7175 39.2445C-49.7175 39.2925 -49.7763 39.3317 -49.8483 39.3317C-49.9202 39.3317 -49.9791 39.2925 -49.9791 39.2445C-49.9791 39.1966 -49.9202 39.1573 -49.8483 39.1573C-49.7763 39.1573 -49.7175 39.1966 -49.7175 39.2445ZM-26.8262 39.4059C-26.8754 39.4576 -27.0412 39.3265 -27.0412 39.236C-27.0412 39.1889 -26.9863 39.201 -26.9192 39.2629C-26.8521 39.3248 -26.8102 39.3891 -26.8262 39.4059ZM-20.2384 39.2445C-20.2384 39.2925 -20.3169 39.3317 -20.4128 39.3317C-20.5087 39.3317 -20.5872 39.2925 -20.5872 39.2445C-20.5872 39.1966 -20.5087 39.1573 -20.4128 39.1573C-20.3169 39.1573 -20.2384 39.1966 -20.2384 39.2445ZM-41.6064 39.4626C-41.6064 39.5345 -41.661 39.5934 -41.7278 39.5934C-41.7947 39.5934 -41.8719 39.5345 -41.8996 39.4626C-41.9337 39.3736 -41.8949 39.3317 -41.7781 39.3317C-41.6835 39.3317 -41.6064 39.3906 -41.6064 39.4626ZM-34.2166 39.3844C-34.2456 39.4134 -34.3208 39.4165 -34.3837 39.3913C-34.4533 39.3635 -34.4326 39.3428 -34.331 39.3386C-34.2391 39.3349 -34.1877 39.3555 -34.2166 39.3844ZM-51.4618 39.4965C-51.4618 39.5392 -51.0233 39.5891 -50.4872 39.6074C-49.8197 39.6303 -49.5014 39.6746 -49.477 39.7479C-49.4574 39.8068 -49.3465 39.855 -49.2305 39.855C-49.0639 39.855 -49.0197 39.9006 -49.0197 40.0731C-49.0197 40.193 -48.9805 40.2911 -48.9325 40.2911C-48.8846 40.2911 -48.8453 40.35 -48.8453 40.4219C-48.8453 40.4939 -48.8846 40.5528 -48.9325 40.5528C-48.9805 40.5528 -49.0197 40.6116 -49.0197 40.6836C-49.0197 40.7555 -48.9805 40.8144 -48.9325 40.8144C-48.8846 40.8144 -48.8453 40.8733 -48.8453 40.9452C-48.8453 41.0172 -48.9065 41.0761 -48.9813 41.0761C-49.056 41.0761 -49.093 41.1153 -49.0633 41.1633C-49.0337 41.2112 -49.0903 41.2505 -49.189 41.2505C-49.2918 41.2505 -49.3686 41.3074 -49.3686 41.3835C-49.3686 41.6254 -49.7894 41.6895 -51.0992 41.6467C-51.8023 41.6238 -52.8878 41.5947 -53.5114 41.582C-54.135 41.5693 -54.5765 41.5455 -54.4926 41.5291C-54.2459 41.481 -54.3176 41.2692 -54.6016 41.2069C-54.8722 41.1474 -54.9715 40.8728 -54.7542 40.7847C-54.6719 40.7514 -54.6772 40.7159 -54.776 40.64C-54.8748 40.5641 -54.8801 40.5286 -54.7978 40.4953C-54.7378 40.471 -54.6888 40.3552 -54.6888 40.2381C-54.6888 40.0912 -54.6211 39.9995 -54.4708 39.9422C-54.3508 39.8966 -54.2527 39.8209 -54.2527 39.7739C-54.2527 39.7269 -54.1153 39.6627 -53.9475 39.6312C-53.7796 39.5998 -53.6422 39.539 -53.6422 39.4965C-53.6422 39.4538 -53.1516 39.419 -52.552 39.419C-51.9524 39.419 -51.4618 39.4538 -51.4618 39.4965ZM-49.1942 39.557C-49.1942 39.711 -49.3819 39.6843 -49.4358 39.5226C-49.4549 39.4655 -49.4082 39.419 -49.3322 39.419C-49.2564 39.419 -49.1942 39.4811 -49.1942 39.557ZM-45.1822 39.4993C-45.1822 39.5442 -44.4812 39.5922 -43.5905 39.6083C-42.0485 39.6361 -41.9913 39.6436 -41.759 39.8489C-41.6271 39.9655 -41.5191 40.1169 -41.5191 40.1853C-41.5191 40.2645 -41.4674 40.2899 -41.3771 40.2553C-41.2582 40.2097 -41.244 40.2454 -41.2898 40.4749C-41.32 40.6257 -41.3447 40.8619 -41.3447 40.9997C-41.3447 41.1923 -41.3852 41.2505 -41.5191 41.2505C-41.6151 41.2505 -41.6936 41.3066 -41.6936 41.375C-41.6936 41.4549 -41.8658 41.5382 -42.1733 41.6069C-42.4371 41.666 -42.653 41.7474 -42.653 41.7877C-42.653 41.8971 -42.895 41.8763 -42.9325 41.7637C-42.9543 41.6984 -43.4335 41.6593 -44.3814 41.6451C-45.6047 41.6268 -45.8094 41.6431 -45.8825 41.7643C-45.9594 41.8917 -45.9756 41.8906 -46.0587 41.752C-46.1212 41.6479 -46.2597 41.5994 -46.4948 41.5994C-46.7863 41.5994 -46.8393 41.5713 -46.8393 41.4167C-46.8393 41.3075 -46.9094 41.2159 -47.0138 41.1886C-47.1448 41.1543 -47.1882 41.0696 -47.1882 40.8478C-47.1882 40.6856 -47.2274 40.5528 -47.2754 40.5528C-47.3234 40.5528 -47.3626 40.4939 -47.3626 40.4219C-47.3626 40.35 -47.3234 40.2911 -47.2754 40.2911C-47.2274 40.2911 -47.1882 40.2488 -47.1882 40.1972C-47.1882 40.0328 -46.6853 39.5934 -46.4972 39.5934C-46.3976 39.5934 -46.316 39.5541 -46.316 39.5062C-46.316 39.457 -46.0689 39.419 -45.7491 39.419C-45.4373 39.419 -45.1822 39.4551 -45.1822 39.4993ZM-34.2116 39.7244C-34.1774 39.7724 -34.0316 39.8705 -33.8877 39.9422C-33.5431 40.1142 -33.5238 40.1482 -33.5658 40.508C-33.5875 40.6943 -33.6491 40.8144 -33.7228 40.8144C-33.7895 40.8144 -33.8441 40.8733 -33.8441 40.9452C-33.8441 41.0179 -33.7666 41.0761 -33.6697 41.0761C-33.5737 41.0761 -33.4952 41.1153 -33.4952 41.1633C-33.4952 41.2112 -33.6281 41.2505 -33.7903 41.2505C-34.0046 41.2505 -34.097 41.2949 -34.1278 41.4126C-34.1511 41.5018 -34.2829 41.603 -34.4205 41.6376C-34.5582 41.6721 -34.7007 41.7463 -34.7372 41.8025C-34.7865 41.8784 -34.823 41.8743 -34.8795 41.7868C-34.938 41.6962 -35.3359 41.6632 -36.6021 41.6442C-37.5076 41.6306 -38.4742 41.5908 -38.75 41.5557C-39.2025 41.4983 -39.2515 41.4718 -39.2515 41.2841C-39.2515 41.1696 -39.2883 41.0761 -39.3332 41.0761C-39.3782 41.0761 -39.3927 40.9387 -39.3654 40.7708C-39.3258 40.5265 -39.3443 40.4655 -39.4581 40.4655C-39.5364 40.4655 -39.6004 40.4067 -39.6004 40.3347C-39.6004 40.2628 -39.5415 40.2039 -39.4696 40.2039C-39.3976 40.2039 -39.3387 40.1537 -39.3387 40.0924C-39.3387 39.976 -39.1012 39.7406 -38.8931 39.6511C-38.683 39.5607 -34.2791 39.6296 -34.2116 39.7244ZM-27.2255 39.7519C-27.1952 39.801 -27.0576 39.8695 -26.9199 39.904C-26.7823 39.9386 -26.6505 40.0398 -26.6272 40.129C-26.6038 40.2182 -26.5501 40.2911 -26.5077 40.2911C-26.4654 40.2911 -26.4307 40.35 -26.4307 40.4219C-26.4307 40.4939 -26.362 40.5559 -26.2781 40.5597C-26.187 40.5638 -26.1693 40.5842 -26.2345 40.6105C-26.2944 40.6347 -26.3435 40.7671 -26.3435 40.9046C-26.3435 41.042 -26.3949 41.186 -26.4577 41.2243C-26.5205 41.2627 -26.6233 41.4216 -26.6863 41.5776C-26.7947 41.8459 -26.954 41.9627 -26.954 41.7738C-26.954 41.7258 -27.0129 41.6866 -27.0848 41.6866C-27.1568 41.6866 -27.2157 41.7258 -27.2157 41.7738C-27.2157 41.8218 -27.3138 41.861 -27.4337 41.861C-27.5536 41.861 -27.6518 41.8218 -27.6518 41.7738C-27.6518 41.7258 -27.7499 41.6866 -27.8698 41.6866C-28.0055 41.6866 -28.0878 41.736 -28.0878 41.8174C-28.0878 41.8894 -28.1423 41.9482 -28.209 41.9482C-28.2756 41.9482 -28.3246 41.8825 -28.318 41.802C-28.3076 41.6764 -28.4254 41.6513 -29.1562 41.6239C-29.8781 41.5968 -30.0066 41.6123 -30.0066 41.7265C-30.0066 41.8005 -30.0458 41.861 -30.0938 41.861C-30.1418 41.861 -30.181 41.8054 -30.181 41.7373C-30.181 41.6457 -30.3005 41.6148 -30.6435 41.6178C-31.2063 41.6229 -31.4893 41.5418 -31.4893 41.3755C-31.4893 41.1963 -31.8189 41.2208 -31.8627 41.4031C-31.883 41.487 -31.8822 41.4086 -31.8612 41.2287C-31.8277 40.943 -31.8458 40.9016 -32.0049 40.9016C-32.1921 40.9016 -32.2734 40.5968 -32.1018 40.5382C-32.0549 40.5222 -32.0011 40.3914 -31.9822 40.2475C-31.9633 40.1036 -31.9653 40.035 -31.9866 40.0949C-32.0079 40.1549 -32.0618 40.2039 -32.1061 40.2039C-32.2019 40.2039 -32.2168 39.9452 -32.1216 39.9358C-31.8646 39.9103 -31.6203 39.8394 -31.5802 39.7787C-31.5542 39.7391 -31.474 39.6814 -31.4021 39.6504C-31.1858 39.5572 -27.2873 39.6519 -27.2255 39.7519ZM-33.5825 39.7678C-33.5825 39.8158 -33.661 39.855 -33.7569 39.855C-33.8528 39.855 -33.9313 39.8158 -33.9313 39.7678C-33.9313 39.7198 -33.8528 39.6806 -33.7569 39.6806C-33.661 39.6806 -33.5825 39.7198 -33.5825 39.7678ZM-48.1712 39.9077C-48.2002 39.9367 -48.2754 39.9398 -48.3383 39.9146C-48.4079 39.8868 -48.3872 39.8661 -48.2856 39.8619C-48.1937 39.8582 -48.1423 39.8788 -48.1712 39.9077ZM-26.1691 40.0731C-26.1691 40.145 -26.2083 40.2039 -26.2563 40.2039C-26.3043 40.2039 -26.3435 40.145 -26.3435 40.0731C-26.3435 40.0011 -26.3043 39.9422 -26.2563 39.9422C-26.2083 39.9422 -26.1691 40.0011 -26.1691 40.0731ZM-47.4775 40.4819C-47.5053 40.5515 -47.526 40.5308 -47.5302 40.4292C-47.5339 40.3373 -47.5133 40.2858 -47.4844 40.3147C-47.4554 40.3437 -47.4523 40.419 -47.4775 40.4819ZM-18.6685 40.64C-18.6685 40.7359 -18.7077 40.8144 -18.7557 40.8144C-18.8037 40.8144 -18.8429 40.7359 -18.8429 40.64C-18.8429 40.544 -18.8037 40.4655 -18.7557 40.4655C-18.7077 40.4655 -18.6685 40.544 -18.6685 40.64ZM-24.1431 41.0052C-24.0892 41.1669 -23.9015 41.1937 -23.9015 41.0397C-23.9015 40.9637 -23.9636 40.9016 -24.0395 40.9016C-24.1155 40.9016 -24.1621 40.9482 -24.1431 41.0052ZM-50.3216 42.5587C-50.2771 42.5587 -50.2408 42.6208 -50.2408 42.6968C-50.2408 42.9455 -50.4584 42.77 -50.4744 42.5084C-50.4831 42.3682 -50.4703 42.3222 -50.4462 42.4061C-50.4222 42.49 -50.366 42.5587 -50.3216 42.5587ZM-16.6625 42.3843C-16.6625 42.4323 -16.7018 42.4715 -16.7497 42.4715C-16.7977 42.4715 -16.8369 42.4323 -16.8369 42.3843C-16.8369 42.3363 -16.7977 42.2971 -16.7497 42.2971C-16.7018 42.2971 -16.6625 42.3363 -16.6625 42.3843ZM-39.6876 42.6023C-39.6876 42.6743 -39.7268 42.7332 -39.7748 42.7332C-39.8228 42.7332 -39.862 42.6743 -39.862 42.6023C-39.862 42.5304 -39.8228 42.4715 -39.7748 42.4715C-39.7268 42.4715 -39.6876 42.5304 -39.6876 42.6023ZM-49.5024 42.8073C-49.5516 42.859 -49.7175 42.7279 -49.7175 42.6374C-49.7175 42.5903 -49.6625 42.6024 -49.5955 42.6644C-49.5283 42.7262 -49.4864 42.7906 -49.5024 42.8073ZM-49.0197 42.6947C-49.0197 42.7695 -49.059 42.8064 -49.107 42.7768C-49.1549 42.7471 -49.1942 42.686 -49.1942 42.6408C-49.1942 42.5956 -49.1549 42.5587 -49.107 42.5587C-49.059 42.5587 -49.0197 42.62 -49.0197 42.6947ZM-48.1476 42.646C-48.1476 42.6939 -48.2064 42.7332 -48.2784 42.7332C-48.3504 42.7332 -48.4092 42.6939 -48.4092 42.646C-48.4092 42.598 -48.3504 42.5587 -48.2784 42.5587C-48.2064 42.5587 -48.1476 42.598 -48.1476 42.646ZM-18.6369 42.6896C-18.6028 42.7785 -18.6416 42.8204 -18.7584 42.8204C-18.8529 42.8204 -18.9301 42.7615 -18.9301 42.6896C-18.9301 42.6176 -18.8754 42.5587 -18.8086 42.5587C-18.7418 42.5587 -18.6646 42.6176 -18.6369 42.6896ZM-44.857 42.7858C-44.8859 42.8148 -44.9612 42.8179 -45.0241 42.7927C-45.0937 42.7649 -45.073 42.7442 -44.9714 42.7401C-44.8795 42.7363 -44.828 42.7569 -44.857 42.7858ZM-44.2668 42.821C-44.3299 42.9231 -44.6589 42.9386 -44.6589 42.8394C-44.6589 42.8019 -44.5586 42.7629 -44.4361 42.7528C-44.3069 42.7421 -44.2358 42.7708 -44.2668 42.821ZM-41.8026 42.7933C-41.8865 42.8152 -42.0239 42.8152 -42.1078 42.7933C-42.1918 42.7714 -42.1231 42.7534 -41.9552 42.7534C-41.7873 42.7534 -41.7187 42.7714 -41.8026 42.7933ZM-38.532 42.7909C-38.5919 42.8152 -38.69 42.8152 -38.75 42.7909C-38.8099 42.7667 -38.7609 42.747 -38.641 42.747C-38.5211 42.747 -38.472 42.7667 -38.532 42.7909ZM-21.8178 42.7717C-21.8766 42.8306 -22.9346 42.8569 -22.9906 42.801C-23.0156 42.7759 -22.7525 42.7496 -22.4058 42.7424C-22.0591 42.7353 -21.7945 42.7485 -21.8178 42.7717ZM-21.2615 42.7904C-21.3206 42.8143 -21.4383 42.8158 -21.5232 42.7936C-21.608 42.7715 -21.5597 42.7519 -21.4158 42.7502C-21.2719 42.7484 -21.2025 42.7665 -21.2615 42.7904ZM-20.4782 42.7909C-20.5381 42.8152 -20.6363 42.8152 -20.6963 42.7909C-20.7562 42.7667 -20.7072 42.747 -20.5872 42.747C-20.4673 42.747 -20.4182 42.7667 -20.4782 42.7909ZM-46.078 42.8731C-46.107 42.902 -46.1822 42.9052 -46.2451 42.88C-46.3147 42.8521 -46.2941 42.8315 -46.1924 42.8273C-46.1005 42.8235 -46.0491 42.8441 -46.078 42.8731ZM-19.6061 42.8781C-19.666 42.9024 -19.7641 42.9024 -19.8241 42.8781C-19.884 42.854 -19.835 42.8342 -19.7151 42.8342C-19.5952 42.8342 -19.546 42.854 -19.6061 42.8781ZM-54.6016 42.9948C-54.6016 43.0428 -54.5231 43.082 -54.4271 43.082C-54.3312 43.082 -54.2527 43.0428 -54.2527 42.9948C-54.2527 42.9468 -54.3312 42.9076 -54.4271 42.9076C-54.5231 42.9076 -54.6016 42.9468 -54.6016 42.9948ZM-34.5418 42.9948C-34.5418 43.0428 -34.4633 43.082 -34.3674 43.082C-34.2715 43.082 -34.193 43.0428 -34.193 42.9948C-34.193 42.9468 -34.2715 42.9076 -34.3674 42.9076C-34.4633 42.9076 -34.5418 42.9468 -34.5418 42.9948ZM-17.5347 42.9948C-17.5347 43.0428 -17.4954 43.082 -17.4475 43.082C-17.3995 43.082 -17.3602 43.0428 -17.3602 42.9948C-17.3602 42.9468 -17.3995 42.9076 -17.4475 42.9076C-17.4954 42.9076 -17.5347 42.9468 -17.5347 42.9948ZM5.78216 43.2166C5.75373 43.2907 5.71178 43.3325 5.68893 43.3097C5.66608 43.2868 5.67323 43.2262 5.70489 43.1751C5.79088 43.0359 5.84112 43.0629 5.78216 43.2166Z" fill="#EFEFEF"/>
<rect x="12.625" y="31.5081" width="13.7802" height="8.63441" fill="#EFEFEF"/>
</g>
<defs>
<clipPath id="clip0_1620_20322">
<rect width="53.8996" height="46.3118" fill="white" transform="translate(0.5 0.110107)"/>
</clipPath>
</defs>
</svg>
