<svg width="59" height="47" viewBox="0 0 59 47" fill="none" xmlns="http://www.w3.org/2000/svg">
<g clip-path="url(#clip0_1620_20325)">
<path fill-rule="evenodd" clip-rule="evenodd" d="M103.908 0.174168C103.53 0.210101 103.197 0.277345 103.167 0.32357C103.136 0.369794 102.901 0.434945 102.644 0.468349C102.212 0.524516 101.549 0.668074 100.801 0.867799C99.9789 1.08697 99.1695 1.3256 99.0127 1.39476C98.9168 1.43715 98.4654 1.59492 98.0097 1.74546C97.554 1.89599 97.0618 2.07243 96.9159 2.13749C96.77 2.20256 96.4247 2.32536 96.1485 2.41039C95.8724 2.49543 95.5715 2.6348 95.4799 2.72019C95.3883 2.80548 95.2822 2.87665 95.2443 2.87831C95.2063 2.87996 95.0182 2.95706 94.8263 3.04978C94.6345 3.14249 94.4285 3.21959 94.3685 3.22124C94.3085 3.2229 94.2594 3.26346 94.2594 3.31142C94.2594 3.35939 94.2006 3.39864 94.1286 3.39864C94.0567 3.39864 93.9978 3.44024 93.9978 3.491C93.9978 3.54176 93.9583 3.55894 93.9099 3.52903C93.8002 3.46126 93.5477 3.70198 93.6313 3.7946C93.665 3.83193 93.6264 3.83882 93.5456 3.80995C93.4647 3.781 93.3862 3.79138 93.3711 3.83306C93.3561 3.87475 93.285 3.92159 93.2132 3.9372C93.1414 3.95281 93.0306 4.02442 92.9668 4.09637C92.8787 4.19597 92.8664 4.19763 92.9154 4.10326C92.9564 4.0245 92.8986 4.04038 92.7565 4.14687C92.6336 4.23906 92.5465 4.33665 92.563 4.36386C92.5794 4.39099 92.4674 4.48474 92.3142 4.57214C91.7992 4.86579 91.0763 5.35019 91.047 5.42136C91.031 5.46008 90.9623 5.49183 90.8944 5.49183C90.8264 5.49183 90.7708 5.53108 90.7708 5.57905C90.7708 5.62702 90.7119 5.66626 90.64 5.66626C90.568 5.66626 90.5091 5.69984 90.5091 5.74083C90.5091 5.78182 90.3325 5.92704 90.1167 6.06345C89.9008 6.19994 89.7242 6.34297 89.7242 6.38135C89.7242 6.41981 89.6819 6.45121 89.6303 6.45121C89.5786 6.45121 89.4186 6.56895 89.2747 6.71286C89.1308 6.85676 88.9866 6.97512 88.9543 6.9759C88.9221 6.97669 88.7727 7.08457 88.6223 7.21575C87.9998 7.75876 87.888 7.84667 87.8208 7.84667C87.7821 7.84667 87.5528 8.03314 87.3115 8.26095C87.07 8.48884 86.6245 8.89108 86.3213 9.15491C86.018 9.41874 85.5314 9.86215 85.2396 10.1402C84.9479 10.4183 84.5621 10.7784 84.3822 10.9406C84.2024 11.1027 84.0546 11.2676 84.0539 11.3071C84.0533 11.3467 83.8208 11.6066 83.5373 11.8848C83.0204 12.392 82.6675 12.7837 82.18 13.3912C82.0361 13.5705 81.8082 13.8386 81.6735 13.9871C81.5389 14.1356 81.3426 14.3684 81.2374 14.5044C81.1323 14.6405 81.0065 14.7975 80.958 14.8533C80.8018 15.033 80.0018 15.9957 79.9325 16.0872C79.8957 16.136 79.7832 16.2739 79.6826 16.3939C79.5821 16.5138 79.4356 16.71 79.3572 16.8299C79.1928 17.0813 79.0089 17.3189 78.8222 17.5211C78.7502 17.5991 78.5344 17.8967 78.3425 18.1825C77.9455 18.7739 77.9367 18.7862 77.6654 19.1412C77.3314 19.5783 76.8162 20.3976 76.8162 20.4917C76.8162 20.5404 76.7859 20.5802 76.7489 20.5802C76.712 20.5802 76.5852 20.7569 76.4673 20.9727C76.3494 21.1886 76.2286 21.3652 76.199 21.3652C76.1692 21.3652 76.0742 21.5222 75.9876 21.7141C75.9011 21.9059 75.7971 22.0629 75.7563 22.0629C75.7157 22.0629 75.6824 22.1057 75.6824 22.158C75.6824 22.311 74.6022 24.0685 74.5057 24.0726C74.4573 24.0747 74.2301 24.3986 74.0007 24.7922C73.6338 25.4218 73.3762 25.833 72.8915 26.5631C72.8195 26.6714 72.5863 27.0474 72.3732 27.3985C72.1601 27.7496 71.9149 28.113 71.8281 28.2061C71.7414 28.2992 71.6704 28.4076 71.6704 28.4471C71.6704 28.4865 71.5405 28.7047 71.3816 28.9321C71.2227 29.1594 71.0661 29.4164 71.0336 29.503C71.001 29.5896 70.7189 30.048 70.4067 30.5216C70.0943 30.9952 69.8389 31.4019 69.8389 31.4255C69.8389 31.4807 68.864 32.9073 68.7869 32.9649C68.7548 32.9889 68.6985 33.1048 68.6617 33.2225C68.6249 33.3402 68.551 33.4861 68.4973 33.5466C68.3014 33.7678 68.2156 33.8876 68.0092 34.2296C67.8934 34.4215 67.7758 34.5981 67.7481 34.6221C67.7203 34.646 67.5612 34.8409 67.3946 35.055C67.2279 35.2692 67.0032 35.5398 66.8953 35.6564C66.7875 35.7731 66.6991 35.8964 66.6991 35.9303C66.6991 35.9642 66.6108 36.0899 66.5029 36.2096C66.2412 36.4996 66.0198 36.7672 65.6525 37.2373C65.4846 37.4521 65.2884 37.6923 65.2164 37.7709C65.1445 37.8496 64.9482 38.0811 64.7803 38.2853C64.1447 39.0586 63.9382 39.288 63.4721 39.7389C63.2083 39.9941 62.9296 40.2031 62.8528 40.2034C61.962 40.2065 61.2858 41.5594 61.5508 42.8084C61.655 43.2996 62.0724 43.9542 62.2813 43.9542C62.3195 43.9542 62.4065 44.0099 62.4745 44.078C62.5426 44.1461 62.8636 44.2304 63.1879 44.2654C63.5121 44.3004 67.8198 44.3039 72.7606 44.2733C77.7014 44.2428 84.2263 44.2173 87.2603 44.2168C92.1053 44.2159 92.7768 44.1999 92.7768 44.085C92.7768 44.0131 92.8062 43.953 92.8422 43.9515C92.8781 43.95 93.1627 43.7089 93.4745 43.4156C94.6232 42.3354 95.0282 42.1904 97.094 42.1204C97.9574 42.0912 98.7325 42.0362 98.8165 41.9984C98.9383 41.9434 98.9691 41.8191 98.9691 41.3829C98.9691 41.0823 98.9941 40.7113 99.0247 40.5586C99.0716 40.324 99.0513 40.2735 98.8938 40.2322C98.7913 40.2055 98.7075 40.1321 98.7075 40.0692C98.7075 39.8862 98.2953 39.6127 97.9248 39.5501C97.607 39.4965 97.5815 39.4703 97.5567 39.1723C97.5326 38.8827 97.5034 38.8494 97.2522 38.8251C96.9877 38.7995 96.973 38.8142 96.9469 39.1304L96.9195 39.4626L96.3308 39.4884C95.7427 39.5141 95.7421 39.5144 95.7421 39.7718C95.7421 40.0046 95.7148 40.0294 95.4587 40.0282C95.3028 40.0274 95.1327 39.998 95.0808 39.9627C94.9038 39.8426 93.7672 37.8959 93.2356 36.8025C92.6448 35.5871 92.5179 35.2976 92.2989 34.6657C92.2158 34.4258 92.1153 34.1511 92.0755 34.0552C91.8119 33.4183 91.3544 31.5264 91.1899 30.3921C91.0407 29.3635 91.0394 25.8382 91.1879 24.8538C91.4371 23.2003 91.943 21.3927 92.579 19.8825C92.8472 19.2455 93.7763 17.3956 93.842 17.3678C93.8797 17.3518 93.9106 17.2962 93.9106 17.2442C93.9106 17.0096 95.9201 14.1179 96.3239 13.7714C96.4117 13.6961 96.6993 13.383 96.9631 13.0755C98.2563 11.5687 99.8442 9.98041 100.928 9.10991C101.166 8.91882 101.424 8.70357 101.501 8.63162C101.714 8.43311 102.289 7.9877 102.448 7.89769C102.525 7.85382 102.608 7.79303 102.632 7.76251C102.827 7.51446 105.862 5.46567 106.601 5.08305C106.792 4.98371 107.201 4.77012 107.509 4.60842C108.256 4.21612 109.217 3.27287 109.342 2.81019C109.487 2.27311 109.375 1.94727 108.877 1.44639C108.429 0.996879 107.482 0.433288 107.173 0.433288C107.082 0.433288 106.992 0.387063 106.973 0.330547C106.904 0.124106 105.296 0.0420355 103.908 0.174168ZM43.284 0.231207C42.9495 0.251267 42.6552 0.297579 42.6299 0.334123C42.6045 0.370666 42.0932 0.451865 41.4936 0.514573C40.894 0.577194 40.3903 0.663016 40.3744 0.705315C40.3583 0.747615 40.2504 0.782153 40.1345 0.782153C40.0185 0.782153 39.9237 0.817562 39.9237 0.860822C39.9237 0.904081 39.6785 0.967662 39.3786 1.00211C39.0788 1.03656 38.8109 1.10032 38.7834 1.14384C38.7557 1.18727 38.5301 1.24693 38.2819 1.27632C38.0336 1.30571 37.8305 1.35813 37.8305 1.39293C37.8305 1.42764 37.595 1.50605 37.3072 1.5671C37.0194 1.62815 36.7839 1.70961 36.7839 1.74807C36.7839 1.78662 36.6073 1.84453 36.3915 1.87689C36.1756 1.90925 35.999 1.96611 35.999 2.00318C35.999 2.04025 35.8812 2.09467 35.7373 2.12415C35.5934 2.15354 35.3579 2.20168 35.214 2.23108C35.0701 2.26056 34.9524 2.31507 34.9524 2.35222C34.9524 2.38946 34.815 2.44563 34.6471 2.47711C34.4792 2.5086 34.3419 2.56791 34.3419 2.60898C34.3419 2.64998 34.1456 2.73056 33.9058 2.78813C33.6581 2.84752 33.4697 2.94206 33.4697 3.00678C33.4697 3.07062 33.2777 3.17013 33.0336 3.23267C32.7938 3.29407 32.5975 3.37448 32.5975 3.4112C32.5975 3.44792 32.4602 3.50374 32.2923 3.53522C32.1244 3.56671 31.987 3.62575 31.987 3.66648C31.987 3.70721 31.83 3.78754 31.6382 3.84501C31.4463 3.90249 31.2893 3.97837 31.2893 4.01352C31.2893 4.04866 31.1912 4.10213 31.0713 4.13222C30.9513 4.16231 30.8532 4.22179 30.8532 4.26444C30.8532 4.307 30.657 4.39221 30.4171 4.4537C30.1773 4.5151 29.9811 4.59725 29.9811 4.63615C29.9811 4.67505 29.921 4.70688 29.8475 4.70688C29.774 4.70688 29.6927 4.76218 29.6667 4.82986C29.6408 4.89745 29.5243 4.97673 29.4079 5.00595C29.2914 5.03517 29.1961 5.09761 29.1961 5.14462C29.1961 5.19172 29.1372 5.23018 29.0653 5.23018C28.9933 5.23018 28.9345 5.2669 28.9345 5.31173C28.9345 5.35664 28.7971 5.44299 28.6292 5.50369C28.4613 5.56439 28.324 5.64542 28.324 5.68379C28.324 5.72208 28.2442 5.75348 28.1468 5.75348C28.0493 5.75348 27.9484 5.80877 27.9224 5.87645C27.8965 5.94405 27.7872 6.02149 27.6796 6.04853C27.572 6.07548 27.3922 6.17718 27.2801 6.27442C27.168 6.37167 27.0234 6.45121 26.9588 6.45121C26.8941 6.45121 26.8413 6.49142 26.8413 6.54061C26.8413 6.58971 26.746 6.6662 26.6296 6.71042C26.3489 6.81717 26.0563 7.07315 26.0563 7.21191C26.0563 7.27322 25.9969 7.32337 25.9243 7.32337C25.7699 7.32337 25.4828 7.47827 25.2375 7.69404C25.1421 7.77803 25.0168 7.84667 24.959 7.84667C24.9012 7.84667 24.8314 7.90554 24.8037 7.97749C24.7762 8.04945 24.7117 8.10832 24.6607 8.10832C24.6096 8.10832 24.4527 8.22606 24.312 8.36997C24.1713 8.51387 23.998 8.63162 23.9268 8.63162C23.8556 8.63162 23.766 8.68473 23.7277 8.74971C23.6893 8.81468 23.5683 8.91481 23.4588 8.97228C23.3494 9.02976 22.9828 9.34949 22.6442 9.68275C22.3056 10.016 21.9989 10.2887 21.9626 10.2887C21.9263 10.2887 21.8147 10.3599 21.7144 10.4468C21.6141 10.5337 21.4291 10.6809 21.3031 10.7738C20.9016 11.0701 20.5927 11.3744 20.5365 11.5289C20.5065 11.6114 20.3872 11.7028 20.2714 11.7318C20.1555 11.7609 20.0099 11.8798 19.9476 11.9961C19.8854 12.1123 19.7864 12.2075 19.7276 12.2075C19.6688 12.2075 19.5282 12.308 19.4152 12.431C19.3023 12.554 18.9842 12.8811 18.7084 13.158C18.4326 13.4348 18.2069 13.7004 18.2069 13.7482C18.2069 13.796 18.1185 13.8828 18.0106 13.9412C17.9027 13.9994 17.6966 14.1832 17.5527 14.3495C17.4088 14.5157 17.0655 14.8905 16.7896 15.1823C16.5137 15.474 16.2881 15.7513 16.2881 15.7984C16.2881 15.9198 15.6383 16.5683 15.5168 16.5683C15.4613 16.5683 15.4159 16.6191 15.4159 16.6812C15.4159 16.7433 15.2605 16.969 15.0707 17.1826C14.8807 17.3964 14.6648 17.64 14.591 17.7239C14.517 17.8078 14.4565 17.9256 14.4565 17.9856C14.4564 18.0852 14.3421 18.2415 13.8459 18.8215C13.75 18.9335 13.6716 19.0611 13.6716 19.105C13.6716 19.1488 13.6154 19.1848 13.5466 19.1848C13.4779 19.1848 13.3958 19.2664 13.3642 19.3662C13.3325 19.466 13.1978 19.6523 13.0648 19.7805C12.9319 19.9085 12.7954 20.1016 12.7618 20.2096C12.728 20.3175 12.6639 20.4058 12.6192 20.4058C12.5744 20.4058 12.5378 20.4643 12.5378 20.5359C12.5378 20.6075 12.4593 20.715 12.3634 20.7749C12.2674 20.8348 12.1889 20.9273 12.1889 20.9804C12.1889 21.0334 12.1094 21.1686 12.0122 21.2807C11.9149 21.3928 11.8137 21.5704 11.7875 21.6753C11.7611 21.7802 11.6445 21.917 11.5282 21.9793C11.4119 22.0415 11.3168 22.1601 11.3168 22.2428C11.3168 22.3254 11.2579 22.4157 11.186 22.4434C11.114 22.4709 11.0551 22.5536 11.0551 22.6271C11.0551 22.7006 11.0207 22.7606 10.9785 22.7606C10.9363 22.7606 10.8531 22.8784 10.7935 23.0223C10.7339 23.1662 10.6506 23.2839 10.6085 23.2839C10.5663 23.2839 10.5318 23.3409 10.5318 23.4104C10.5318 23.48 10.4827 23.5683 10.4226 23.6066C10.3626 23.645 10.2547 23.7942 10.1828 23.9381C10.1109 24.082 10.0031 24.2516 9.94312 24.3149C9.88321 24.3783 9.8341 24.4863 9.8341 24.5548C9.8341 24.6233 9.79285 24.6794 9.74235 24.6794C9.69185 24.6794 9.60952 24.7971 9.55937 24.9411C9.50922 25.085 9.41791 25.2027 9.35642 25.2027C9.29502 25.2027 9.19324 25.3303 9.13027 25.4862C9.0673 25.6421 8.96447 25.801 8.90167 25.8394C8.83888 25.8778 8.78751 25.966 8.78751 26.0356C8.78751 26.1051 8.74826 26.1621 8.70029 26.1621C8.65232 26.1621 8.61307 26.2215 8.61307 26.2941C8.61307 26.4611 8.42879 26.7946 8.28601 26.886C8.2261 26.9244 8.17699 27.0084 8.17699 27.0729C8.17699 27.1373 8.12179 27.2112 8.05437 27.237C7.98695 27.2629 7.9061 27.4013 7.87462 27.5444C7.84322 27.6875 7.76097 27.8263 7.69198 27.8528C7.623 27.8793 7.56648 27.961 7.56648 28.0345C7.56648 28.108 7.52723 28.1681 7.47926 28.1681C7.43129 28.1681 7.39205 28.2227 7.39205 28.2895C7.39205 28.3564 7.33318 28.4336 7.26122 28.4613C7.18927 28.4888 7.1304 28.587 7.1304 28.6793C7.1304 28.7716 7.07519 28.8683 7.00777 28.8941C6.94035 28.92 6.85872 29.0616 6.82645 29.2087C6.79409 29.3559 6.73156 29.4763 6.68743 29.4763C6.64321 29.4763 6.6071 29.5364 6.6071 29.6098C6.6071 29.6834 6.55059 29.7651 6.4816 29.7916C6.41261 29.8181 6.33036 29.9569 6.29897 30.1C6.26748 30.2431 6.18663 30.3814 6.11921 30.4073C6.0518 30.4331 5.99659 30.5226 5.99659 30.6061C5.99659 30.6896 5.91809 30.8484 5.82215 30.959C5.72622 31.0696 5.64772 31.2069 5.64772 31.2642C5.64772 31.3215 5.56923 31.4589 5.47329 31.5695C5.37735 31.6801 5.29886 31.8235 5.29886 31.8881C5.29886 31.9527 5.24304 32.0056 5.17484 32.0056C5.10655 32.0056 5.00537 32.1429 4.94999 32.3108C4.89461 32.4787 4.81359 32.6161 4.77006 32.6161C4.72646 32.6161 4.64709 32.79 4.59354 33.0026C4.53999 33.2153 4.44135 33.4102 4.37419 33.436C4.30712 33.4617 4.25226 33.5428 4.25226 33.6164C4.25226 33.6898 4.21615 33.7499 4.17194 33.7499C4.1278 33.7499 4.06658 33.8644 4.03579 34.0044C4.00509 34.1444 3.90383 34.3465 3.81086 34.4538C3.7178 34.561 3.64175 34.7016 3.64175 34.7662C3.64175 34.8309 3.60756 34.8837 3.56587 34.8837C3.52409 34.8837 3.4415 35.0568 3.38228 35.2684C3.31312 35.5152 3.21535 35.6686 3.10929 35.6963C3.01841 35.7201 2.94402 35.8021 2.94402 35.8785C2.94402 35.955 2.91096 36.0175 2.87058 36.0175C2.8302 36.0175 2.75014 36.1745 2.69266 36.3664C2.63519 36.5583 2.5505 36.7152 2.50445 36.7152C2.4584 36.7152 2.42072 36.7753 2.42072 36.8488C2.42072 36.9223 2.36621 37.0032 2.29966 37.0288C2.23312 37.0543 2.15741 37.1812 2.13151 37.3108C2.02467 37.8451 1.71122 38.0038 0.733609 38.0184L0.398438 38.0235L0.428352 38.8803C0.458616 39.745 0.571562 40.0499 0.829809 39.9638C1.05282 39.8895 0.949731 40.463 0.698199 40.6963C0.477978 40.9007 0.458355 40.9719 0.458355 41.5675C0.458355 41.969 0.497253 42.2403 0.560485 42.2794C0.616652 42.314 0.689565 42.45 0.722533 42.5814C0.7555 42.7128 0.814721 42.8204 0.854055 42.8204C0.89339 42.8204 0.987234 42.882 1.06268 42.9574C1.13803 43.0328 1.19969 43.0525 1.19969 43.001C1.19969 42.9459 1.39645 42.9076 1.67938 42.9076C1.94321 42.9076 2.15907 42.9468 2.15907 42.9948C2.15907 43.0428 2.33568 43.082 2.55154 43.082C2.91698 43.082 3.08234 42.9682 2.83613 42.8861C2.77674 42.8664 2.8766 42.8446 3.05783 42.8378C3.27631 42.8296 3.40408 42.8687 3.4367 42.9537C3.46383 43.0243 3.57991 43.082 3.69469 43.082C3.93619 43.082 3.97614 42.939 3.75077 42.8813C3.66687 42.8599 3.814 42.863 4.07783 42.8883C4.34166 42.9135 4.58639 42.9773 4.62162 43.03C4.66575 43.096 4.68608 43.0918 4.68704 43.0166C4.68773 42.9567 4.76361 42.9076 4.85554 42.9076C4.94746 42.9076 5.03721 42.8639 5.05509 42.8104C5.07288 42.757 5.16446 42.7332 5.25856 42.7576C5.41904 42.7991 5.41747 42.8058 5.23344 42.865C5.12556 42.8996 5.03721 42.9626 5.03721 43.005C5.03721 43.1073 5.3634 43.1045 5.40064 43.0019C5.4166 42.9578 5.60629 42.9039 5.82215 42.8823C6.03801 42.8607 6.28327 42.814 6.36726 42.7787C6.45125 42.7434 6.51988 42.751 6.51988 42.7955C6.51988 42.8401 6.98065 42.8825 7.54389 42.8896C8.15571 42.8975 8.57985 42.9388 8.59773 42.9924C8.61421 43.0417 8.68738 43.082 8.76047 43.082C8.83356 43.082 8.87403 43.0315 8.85039 42.9699C8.82466 42.903 8.87359 42.8578 8.97188 42.8578C9.06233 42.8578 9.13637 42.9082 9.13637 42.9699C9.13637 43.114 9.45454 43.1166 9.52161 42.973C9.56225 42.8858 9.58266 42.8858 9.6233 42.973C9.68897 43.1138 9.89393 43.1138 9.95106 42.973C9.98446 42.8905 10.0169 42.8952 10.0843 42.9923C10.1942 43.1505 10.2937 43.0703 10.2214 42.882C10.1889 42.7973 10.1136 42.7653 10.026 42.7988C9.89978 42.8473 9.89812 42.8375 10.0114 42.7133C10.1285 42.5851 10.1461 42.5873 10.2181 42.7403C10.2614 42.8323 10.3497 42.9076 10.4144 42.9076C10.479 42.9076 10.5318 42.9468 10.5318 42.9948C10.5318 43.0428 10.5907 43.082 10.6627 43.082C10.7346 43.082 10.7935 43.0428 10.7935 42.9948C10.7935 42.9468 10.872 42.9076 10.9679 42.9076C11.0639 42.9076 11.1423 42.9468 11.1423 42.9948C11.1423 43.0428 11.2797 43.082 11.4476 43.082C11.6792 43.082 11.7536 43.0451 11.7557 42.9294C11.7583 42.784 11.7639 42.784 11.8743 42.9294C12.0003 43.0955 12.1889 43.1346 12.1889 42.9948C12.1889 42.9468 12.3067 42.9076 12.4506 42.9076C12.5945 42.9076 12.7122 42.9468 12.7122 42.9948C12.7122 43.044 12.9593 43.082 13.2791 43.082C13.7879 43.082 13.8461 43.0642 13.8461 42.9076C13.8461 42.8117 13.8853 42.7332 13.9333 42.7332C13.9812 42.7332 14.0205 42.7626 14.0206 42.7986C14.0206 42.8346 14.1201 42.8697 14.2416 42.8767C14.4212 42.8871 14.4527 42.8586 14.4101 42.7241C14.3738 42.6098 14.3998 42.5587 14.4943 42.5587C14.588 42.5587 14.631 42.641 14.631 42.8204C14.631 43.0294 14.6685 43.082 14.817 43.082C14.9193 43.082 15.0763 42.9975 15.1659 42.8943C15.2555 42.791 15.3287 42.7517 15.3287 42.807C15.3287 42.8663 15.4723 42.9076 15.6776 42.9076C15.8695 42.9076 16.0265 42.8684 16.0265 42.8204C16.0265 42.6598 16.2756 42.731 16.3317 42.9076C16.3942 43.1046 16.5134 43.1361 16.5792 42.973C16.6144 42.8858 16.6246 42.8858 16.6301 42.973C16.64 43.1306 16.8165 43.1069 16.9546 42.9294C17.0678 42.784 17.071 42.784 17.0203 42.9294C16.9761 43.0564 17.02 43.082 17.2818 43.082C17.5133 43.082 17.5963 43.0448 17.5963 42.941C17.5963 42.843 17.5432 42.8139 17.4219 42.8457C17.326 42.8707 17.2475 42.8557 17.2475 42.8122C17.2475 42.7688 17.3045 42.7332 17.3742 42.7332C17.5545 42.7332 17.9452 42.9218 17.9452 43.0089C17.9452 43.0491 18.0237 43.082 18.1196 43.082C18.2156 43.082 18.2941 43.0428 18.2941 42.9948C18.2941 42.8693 18.533 42.8872 18.5852 43.0166C18.6204 43.1038 18.6306 43.1038 18.6361 43.0166C18.6442 42.8882 18.9046 42.867 18.9046 42.9948C18.9046 43.1203 19.1435 43.1024 19.1957 42.973C19.2309 42.8858 19.2411 42.8858 19.2466 42.973C19.2547 43.1015 19.5151 43.1227 19.5151 42.9948C19.5151 42.8686 19.8413 42.8875 19.8935 43.0166C19.9183 43.0784 19.9404 43.0553 19.9443 42.9636C19.95 42.8312 19.9951 42.8124 20.1902 42.8615C20.3216 42.8944 20.4584 42.9673 20.4941 43.0235C20.5423 43.0995 20.5593 43.0977 20.5604 43.0166C20.5611 42.9567 20.6369 42.9076 20.7289 42.9076C20.8208 42.9076 20.9189 42.9567 20.9469 43.0166C20.9876 43.1038 21.008 43.1038 21.0486 43.0166C21.0766 42.9567 21.1747 42.9076 21.2667 42.9076C21.3586 42.9076 21.4345 42.9567 21.4352 43.0166C21.4362 43.1018 21.4513 43.1024 21.5043 43.019C21.6023 42.8649 23.7154 42.822 23.7665 42.973C23.814 43.114 24.0229 43.114 24.0798 42.973C24.115 42.8858 24.1252 42.8858 24.1307 42.973C24.1388 43.1015 24.4864 43.1228 24.4864 42.9948C24.4864 42.9468 24.5453 42.9076 24.6173 42.9076C24.6892 42.9076 24.7487 42.9567 24.7494 43.0166C24.7504 43.0905 24.7805 43.0835 24.8432 42.9948C24.9129 42.8964 24.9468 42.8909 24.98 42.973C25.0046 43.0335 25.1729 43.082 25.3586 43.082C25.5445 43.082 25.7124 43.0336 25.7369 42.973C25.7721 42.8858 25.7823 42.8858 25.7878 42.973C25.7924 43.0459 25.951 43.082 26.2671 43.082C26.5634 43.082 26.7559 43.0414 26.7835 42.973C26.8187 42.8858 26.8289 42.8858 26.8344 42.973C26.8432 43.112 28.1198 43.1276 28.1659 42.9893C28.1829 42.9383 28.2941 42.8841 28.413 42.8688C28.5319 42.8534 28.6939 42.814 28.773 42.7811C28.8521 42.7482 28.94 42.7588 28.9683 42.8046C28.9966 42.8504 28.9557 42.8825 28.8775 42.8759C28.7992 42.8694 28.7179 42.9131 28.6967 42.973C28.6715 43.0445 28.7483 43.082 28.9199 43.082C29.0638 43.082 29.2013 43.033 29.2256 42.973C29.2607 42.8858 29.2709 42.8858 29.2764 42.973C29.2847 43.1042 29.9811 43.1257 29.9811 42.9948C29.9811 42.9468 30.0399 42.9076 30.1119 42.9076C30.1838 42.9076 30.2427 42.9468 30.2427 42.9948C30.2427 43.0492 30.7514 43.082 31.5946 43.082C32.4377 43.082 32.9464 43.0492 32.9464 42.9948C32.9464 42.9468 33.0806 42.9076 33.2444 42.9076C33.4083 42.9076 33.5653 42.8586 33.5933 42.7986C33.6339 42.7114 33.6543 42.7114 33.695 42.7986C33.728 42.8692 33.9431 42.9076 34.3055 42.9076C34.6944 42.9076 34.8656 42.9408 34.8665 43.0166C34.8674 43.0905 34.8976 43.0835 34.9603 42.9948C35.03 42.8964 35.0638 42.8909 35.0971 42.973C35.1518 43.1077 35.9712 43.1219 36.0155 42.9891C36.0564 42.8664 37.5997 42.8691 37.6406 42.9919C37.6868 43.1306 38.441 43.1065 38.441 42.9663C38.441 42.8874 38.5242 42.8628 38.7027 42.889C38.8466 42.9101 38.9643 42.9622 38.9643 43.0047C38.9643 43.1384 39.6388 43.0941 39.6915 42.9569C39.7524 42.798 40.2719 42.8043 40.3335 42.9647C40.3879 43.1066 41.7553 43.1356 41.7553 42.9948C41.7553 42.9468 41.853 42.9076 41.9726 42.9076C42.0954 42.9076 42.2372 42.8318 42.2988 42.7332C42.3587 42.6372 42.4572 42.5587 42.5176 42.5587C42.5849 42.5587 42.6274 42.4407 42.6274 42.2535C42.6274 42.0529 42.5863 41.9482 42.5078 41.9482C42.4355 41.9482 42.3659 41.8098 42.3323 41.5994C42.278 41.26 42.267 41.2505 41.9286 41.2505C41.6776 41.2505 41.5808 41.2869 41.5808 41.3813C41.5808 41.573 41.4343 41.541 41.3811 41.3377C41.3538 41.2333 41.2621 41.1633 41.1529 41.1633C41.0285 41.1633 40.9703 41.1077 40.9703 40.9888C40.9703 40.8919 40.9121 40.8144 40.8395 40.8144C40.6992 40.8144 40.677 40.6455 40.7618 40.2219C40.8002 40.0295 40.878 39.9405 41.0444 39.8988C41.1706 39.8672 41.303 39.7953 41.3388 39.7391C41.387 39.6632 41.404 39.6649 41.4051 39.746C41.4068 39.8877 41.6403 39.8877 41.6975 39.746C41.7327 39.6588 41.7429 39.6588 41.7484 39.746C41.7586 39.9071 42.2496 39.882 42.3128 39.7171C42.342 39.6412 42.3658 39.4449 42.3658 39.281C42.3658 39.0741 42.4058 38.9829 42.4966 38.9829C42.578 38.9829 42.6274 38.9005 42.6274 38.7648C42.6274 38.6432 42.5769 38.5468 42.5131 38.5468C42.4489 38.5468 42.3497 38.3554 42.287 38.1107C42.2255 37.8709 42.143 37.6746 42.1037 37.6746C42.0644 37.6746 42.0057 37.5176 41.9733 37.3258C41.9409 37.1339 41.8849 36.9769 41.8488 36.9769C41.8126 36.9769 41.7314 36.761 41.668 36.4972C41.6047 36.2334 41.5262 36.0175 41.4935 36.0175C41.4609 36.0175 41.3858 35.8017 41.3268 35.5378C41.2677 35.274 41.1885 35.0581 41.1507 35.0581C41.1128 35.0581 41.0574 34.8523 41.0277 34.6008C40.9979 34.3492 40.9359 34.1309 40.8902 34.1157C40.8443 34.1003 40.7597 33.7959 40.7021 33.4392C40.6377 33.0395 40.5562 32.7905 40.4899 32.7905C40.4233 32.7905 40.3601 32.5937 40.3238 32.2732C40.2916 31.9888 40.2325 31.7435 40.1926 31.7281C40.066 31.6796 39.9237 29.5393 39.9237 27.6833C39.9237 25.9249 40.0462 24.2442 40.1807 24.1568C40.2182 24.1325 40.2768 23.8869 40.3107 23.611C40.3507 23.285 40.4126 23.1095 40.4874 23.1095C40.5593 23.1095 40.6447 22.897 40.7152 22.5426C40.7772 22.2308 40.8581 21.9757 40.8951 21.9757C40.9321 21.9757 40.9882 21.8383 41.0197 21.6704C41.0512 21.5026 41.1047 21.3652 41.1387 21.3652C41.1727 21.3652 41.2534 21.1706 41.3182 20.9328C41.3829 20.6949 41.4881 20.4803 41.552 20.4558C41.6158 20.4314 41.668 20.318 41.668 20.2038C41.668 20.0897 41.7465 19.9059 41.8425 19.7953C41.9384 19.6847 42.0169 19.5413 42.0169 19.4767C42.0169 19.4121 42.0514 19.3592 42.0936 19.3592C42.1357 19.3592 42.219 19.2415 42.2786 19.0976C42.3381 18.9537 42.441 18.8359 42.5071 18.8359C42.5733 18.8359 42.6274 18.779 42.6274 18.7095C42.6274 18.6399 42.6765 18.5516 42.7366 18.5132C42.7966 18.4748 42.9045 18.3257 42.9763 18.1818C43.0481 18.0379 43.1559 17.8887 43.216 17.8504C43.276 17.812 43.3251 17.7437 43.3251 17.6985C43.3251 17.6534 43.4429 17.5039 43.5868 17.3663C43.7307 17.2289 43.8484 17.081 43.8484 17.0379C43.8484 16.9948 44.0445 16.7832 44.2841 16.5677C44.7621 16.1376 44.9373 15.9639 45.58 15.2819C45.8174 15.0301 46.0406 14.824 46.0762 14.824C46.1117 14.824 46.2533 14.7062 46.3908 14.5623C46.5283 14.4184 46.6736 14.3007 46.7138 14.3007C46.7539 14.3007 46.9007 14.2026 47.04 14.0827C47.1795 13.9629 47.3426 13.8648 47.4025 13.8647C47.4625 13.8647 47.5115 13.8023 47.5115 13.7262C47.5115 13.65 47.6267 13.5443 47.7675 13.4911C47.9084 13.438 48.0683 13.3109 48.123 13.2086C48.1778 13.1063 48.3668 12.971 48.5429 12.9077C48.7192 12.8445 48.9422 12.7102 49.0385 12.6092C49.1348 12.5082 49.331 12.3667 49.4746 12.2949C49.6181 12.223 49.7669 12.115 49.8053 12.055C49.8437 11.9949 49.932 11.9458 50.0016 11.9458C50.0711 11.9458 50.128 11.9139 50.128 11.8749C50.128 11.8359 50.2654 11.75 50.4333 11.6842C50.6012 11.6183 50.7385 11.5171 50.7385 11.4593C50.7385 11.4015 50.8294 11.3314 50.9405 11.3036C51.0515 11.2757 51.2342 11.1733 51.3463 11.076C51.4584 10.9788 51.603 10.8992 51.6676 10.8992C51.7323 10.8992 51.7851 10.8648 51.7851 10.8226C51.7851 10.7804 51.9126 10.6938 52.0686 10.6301C52.2245 10.5663 52.3997 10.4732 52.458 10.4232C52.5163 10.3732 52.6166 10.2888 52.681 10.2356C52.7453 10.1825 52.9429 10.0911 53.1201 10.0327C53.2973 9.97413 53.4422 9.89084 53.4422 9.8475C53.4422 9.80424 53.539 9.74449 53.6571 9.71484C53.7753 9.6851 53.8958 9.58628 53.9247 9.49514C53.9536 9.40392 54.0348 9.32935 54.105 9.32935C54.1752 9.32935 54.2526 9.27719 54.2772 9.21335C54.3017 9.14959 54.4574 9.04415 54.6233 8.97908C54.7892 8.91393 54.9249 8.82881 54.9249 8.78974C54.9249 8.75075 55.0046 8.71883 55.102 8.71883C55.1996 8.71883 55.3005 8.66354 55.3264 8.59603C55.3523 8.52844 55.4856 8.42674 55.6226 8.36997C55.7597 8.31319 55.893 8.21149 55.9189 8.1439C55.9448 8.0764 56.0045 8.0211 56.0515 8.0211C56.1752 8.0211 56.582 7.6268 56.582 7.50687C56.582 7.45088 56.637 7.38399 56.7043 7.35817C56.7715 7.33244 56.8518 7.17667 56.8827 7.0121C56.9135 6.84752 56.9905 6.71286 57.0538 6.71286C57.1245 6.71286 57.1902 6.557 57.2243 6.30817C57.3377 5.48084 57.2572 4.70688 57.0577 4.70688C56.9956 4.70688 56.9188 4.58914 56.8873 4.44524C56.8557 4.30133 56.8033 4.18359 56.7708 4.18359C56.7384 4.18359 56.6554 4.05599 56.5864 3.90013C56.5174 3.74428 56.3312 3.49432 56.1726 3.34474C56.0141 3.19517 55.8843 3.03312 55.8843 2.98462C55.8843 2.93613 55.7693 2.84892 55.6289 2.79074C55.4884 2.73257 55.3523 2.62965 55.3264 2.56206C55.3005 2.49456 55.2037 2.43926 55.1114 2.43926C55.0191 2.43926 54.9224 2.38405 54.8966 2.31664C54.8707 2.24922 54.7323 2.16837 54.5892 2.13688C54.4461 2.10548 54.3073 2.02324 54.2808 1.95425C54.2543 1.88526 54.153 1.82875 54.0555 1.82875C53.958 1.82875 53.8783 1.79456 53.8783 1.75287C53.8783 1.71109 53.7017 1.62754 53.4858 1.5671C53.27 1.50666 53.0934 1.42651 53.0934 1.389C53.0934 1.3515 52.9364 1.29429 52.7445 1.26184C52.5526 1.2294 52.3956 1.17053 52.3956 1.13102C52.3956 1.09151 52.2386 1.03264 52.0468 1.00019C51.8549 0.967749 51.6979 0.905477 51.6979 0.861694C51.6979 0.817912 51.5802 0.782153 51.4363 0.782153C51.2924 0.782153 51.1746 0.749708 51.1746 0.710024C51.1746 0.63214 49.9983 0.431805 49.5465 0.432677C49.3947 0.433026 49.255 0.386976 49.2361 0.330285C49.2108 0.254582 48.4979 0.223009 46.5469 0.211061C45.0867 0.202077 43.6184 0.211148 43.284 0.231207ZM161.357 2.96238C155.988 3.5258 150.779 5.66775 144.696 9.81392C141.35 12.0944 138.994 14.0727 135.339 17.6709C132.388 20.5754 131.265 21.7724 129.499 23.8945C125.699 28.4589 122.437 33.2288 119.251 38.8794L118.184 40.7708L116.622 40.8428C115.763 40.8824 115.012 40.9302 114.951 40.9491C114.826 40.9886 114.798 42.1789 114.918 42.3683C114.962 42.4385 115.251 42.5027 115.662 42.5337C116.24 42.5775 116.356 42.6144 116.503 42.8014C116.73 43.0892 116.725 43.551 116.494 43.7667C116.29 43.9565 115.954 44.0414 115.406 44.0414C114.79 44.0414 114.755 44.0766 114.755 44.7088C114.755 45.1809 114.788 45.3028 114.959 45.4739L115.162 45.6775L118.644 45.7312C124.118 45.8157 126.67 45.8711 127.707 45.928C128.562 45.975 128.687 45.963 128.862 45.8178C129.001 45.7022 129.261 45.0509 129.759 43.5724C130.144 42.4269 130.502 41.4112 130.553 41.3152C130.642 41.1505 130.707 41.1437 131.706 41.1942C132.289 41.2237 133.707 41.2698 134.859 41.2965C136.01 41.3232 137.081 41.3653 137.24 41.3899L137.528 41.4345L137.468 43.5883C137.39 46.3886 137.221 46.1463 139.317 46.2318C140.175 46.2669 142.289 46.3233 144.016 46.3571L147.156 46.4187L147.347 46.2112C147.508 46.0367 147.862 45.1446 149.002 42.0438L149.143 41.6596L152.406 41.7115C155.154 41.7551 155.677 41.744 155.716 41.6415C155.742 41.5744 155.701 41.0372 155.626 40.4475C155.107 36.3841 155.3 32.7815 156.228 29.1577C157.046 25.9692 158.894 22.3016 161.034 19.6209C161.921 18.5101 163.705 16.7783 164.735 16.0277C166.015 15.0949 167.117 14.4571 169.876 13.0511C172.661 11.6323 172.944 11.4548 173.288 10.9126C173.619 10.3907 173.726 9.9744 173.724 9.22224C173.721 8.3329 173.574 7.72823 173.146 6.84368C172.67 5.86276 172.16 5.28033 171.245 4.67488C169.444 3.48333 167.315 2.96753 163.989 2.91686C162.934 2.90072 161.749 2.92122 161.357 2.96238ZM35.5087 23.8545C35.5672 24.0071 35.3852 24.7666 35.2901 24.7666C35.2559 24.7666 35.202 24.8844 35.1704 25.0283C35.1389 25.1722 35.0812 25.2899 35.0424 25.2899C35.0036 25.2899 34.946 25.4273 34.9145 25.5952L34.8572 25.9004L32.9643 25.9017C31.0896 25.9028 30.6788 25.9358 30.6788 26.0851C30.6788 26.1274 31.253 26.1621 31.9548 26.1621H33.2309L33.1812 26.4682C33.1539 26.6366 33.0703 26.8357 32.9953 26.9106C32.9205 26.9854 32.8592 27.1028 32.8592 27.1713C32.8592 27.2398 32.8246 27.2959 32.7824 27.2959C32.7401 27.2959 32.661 27.4725 32.6066 27.6884L32.5078 28.0808H29.5874C27.1191 28.0808 26.6668 28.0617 26.6668 27.9566C26.6668 27.7025 26.8738 26.947 26.9435 26.947C26.9832 26.947 27.0157 26.8909 27.0157 26.8224C27.0157 26.7539 27.0698 26.6438 27.1359 26.5777C27.202 26.5116 27.2842 26.3295 27.3185 26.1731C27.3529 26.0166 27.4327 25.8689 27.4957 25.8446C27.5589 25.8204 27.6344 25.7053 27.6636 25.5889C27.6928 25.4724 27.7488 25.3771 27.7878 25.3771C27.8269 25.3771 28.0279 25.221 28.2346 25.0302C28.4413 24.8394 28.6834 24.6601 28.7724 24.6319C28.8615 24.6036 28.9345 24.5439 28.9345 24.4991C28.9345 24.4544 28.9933 24.4178 29.0653 24.4178C29.1372 24.4178 29.1961 24.3785 29.1961 24.3305C29.1961 24.2826 29.2718 24.2433 29.3643 24.2433C29.4568 24.2433 29.5908 24.1851 29.662 24.1138C29.7378 24.038 30.048 23.9605 30.4096 23.9268C30.7495 23.8952 31.0277 23.8358 31.0277 23.7947C31.0277 23.7536 32.0243 23.72 33.2423 23.72C35.1575 23.72 35.464 23.7383 35.5087 23.8545ZM31.4637 28.4733C31.4637 28.5932 31.4276 28.6914 31.3834 28.6914C31.3393 28.6914 31.2773 28.8091 31.2457 28.953C31.2141 29.0969 31.1553 29.2147 31.1149 29.2147C31.0745 29.2147 31.0151 29.335 30.9827 29.4822C30.9505 29.6294 30.8688 29.7709 30.8014 29.7968C30.734 29.8226 30.6788 29.8997 30.6788 29.968C30.6788 30.0364 30.6266 30.1123 30.5628 30.1368C30.499 30.1613 30.3936 30.3171 30.3285 30.4829C30.2634 30.6488 30.1574 30.7845 30.0929 30.7845C30.0283 30.7845 29.9497 30.8521 29.918 30.9346C29.8324 31.1578 29.0038 31.8997 28.6245 32.0928C28.4832 32.1647 28.3157 32.2727 28.2523 32.3326C28.1889 32.3926 28.0417 32.4417 27.9253 32.4417C27.8088 32.4417 27.7134 32.4781 27.7134 32.5227C27.7134 32.6587 26.7616 32.8107 26.1321 32.7751C25.4503 32.7365 25.1842 32.5463 25.1842 32.0974C25.1842 31.8162 25.4093 31.4823 25.5988 31.4823C25.6616 31.4823 25.7355 31.4234 25.7631 31.3514C25.7908 31.2795 25.8519 31.2206 25.8991 31.2206C26.0052 31.2206 26.4924 30.7681 26.4924 30.6696C26.4924 30.63 26.5485 30.5416 26.617 30.4731C26.7789 30.3111 26.8755 29.5176 26.8189 28.8129L26.7741 28.2553H29.1189H31.4637V28.4733ZM30.9924 30.9601C30.9972 31.0315 31.0071 31.237 31.0144 31.4169C31.0311 31.8288 31.1643 31.8417 31.2399 31.4387C31.2714 31.2708 31.3301 31.1334 31.3703 31.1334C31.4105 31.1334 31.4639 31.0549 31.489 30.959C31.5163 30.8546 31.608 30.7845 31.7172 30.7845C31.8805 30.7845 31.9005 30.8374 31.9067 31.286C31.9105 31.5619 31.9334 31.7385 31.9576 31.6785C31.9818 31.6186 32.0565 31.5695 32.1234 31.5695C32.1905 31.5695 32.27 31.4714 32.3001 31.3514C32.3301 31.2315 32.3853 31.1334 32.4224 31.1334C32.4596 31.1334 32.5105 31.0549 32.5356 30.959C32.5814 30.7837 32.8592 30.7088 32.8592 30.8718C32.8592 30.9197 32.825 30.959 32.7833 30.959C32.7415 30.959 32.658 31.1356 32.5975 31.3514C32.5371 31.5673 32.4579 31.7439 32.4215 31.7439C32.3851 31.7439 32.3295 31.8813 32.298 32.0492C32.2457 32.3281 32.2148 32.3544 31.9395 32.3544H31.6382L31.6289 31.8529C31.6205 31.3986 31.6107 31.374 31.5249 31.5913C31.4727 31.7232 31.4015 31.8311 31.3666 31.8311C31.3317 31.8311 31.2773 31.9489 31.2457 32.0928C31.1978 32.3107 31.1457 32.3544 30.9335 32.3544H30.6788V31.5631C30.6788 30.8567 30.6952 30.7749 30.8312 30.8011C30.9151 30.8172 30.9876 30.8889 30.9924 30.9601ZM34.1795 31.039C34.3479 31.2198 34.3476 31.2206 34.1245 31.2206C34.0012 31.2206 33.8777 31.1618 33.8501 31.0898C33.7836 30.9166 33.5995 30.9242 33.3835 31.1092C33.2532 31.2208 33.2081 31.3665 33.2081 31.6761V32.0928H33.5133C33.7265 32.0928 33.8186 32.0534 33.8186 31.962C33.8186 31.8893 33.8961 31.8311 33.993 31.8311C34.2274 31.8311 34.2126 31.9525 33.9455 32.2197C33.6603 32.5048 33.363 32.5015 33.0714 32.2098C32.8753 32.0138 32.8459 31.922 32.8806 31.6142C32.9045 31.403 33.0091 31.1494 33.1303 31.0094C33.3088 30.8031 33.3873 30.7748 33.6746 30.813C33.8593 30.8374 34.0865 30.9392 34.1795 31.039ZM35.8086 30.9139C35.8334 30.9387 35.7676 30.959 35.6625 30.959C35.5198 30.959 35.4581 31.0254 35.419 31.2206C35.3902 31.3645 35.3323 31.4823 35.2903 31.4823C35.2484 31.4823 35.214 31.6164 35.214 31.7804C35.214 32.1688 35.1386 32.3544 34.9806 32.3544C34.8746 32.3544 34.8626 32.2335 34.909 31.6349C34.9398 31.2391 34.9327 30.9601 34.8933 31.0147C34.8406 31.0877 34.7931 31.0834 34.7145 30.9987C34.6284 30.9059 34.6453 30.8764 34.8018 30.8476C35.0366 30.8043 35.7456 30.851 35.8086 30.9139ZM78.447 32.4155C78.7882 32.54 78.8149 32.5736 78.8394 32.9097C78.8609 33.2029 78.901 33.2753 79.0546 33.2971C79.1797 33.3149 79.2554 33.2707 79.2787 33.1662C79.298 33.0796 79.3442 33.2517 79.3813 33.549C79.4184 33.8463 79.425 34.1278 79.3961 34.1746C79.3672 34.2215 79.2164 34.2847 79.0611 34.3151C78.9056 34.3457 78.7001 34.4026 78.6041 34.4419C78.5082 34.481 78.3199 34.5573 78.1857 34.6112C78.0516 34.6651 77.8161 34.7067 77.6624 34.7033C77.3981 34.6978 77.3936 34.6924 77.5793 34.6029C77.8004 34.4962 77.8446 34.1553 77.6611 33.9718C77.496 33.8068 76.8485 33.4882 76.678 33.4882C76.5654 33.4882 76.5437 33.5432 76.5817 33.7329C76.6225 33.9368 76.5722 34.0326 76.2803 34.3074C75.9214 34.6454 75.8747 34.8768 76.2278 34.5674C76.7021 34.1518 76.7246 34.1471 76.6209 34.4849C76.5687 34.655 76.4539 34.8717 76.3658 34.9662C76.1561 35.1914 76.1633 35.2165 76.4237 35.1667C76.5677 35.1392 76.6418 35.0671 76.6418 34.9545C76.6418 34.8608 76.6972 34.7285 76.7651 34.6607C76.8688 34.557 76.9238 34.5558 77.1119 34.6534L77.3353 34.7693L77.1412 34.8637C77.0344 34.9156 76.8881 34.9776 76.8162 35.0013C76.7442 35.025 76.8227 35.0458 76.9906 35.0474C77.1585 35.0491 77.4529 34.9939 77.6447 34.9248C78.0572 34.7762 78.1244 34.7696 78.1244 34.8776C78.1244 34.9223 78.0361 34.9758 77.9282 34.9966C77.7863 35.024 77.8105 35.0376 78.0154 35.0463C78.2355 35.0555 78.2989 35.0227 78.2989 34.8997C78.2989 34.7845 78.4265 34.7009 78.7644 34.5944C79.0205 34.5136 79.2556 34.4476 79.287 34.4476C79.4055 34.4476 79.0476 35.2001 78.8069 35.4572C78.5322 35.7506 77.8226 36.0175 77.3171 36.0175C76.7881 36.0175 75.9167 35.7543 75.6668 35.519C75.3828 35.2517 75.209 34.5962 75.2851 34.0795C75.4216 33.1526 75.6824 32.5927 75.6824 33.2266C75.6824 33.401 75.726 33.4882 75.8132 33.4882C75.8852 33.4882 75.944 33.449 75.944 33.401C75.944 33.3531 76.0343 33.3138 76.1445 33.3138C76.3224 33.3138 76.341 33.2793 76.3095 33.0086C76.2898 32.8407 76.2388 32.7033 76.1962 32.7033C76.1534 32.7033 76.1185 32.7413 76.1185 32.7878C76.1185 32.8342 76.0596 32.8496 75.9876 32.8221C75.8047 32.7519 75.8247 32.6395 76.0406 32.5239C76.1735 32.4527 76.2508 32.4519 76.3197 32.5208C76.4701 32.6712 76.6418 32.6321 76.6418 32.4474C76.6418 32.3308 76.7157 32.267 76.8816 32.2408C77.2584 32.1811 78.0456 32.269 78.447 32.4155ZM77.3079 32.398C77.2804 32.47 77.2958 32.5289 77.3422 32.5289C77.3887 32.5289 77.4267 32.47 77.4267 32.398C77.4267 32.3261 77.4113 32.2672 77.3924 32.2672C77.3736 32.2672 77.3356 32.3261 77.3079 32.398ZM76.7359 32.4925C76.74 32.5941 76.7607 32.6148 76.7885 32.5453C76.8137 32.4823 76.8106 32.407 76.7817 32.3781C76.7527 32.3491 76.7321 32.4006 76.7359 32.4925ZM76.9034 32.4635C76.9034 32.5314 76.9634 32.587 77.0367 32.587C77.1875 32.587 77.1651 32.4272 77.007 32.3744C76.95 32.3554 76.9034 32.3955 76.9034 32.4635ZM77.6011 32.6109C77.6011 32.8138 77.4597 32.9237 77.3974 32.7692C77.3732 32.709 77.3501 32.8069 77.3464 32.9868C77.3402 33.2787 77.3628 33.3138 77.556 33.3138C77.7589 33.3138 77.7718 33.2865 77.7626 32.8777C77.7572 32.6379 77.7186 32.4417 77.6769 32.4417C77.6352 32.4417 77.6011 32.5178 77.6011 32.6109ZM76.3801 32.7731C76.3801 32.8114 76.4155 32.8802 76.4589 32.9257C76.5022 32.9712 76.5565 33.0871 76.5796 33.183C76.6113 33.3149 76.624 33.2988 76.6316 33.1176C76.6372 32.9857 76.681 32.8777 76.729 32.8777C76.7769 32.8777 76.8162 32.8385 76.8162 32.7905C76.8162 32.7425 76.7181 32.7033 76.5981 32.7033C76.4782 32.7033 76.3801 32.7347 76.3801 32.7731ZM76.9034 33.0086C76.9034 33.2316 76.9414 33.3138 77.0444 33.3138C77.148 33.3138 77.1715 33.2618 77.1328 33.1176C77.1039 33.0096 77.0797 32.8723 77.0791 32.8123C77.0784 32.7524 77.0386 32.7033 76.9906 32.7033C76.9427 32.7033 76.9034 32.8407 76.9034 33.0086ZM77.8628 33.0086C77.8628 33.1764 77.902 33.3138 77.95 33.3138C77.998 33.3138 78.0372 33.2353 78.0372 33.1394C78.0372 33.0425 78.0954 32.9649 78.168 32.9649C78.24 32.9649 78.2989 32.9061 78.2989 32.8341C78.2989 32.7528 78.2165 32.7033 78.0808 32.7033C77.8898 32.7033 77.8628 32.7411 77.8628 33.0086ZM78.3861 33.0086C78.3861 33.2162 78.4263 33.3138 78.5118 33.3138C78.7038 33.3138 78.741 33.1874 78.6235 32.9342C78.4765 32.6177 78.3861 32.6459 78.3861 33.0086ZM136.838 33.8894C137.188 34.0142 137.527 34.166 137.591 34.2269C137.686 34.3166 137.696 34.7753 137.644 36.6601L137.581 38.9829H136.752H135.923L135.981 37.0423C136.038 35.1294 136.122 33.6627 136.174 33.6627C136.188 33.6627 136.487 33.7647 136.838 33.8894ZM77.0778 34.0988C77.0778 34.1467 77.0409 34.186 76.9958 34.186C76.9506 34.186 76.8895 34.1467 76.8598 34.0988C76.8301 34.0508 76.8671 34.0115 76.9419 34.0115C77.0166 34.0115 77.0778 34.0508 77.0778 34.0988ZM78.4758 34.7931C78.4053 34.8377 78.3812 34.9058 78.4224 34.9444C78.4635 34.983 78.5148 34.9653 78.5363 34.905C78.5578 34.8447 78.6113 34.8176 78.6551 34.8447C78.699 34.8718 78.7349 34.8524 78.7349 34.8016C78.7349 34.6886 78.6457 34.6856 78.4758 34.7931ZM139.771 36.3243C139.786 36.7552 139.773 37.5493 139.741 38.0889L139.682 39.0701H138.86H138.037L138.087 37.3912C138.115 36.4678 138.157 35.5511 138.18 35.3542L138.223 34.996L138.983 35.2684L139.743 35.5408L139.771 36.3243ZM79.4109 35.9904C79.327 36.0124 79.2582 36.0667 79.2582 36.1111C79.2582 36.2195 79.4956 36.2145 79.5635 36.1047C79.5932 36.0568 79.6543 36.0175 79.6995 36.0175C79.7447 36.0175 79.7815 36.0568 79.7815 36.1047C79.7815 36.1527 79.7227 36.192 79.6507 36.192C79.5788 36.192 79.5199 36.2312 79.5199 36.2792C79.5199 36.3271 79.5984 36.3664 79.6943 36.3664C79.7903 36.3664 79.8688 36.3366 79.8688 36.3002C79.8688 36.2187 80.2208 35.9916 80.2703 36.0411C80.2899 36.0607 80.2324 36.1615 80.1425 36.2652C79.9475 36.49 79.6809 36.5059 79.3827 36.3106C79.1778 36.1763 79.1564 36.1776 79.0321 36.3324C78.9062 36.4892 78.9042 36.488 78.9918 36.3067C79.1133 36.0551 79.1099 36.0371 78.9312 35.9904C78.8473 35.9685 78.9552 35.9505 79.171 35.9505C79.3869 35.9505 79.4948 35.9685 79.4109 35.9904ZM80.972 36.1453C80.8833 36.2125 80.8365 36.3094 80.8682 36.3605C80.8997 36.4117 80.884 36.4536 80.8333 36.4536C80.6841 36.4536 80.7274 36.2085 80.8936 36.1117C81.1143 35.9832 81.1602 36.0028 80.972 36.1453ZM73.7626 36.3644C73.8378 36.5051 73.8304 36.5275 73.722 36.486C73.6338 36.452 73.5892 36.4869 73.5892 36.5897C73.5892 36.6747 73.5676 36.7227 73.5413 36.6965C73.4931 36.6482 73.5815 36.192 73.6392 36.192C73.6563 36.192 73.7118 36.2696 73.7626 36.3644ZM74.0192 36.519C74.0137 36.7316 74.0045 36.739 73.9381 36.5844C73.8357 36.3462 73.8357 36.2792 73.9381 36.2792C73.986 36.2792 74.0225 36.3871 74.0192 36.519ZM74.3137 36.4477C74.2778 36.5849 74.3045 36.6071 74.4577 36.5671C74.5707 36.5375 74.6274 36.4703 74.5999 36.3986C74.5746 36.3329 74.5921 36.2792 74.6385 36.2792C74.7355 36.2792 74.746 36.3792 74.6701 36.5773C74.6387 36.6591 74.5145 36.7152 74.3648 36.7152C74.0856 36.7152 74.0718 36.6926 74.2028 36.4478C74.3184 36.2318 74.3702 36.2317 74.3137 36.4477ZM75.6547 36.47C75.6269 36.5395 75.6062 36.5188 75.6021 36.4172C75.5983 36.3253 75.6189 36.2738 75.6478 36.3028C75.6768 36.3318 75.6799 36.407 75.6547 36.47ZM75.944 36.3592C75.944 36.5125 75.8376 36.7152 75.7572 36.7152C75.7097 36.7152 75.7122 36.648 75.7635 36.5522C75.8115 36.4627 75.8258 36.3646 75.7956 36.3342C75.7653 36.3039 75.7863 36.2792 75.8422 36.2792C75.8982 36.2792 75.944 36.3152 75.944 36.3592ZM76.633 36.519L76.6244 36.7589L76.5577 36.5408L76.491 36.3228L76.3975 36.5408C76.2998 36.7685 76.2536 36.6577 76.3458 36.4171C76.4359 36.1824 76.6426 36.2557 76.633 36.519ZM75.1591 36.5844C75.1591 36.6564 75.1436 36.7152 75.1248 36.7152C75.106 36.7152 75.0679 36.6564 75.0403 36.5844C75.0127 36.5125 75.0282 36.4536 75.0746 36.4536C75.1211 36.4536 75.1591 36.5125 75.1591 36.5844ZM127.994 37.0423C127.967 37.1791 127.86 37.192 126.963 37.1662C125.763 37.1319 125.459 37.2148 125.499 37.5656L125.526 37.8055L126.595 37.83C127.465 37.8499 127.663 37.8782 127.663 37.9826C127.663 38.0885 127.474 38.1107 126.573 38.1107H125.483V38.5032V38.8957H124.835H124.187L124.158 38.0889C124.142 37.6452 124.168 37.2287 124.214 37.1634C124.377 36.9369 124.663 36.9007 126.34 36.8952C127.9 36.8901 128.023 36.901 127.994 37.0423ZM131.501 37.0713C131.501 37.2411 131.457 37.2518 130.825 37.2364C129.831 37.2119 129.794 37.2183 129.502 37.4643C129.162 37.7498 129.146 38.0858 129.458 38.379C129.659 38.5682 129.774 38.5935 130.553 38.6205C131.273 38.6454 131.419 38.6734 131.397 38.7825C131.374 38.8936 131.172 38.9122 130.114 38.9008C128.74 38.8859 128.424 38.8091 128.114 38.4147C127.734 37.9311 127.929 37.347 128.569 37.0566C128.867 36.9213 129.147 36.8932 130.214 36.8916C131.46 36.8898 131.501 36.8954 131.501 37.0713ZM134.946 37.0641C134.946 37.1711 134.769 37.1994 133.973 37.2195C133.247 37.2378 132.973 37.2766 132.894 37.3722C132.685 37.6235 132.945 37.7618 133.626 37.7624C134.719 37.7632 135.166 38.0026 135.037 38.517C134.939 38.9078 134.518 39.0017 133.013 38.9686C131.81 38.9422 131.676 38.924 131.676 38.7866C131.675 38.6501 131.78 38.634 132.668 38.634C133.443 38.634 133.684 38.6054 133.768 38.5032C133.983 38.2445 133.723 38.1111 132.995 38.1058C132.194 38.0999 131.76 37.9658 131.618 37.6801C131.48 37.4039 131.599 37.1764 131.966 37.0157C132.376 36.8353 134.946 36.877 134.946 37.0641ZM141.54 38.5032C141.629 38.791 141.703 39.0559 141.704 39.0919C141.706 39.2068 141.469 39.162 141.356 39.0265C141.296 38.9545 141.178 38.8957 141.093 38.8957C141.008 38.8957 140.916 38.9545 140.889 39.0265C140.834 39.1682 140.571 39.2091 140.571 39.0758C140.571 39.031 140.675 38.7544 140.803 38.461C141.111 37.7502 141.309 37.7616 141.54 38.5032ZM142.713 38.0613C142.954 38.2393 142.765 38.4366 142.507 38.2757C142.284 38.1359 142.054 38.2952 142.054 38.5904C142.054 38.8856 142.284 39.0449 142.507 38.9051C142.783 38.7329 142.911 38.9314 142.639 39.1096C142.22 39.3845 141.792 39.1132 141.792 38.5719C141.792 38.0316 142.295 37.7527 142.713 38.0613ZM143.802 38.0966C143.922 38.1933 143.974 38.2994 143.934 38.3639C143.884 38.4455 143.832 38.438 143.715 38.3323C143.521 38.1567 143.289 38.2418 143.221 38.5139C143.142 38.8294 143.334 39.0075 143.684 38.942C143.843 38.9121 143.973 38.9209 143.973 38.9615C143.973 39.1174 143.752 39.2445 143.481 39.2445C142.946 39.2445 142.732 38.5584 143.14 38.1504C143.396 37.8944 143.539 37.8829 143.802 38.0966ZM15.362 38.1589C15.3918 38.2365 15.3771 38.2714 15.3278 38.2409C15.2803 38.2116 15.2415 38.1507 15.2415 38.1056C15.2415 37.9801 15.304 38.0078 15.362 38.1589ZM144.75 38.0787C145.105 38.1496 145.049 38.3378 144.685 38.3004C144.48 38.2793 144.409 38.3073 144.409 38.4094C144.409 38.5039 144.49 38.5468 144.67 38.5468C144.851 38.5468 144.932 38.5896 144.932 38.6845C144.932 38.7909 144.875 38.8097 144.682 38.7673C144.504 38.7284 144.417 38.7493 144.382 38.8391C144.314 39.017 144.394 39.0701 144.729 39.0701C144.939 39.0701 145.019 39.1093 145.019 39.2118C145.019 39.3241 144.963 39.3422 144.747 39.299C144.597 39.269 144.383 39.2445 144.272 39.2445C144.052 39.2445 144.04 39.1818 144.119 38.4378C144.167 37.991 144.205 37.9696 144.75 38.0787ZM145.543 38.5904C145.543 39.0439 145.554 39.0701 145.761 39.0701C145.896 39.0701 145.979 39.1195 145.979 39.2009C145.979 39.2982 145.876 39.3317 145.58 39.3317H145.181L145.2 38.7866C145.222 38.1703 145.241 38.1107 145.417 38.1107C145.511 38.1107 145.543 38.2309 145.543 38.5904ZM146.785 38.1967C146.943 38.1975 147.025 38.2441 147.025 38.3327C147.025 38.4395 146.962 38.4556 146.72 38.4102C146.474 38.364 146.415 38.3801 146.415 38.4935C146.415 38.5966 146.498 38.634 146.727 38.634C146.94 38.634 147.028 38.669 147.001 38.743C146.98 38.8031 146.84 38.8463 146.689 38.8392C146.473 38.8291 146.415 38.8616 146.415 38.9919C146.415 39.1228 146.478 39.1573 146.72 39.1573C146.933 39.1573 147.025 39.1967 147.025 39.2881C147.025 39.4287 146.793 39.4553 146.346 39.366C146.112 39.3192 146.084 39.2817 146.105 39.039C146.118 38.8882 146.134 38.6131 146.141 38.4276C146.152 38.1227 146.172 38.0954 146.349 38.143C146.457 38.1718 146.653 38.1961 146.785 38.1967ZM148.14 38.3337C148.367 38.4931 148.386 38.6562 148.199 38.8438C148.096 38.9462 148.086 39.0199 148.155 39.1495C148.29 39.4012 148.267 39.4952 148.083 39.447C147.992 39.4235 147.876 39.3094 147.823 39.1935C147.698 38.9196 147.549 38.9236 147.549 39.2009C147.549 39.3653 147.503 39.419 147.363 39.419C147.196 39.419 147.183 39.3844 147.231 39.0919C147.261 38.9121 147.285 38.6373 147.286 38.4814C147.287 38.2118 147.303 38.1979 147.616 38.1979C147.798 38.1979 148.033 38.2591 148.14 38.3337ZM17.5091 38.4689C17.5091 38.5117 17.4503 38.5468 17.3783 38.5468C17.3064 38.5468 17.2475 38.4891 17.2475 38.4187C17.2475 38.3407 17.2986 38.3103 17.3783 38.3408C17.4503 38.3684 17.5091 38.4261 17.5091 38.4689ZM149.432 38.9175C149.625 39.4893 149.625 39.5062 149.462 39.5062C149.369 39.5062 149.293 39.4695 149.293 39.4248C149.293 39.266 148.935 39.226 148.778 39.3675C148.633 39.4988 148.421 39.5559 148.421 39.4635C148.421 39.44 148.524 39.1632 148.65 38.8484C148.838 38.3797 148.911 38.2807 149.057 38.3023C149.19 38.3222 149.283 38.4742 149.432 38.9175ZM150.427 38.416C150.427 38.4886 150.349 38.5468 150.252 38.5468C150.099 38.5468 150.078 38.605 150.078 39.0328C150.078 39.4439 150.055 39.5145 149.929 39.4903C149.808 39.4669 149.785 39.3778 149.805 39.0042C149.827 38.5917 149.811 38.5468 149.648 38.5468C149.546 38.5468 149.467 38.4902 149.467 38.416C149.467 38.3155 149.579 38.2851 149.947 38.2851C150.315 38.2851 150.427 38.3155 150.427 38.416ZM151.444 38.5095C151.629 38.6941 151.66 38.7889 151.619 39.0422C151.532 39.5763 151.084 39.7488 150.657 39.4126C150.356 39.1763 150.349 38.7906 150.641 38.4993C150.915 38.2248 151.162 38.2279 151.444 38.5095ZM11.4912 38.4502C11.4912 38.4931 11.4291 38.5519 11.3532 38.5811C11.1583 38.6559 11.1423 38.65 11.1423 38.5032C11.1423 38.4305 11.2199 38.3724 11.3168 38.3724C11.4127 38.3724 11.4912 38.4074 11.4912 38.4502ZM141.06 38.5103C140.985 38.7053 140.991 38.7212 141.138 38.7212C141.211 38.7212 141.269 38.6437 141.269 38.5468C141.269 38.3389 141.135 38.3154 141.06 38.5103ZM152.7 38.4626C152.906 38.5727 152.923 38.9438 152.728 39.0532C152.598 39.1255 152.599 39.1516 152.738 39.3628C152.884 39.5856 152.883 39.5934 152.714 39.5934C152.618 39.5934 152.476 39.4953 152.397 39.3753C152.213 39.0947 152.084 39.0973 152.084 39.3817C152.084 39.5386 152.043 39.5977 151.948 39.5779C151.874 39.5624 151.815 39.5204 151.818 39.4844C151.82 39.4483 151.822 39.1835 151.822 38.8957V38.3724H152.177C152.372 38.3724 152.607 38.413 152.7 38.4626ZM147.549 38.6401C147.549 38.7771 147.596 38.8138 147.744 38.7927C148.034 38.7513 148.059 38.4596 147.773 38.4596C147.604 38.4596 147.549 38.5043 147.549 38.6401ZM10.6826 38.5995C10.6537 38.6284 10.5784 38.6316 10.5155 38.6064C10.4459 38.5785 10.4666 38.5579 10.5682 38.5537C10.6601 38.5499 10.7116 38.5705 10.6826 38.5995ZM150.77 38.7322C150.639 38.9772 150.794 39.3317 151.032 39.3317C151.243 39.3317 151.407 39.0546 151.327 38.8365C151.205 38.5075 150.919 38.4538 150.77 38.7322ZM152.111 38.6903C152.044 38.8641 152.194 39.0021 152.375 38.9328C152.577 38.8553 152.556 38.6639 152.34 38.6073C152.228 38.5779 152.142 38.6089 152.111 38.6903ZM8.43864 38.7212C8.43864 38.7692 8.3994 38.8084 8.35143 38.8084C8.30346 38.8084 8.26421 38.7692 8.26421 38.7212C8.26421 38.6733 8.30346 38.634 8.35143 38.634C8.3994 38.634 8.43864 38.6733 8.43864 38.7212ZM148.91 38.8592C148.835 39.0541 148.841 39.0701 148.988 39.0701C149.06 39.0701 149.118 38.9926 149.118 38.8957C149.118 38.6877 148.985 38.6643 148.91 38.8592ZM7.63006 38.8611C7.6011 38.8901 7.52584 38.8932 7.46295 38.868C7.39336 38.8402 7.41403 38.8195 7.51563 38.8153C7.60756 38.8116 7.65902 38.8322 7.63006 38.8611ZM28.562 38.8611C28.533 38.8901 28.4577 38.8932 28.3949 38.868C28.3253 38.8402 28.3459 38.8195 28.4475 38.8153C28.5395 38.8116 28.5909 38.8322 28.562 38.8611ZM3.9034 39.0265C3.9034 39.0984 3.86415 39.1573 3.81618 39.1573C3.76821 39.1573 3.72896 39.0984 3.72896 39.0265C3.72896 38.9545 3.76821 38.8957 3.81618 38.8957C3.86415 38.8957 3.9034 38.9545 3.9034 39.0265ZM11.5548 38.9483C11.5258 38.9773 11.4506 38.9804 11.3877 38.9552C11.3181 38.9274 11.3388 38.9067 11.4404 38.9025C11.5323 38.8988 11.5837 38.9194 11.5548 38.9483ZM14.631 39.0265C14.631 39.0991 14.5535 39.1573 14.4566 39.1573C14.2636 39.1573 14.2202 39.0224 14.3912 38.9534C14.5809 38.8768 14.631 38.8921 14.631 39.0265ZM19.6023 39.0265C19.6023 39.0991 19.5248 39.1573 19.4279 39.1573C19.2131 39.1573 19.1971 39.0103 19.4061 38.9557C19.49 38.9339 19.5686 38.9114 19.5805 38.9058C19.5925 38.9002 19.6023 38.9545 19.6023 39.0265ZM22.4805 39.0265C22.4805 39.0991 22.4029 39.1573 22.306 39.1573C22.1323 39.1573 22.0792 39.0643 22.1898 38.9538C22.296 38.8476 22.4805 38.8937 22.4805 39.0265ZM34.2172 39.0327C34.1419 39.1081 34.0802 39.2062 34.0802 39.2507C34.0802 39.2953 34.0214 39.3317 33.9494 39.3317C33.6311 39.3317 33.9388 38.9356 34.2827 38.9025C34.3221 38.8988 34.2927 38.9573 34.2172 39.0327ZM34.8769 39.2225C34.8292 39.3118 34.8169 39.4264 34.8495 39.4773C34.8842 39.5315 35.4863 39.5963 36.3042 39.6338C37.0717 39.6689 37.7193 39.7273 37.7433 39.7637C37.7673 39.8 37.9322 39.8771 38.1098 39.935C38.3102 40.0003 38.4553 40.1127 38.4922 40.2311C38.5249 40.336 38.5822 40.4417 38.6192 40.4657C38.6563 40.4899 38.7147 40.6591 38.749 40.8418C38.8039 41.1341 38.789 41.1798 38.6262 41.2224C38.5243 41.249 38.441 41.3189 38.441 41.3775C38.441 41.4926 38.0795 41.6866 37.8649 41.6866C37.7826 41.6866 37.7576 41.6456 37.7985 41.5776C37.8491 41.4934 37.8353 41.4915 37.7382 41.5689C37.6581 41.6328 37.2145 41.6684 36.5147 41.667L35.4168 41.6648L35.4466 41.4358C35.463 41.3099 35.4504 41.2651 35.4185 41.3361C35.3202 41.5551 35.1477 41.6866 34.9586 41.6866C34.8592 41.6866 34.7826 41.6572 34.7882 41.6212C34.794 41.5851 34.794 41.487 34.7882 41.4031C34.7721 41.1645 34.6035 41.2242 34.6035 41.4685C34.6035 41.6042 34.5541 41.6866 34.4727 41.6866C34.4007 41.6866 34.3419 41.7258 34.3419 41.7738C34.3419 41.8218 34.3026 41.861 34.2547 41.861C34.2067 41.861 34.1621 41.7139 34.1556 41.5339C34.1483 41.3315 34.1293 41.2816 34.1059 41.4031C34.054 41.6725 33.5569 41.6922 33.5569 41.4249C33.5569 41.328 33.4988 41.2505 33.4261 41.2505C33.3541 41.2505 33.2953 41.1752 33.2953 41.0832C33.2953 40.9912 33.2715 40.8538 33.2423 40.778C33.2076 40.6874 33.2375 40.64 33.3296 40.64C33.4115 40.64 33.4697 40.5676 33.4697 40.4655C33.4697 40.3696 33.4207 40.2905 33.3607 40.2898C33.2856 40.2888 33.2814 40.2685 33.3473 40.2244C33.3999 40.1892 33.4693 40.0524 33.5015 39.9204C33.5466 39.7362 33.5287 39.6806 33.4244 39.6806C33.3124 39.6806 33.3083 39.6591 33.4009 39.5583C33.4974 39.4535 33.5173 39.4535 33.5415 39.5583C33.5629 39.6509 33.6584 39.6667 33.934 39.6237C34.1344 39.5924 34.3113 39.5336 34.3273 39.4929C34.3434 39.4523 34.412 39.419 34.4799 39.419C34.5526 39.419 34.6035 39.3317 34.6035 39.2073C34.6035 39.0758 34.6613 38.9838 34.7561 38.9643C34.9475 38.925 34.9888 39.0135 34.8769 39.2225ZM36.4414 39.1573C36.5818 39.1573 36.6967 39.1966 36.6967 39.2445C36.6967 39.2925 36.5397 39.3317 36.3478 39.3317C36.0677 39.3317 35.999 39.3002 35.999 39.1719C35.999 38.9604 36.122 38.8418 36.158 39.0186C36.176 39.1073 36.2782 39.1573 36.4414 39.1573ZM6.17102 39.0701C6.17102 39.1181 6.13177 39.1573 6.0838 39.1573C6.03583 39.1573 5.99659 39.1181 5.99659 39.0701C5.99659 39.0221 6.03583 38.9829 6.0838 38.9829C6.13177 38.9829 6.17102 39.0221 6.17102 39.0701ZM12.1017 39.0701C12.1017 39.1181 12.0232 39.1573 11.9273 39.1573C11.8314 39.1573 11.7529 39.1181 11.7529 39.0701C11.7529 39.0221 11.8314 38.9829 11.9273 38.9829C12.0232 38.9829 12.1017 39.0221 12.1017 39.0701ZM13.7588 39.0701C13.7588 39.1181 13.6803 39.1573 13.5844 39.1573C13.4885 39.1573 13.41 39.1181 13.41 39.0701C13.41 39.0221 13.4885 38.9829 13.5844 38.9829C13.6803 38.9829 13.7588 39.0221 13.7588 39.0701ZM15.2415 39.0701C15.2415 39.1181 15.1826 39.1573 15.1107 39.1573C15.0387 39.1573 14.9799 39.1181 14.9799 39.0701C14.9799 39.0221 15.0387 38.9829 15.1107 38.9829C15.1826 38.9829 15.2415 39.0221 15.2415 39.0701ZM20.3001 39.0701C20.3001 39.1181 20.2216 39.1573 20.1256 39.1573C20.0297 39.1573 19.9512 39.1181 19.9512 39.0701C19.9512 39.0221 20.0297 38.9829 20.1256 38.9829C20.2216 38.9829 20.3001 39.0221 20.3001 39.0701ZM21.6955 39.0701C21.6955 39.1181 21.6366 39.1573 21.5647 39.1573C21.4927 39.1573 21.4339 39.1181 21.4339 39.0701C21.4339 39.0221 21.4927 38.9829 21.5647 38.9829C21.6366 38.9829 21.6955 39.0221 21.6955 39.0701ZM28.9922 39.2663C28.968 39.3263 28.9482 39.2772 28.9482 39.1573C28.9482 39.0374 28.968 38.9884 28.9922 39.0483C29.0164 39.1083 29.0164 39.2064 28.9922 39.2663ZM35.4688 39.1791C35.465 39.2871 35.4421 39.3263 35.4179 39.2663C35.3937 39.2064 35.3183 39.1573 35.2504 39.1573C35.1824 39.1573 35.1268 39.1181 35.1268 39.0701C35.1268 39.0221 35.2053 38.9829 35.3013 38.9829C35.4261 38.9829 35.4738 39.0387 35.4688 39.1791ZM37.872 39.1573C37.9349 39.1573 38.0089 39.2162 38.0365 39.2881C38.0641 39.3601 38.1487 39.419 38.2244 39.419C38.4421 39.419 38.7913 39.8535 38.778 40.1076C38.7673 40.313 38.7625 40.316 38.7283 40.1385C38.7076 40.0306 38.654 39.9422 38.6094 39.9422C38.5648 39.9422 38.5283 39.8834 38.5283 39.8114C38.5283 39.7395 38.4722 39.6806 38.4036 39.6806C38.3352 39.6806 38.225 39.6265 38.1589 39.5604C38.0928 39.4943 37.9134 39.4127 37.7601 39.379C37.607 39.3454 37.4817 39.2997 37.4817 39.2775C37.4817 39.1842 37.7021 39.0068 37.7287 39.0787C37.7448 39.1219 37.8092 39.1573 37.872 39.1573ZM2.94402 39.2445C2.94402 39.2925 2.90477 39.3317 2.8568 39.3317C2.80883 39.3317 2.76959 39.2925 2.76959 39.2445C2.76959 39.1966 2.80883 39.1573 2.8568 39.1573C2.90477 39.1573 2.94402 39.1966 2.94402 39.2445ZM7.91534 39.2445C7.91534 39.2925 7.85647 39.3317 7.78452 39.3317C7.71257 39.3317 7.6537 39.2925 7.6537 39.2445C7.6537 39.1966 7.71257 39.1573 7.78452 39.1573C7.85647 39.1573 7.91534 39.1966 7.91534 39.2445ZM30.8066 39.4059C30.7575 39.4576 30.5916 39.3265 30.5916 39.236C30.5916 39.1889 30.6465 39.201 30.7136 39.2629C30.7807 39.3248 30.8226 39.3891 30.8066 39.4059ZM37.3944 39.2445C37.3944 39.2925 37.3159 39.3317 37.22 39.3317C37.1241 39.3317 37.0456 39.2925 37.0456 39.2445C37.0456 39.1966 37.1241 39.1573 37.22 39.1573C37.3159 39.1573 37.3944 39.1966 37.3944 39.2445ZM16.0265 39.4626C16.0265 39.5345 15.9718 39.5934 15.905 39.5934C15.8382 39.5934 15.7609 39.5345 15.7332 39.4626C15.6991 39.3736 15.7379 39.3317 15.8547 39.3317C15.9493 39.3317 16.0265 39.3906 16.0265 39.4626ZM23.4162 39.3844C23.3872 39.4134 23.312 39.4165 23.2491 39.3913C23.1795 39.3635 23.2002 39.3428 23.3018 39.3386C23.3937 39.3349 23.4452 39.3555 23.4162 39.3844ZM6.17102 39.4965C6.17102 39.5392 6.60954 39.5891 7.14557 39.6074C7.81313 39.6303 8.13138 39.6746 8.1558 39.7479C8.17542 39.8068 8.28636 39.855 8.40227 39.855C8.56894 39.855 8.61307 39.9006 8.61307 40.0731C8.61307 40.193 8.65232 40.2911 8.70029 40.2911C8.74826 40.2911 8.78751 40.35 8.78751 40.4219C8.78751 40.4939 8.74826 40.5528 8.70029 40.5528C8.65232 40.5528 8.61307 40.6116 8.61307 40.6836C8.61307 40.7555 8.65232 40.8144 8.70029 40.8144C8.74826 40.8144 8.78751 40.8733 8.78751 40.9452C8.78751 41.0172 8.72628 41.0761 8.65154 41.0761C8.57679 41.0761 8.53981 41.1153 8.56947 41.1633C8.59912 41.2112 8.54252 41.2505 8.44379 41.2505C8.34105 41.2505 8.26421 41.3074 8.26421 41.3835C8.26421 41.6254 7.84339 41.6895 6.53358 41.6467C5.83053 41.6238 4.74503 41.5947 4.12144 41.582C3.49784 41.5693 3.05627 41.5455 3.14025 41.5291C3.3869 41.481 3.31521 41.2692 3.03123 41.2069C2.7606 41.1474 2.66135 40.8728 2.87861 40.7847C2.96094 40.7514 2.95562 40.7159 2.8568 40.64C2.75799 40.5641 2.75267 40.5286 2.835 40.4953C2.895 40.471 2.94402 40.3552 2.94402 40.2381C2.94402 40.0912 3.0117 39.9995 3.16206 39.9422C3.28198 39.8966 3.3801 39.8209 3.3801 39.7739C3.3801 39.7269 3.51747 39.6627 3.68536 39.6312C3.85325 39.5998 3.99061 39.539 3.99061 39.4965C3.99061 39.4538 4.4812 39.419 5.08082 39.419C5.68043 39.419 6.17102 39.4538 6.17102 39.4965ZM8.43864 39.557C8.43864 39.711 8.25087 39.6843 8.19697 39.5226C8.17795 39.4655 8.22461 39.419 8.30058 39.419C8.37646 39.419 8.43864 39.4811 8.43864 39.557ZM12.4506 39.4993C12.4506 39.5442 13.1516 39.5922 14.0423 39.6083C15.5843 39.6361 15.6415 39.6436 15.8738 39.8489C16.0057 39.9655 16.1137 40.1169 16.1137 40.1853C16.1137 40.2645 16.1654 40.2899 16.2557 40.2553C16.3746 40.2097 16.3888 40.2454 16.343 40.4749C16.3128 40.6257 16.2881 40.8619 16.2881 40.9997C16.2881 41.1923 16.2476 41.2505 16.1137 41.2505C16.0177 41.2505 15.9392 41.3066 15.9392 41.375C15.9392 41.4549 15.767 41.5382 15.4596 41.6069C15.1957 41.666 14.9799 41.7474 14.9799 41.7877C14.9799 41.8971 14.7378 41.8763 14.7003 41.7637C14.6785 41.6984 14.1993 41.6593 13.2514 41.6451C12.0281 41.6268 11.8234 41.6431 11.7503 41.7643C11.6734 41.8917 11.6572 41.8906 11.5741 41.752C11.5116 41.6479 11.3731 41.5994 11.138 41.5994C10.8465 41.5994 10.7935 41.5713 10.7935 41.4167C10.7935 41.3075 10.7234 41.2159 10.619 41.1886C10.488 41.1543 10.4446 41.0696 10.4446 40.8478C10.4446 40.6856 10.4054 40.5528 10.3574 40.5528C10.3094 40.5528 10.2702 40.4939 10.2702 40.4219C10.2702 40.35 10.3094 40.2911 10.3574 40.2911C10.4054 40.2911 10.4446 40.2488 10.4446 40.1972C10.4446 40.0328 10.9475 39.5934 11.1356 39.5934C11.2352 39.5934 11.3168 39.5541 11.3168 39.5062C11.3168 39.457 11.5639 39.419 11.8837 39.419C12.1955 39.419 12.4506 39.4551 12.4506 39.4993ZM23.4213 39.7244C23.4555 39.7724 23.6012 39.8705 23.7451 39.9422C24.0897 40.1142 24.109 40.1482 24.067 40.508C24.0453 40.6943 23.9837 40.8144 23.91 40.8144C23.8433 40.8144 23.7887 40.8733 23.7887 40.9452C23.7887 41.0179 23.8662 41.0761 23.9631 41.0761C24.0591 41.0761 24.1376 41.1153 24.1376 41.1633C24.1376 41.2112 24.0047 41.2505 23.8425 41.2505C23.6282 41.2505 23.5358 41.2949 23.505 41.4126C23.4817 41.5018 23.3499 41.603 23.2123 41.6376C23.0746 41.6721 22.9321 41.7463 22.8956 41.8025C22.8463 41.8784 22.8098 41.8743 22.7533 41.7868C22.6948 41.6962 22.297 41.6632 21.0308 41.6442C20.1252 41.6306 19.1587 41.5908 18.8828 41.5557C18.4303 41.4983 18.3813 41.4718 18.3813 41.2841C18.3813 41.1696 18.3445 41.0761 18.2996 41.0761C18.2546 41.0761 18.2401 40.9387 18.2674 40.7708C18.307 40.5265 18.2885 40.4655 18.1747 40.4655C18.0964 40.4655 18.0324 40.4067 18.0324 40.3347C18.0324 40.2628 18.0913 40.2039 18.1633 40.2039C18.2352 40.2039 18.2941 40.1537 18.2941 40.0924C18.2941 39.976 18.5317 39.7406 18.7397 39.6511C18.9498 39.5607 23.3538 39.6296 23.4213 39.7244ZM30.4073 39.7519C30.4376 39.801 30.5752 39.8695 30.7129 39.904C30.8505 39.9386 30.9823 40.0398 31.0056 40.129C31.029 40.2182 31.0827 40.2911 31.1251 40.2911C31.1674 40.2911 31.2021 40.35 31.2021 40.4219C31.2021 40.4939 31.2708 40.5559 31.3547 40.5597C31.4459 40.5638 31.4635 40.5842 31.3983 40.6105C31.3384 40.6347 31.2893 40.7671 31.2893 40.9046C31.2893 41.042 31.2379 41.186 31.1751 41.2243C31.1123 41.2627 31.0095 41.4216 30.9465 41.5776C30.8381 41.8459 30.6788 41.9627 30.6788 41.7738C30.6788 41.7258 30.6199 41.6866 30.548 41.6866C30.476 41.6866 30.4171 41.7258 30.4171 41.7738C30.4171 41.8218 30.319 41.861 30.1991 41.861C30.0792 41.861 29.9811 41.8218 29.9811 41.7738C29.9811 41.7258 29.8829 41.6866 29.763 41.6866C29.6273 41.6866 29.545 41.736 29.545 41.8174C29.545 41.8894 29.4905 41.9482 29.4238 41.9482C29.3572 41.9482 29.3082 41.8825 29.3148 41.802C29.3252 41.6764 29.2075 41.6513 28.4766 41.6239C27.7547 41.5968 27.6262 41.6123 27.6262 41.7265C27.6262 41.8005 27.587 41.861 27.539 41.861C27.491 41.861 27.4518 41.8054 27.4518 41.7373C27.4518 41.6457 27.3323 41.6148 26.9893 41.6178C26.4265 41.6229 26.1435 41.5418 26.1435 41.3755C26.1435 41.1963 25.814 41.2208 25.7701 41.4031C25.7498 41.487 25.7506 41.4086 25.7717 41.2287C25.8051 40.943 25.787 40.9016 25.6279 40.9016C25.4407 40.9016 25.3594 40.5968 25.531 40.5382C25.5779 40.5222 25.6318 40.3914 25.6506 40.2475C25.6695 40.1036 25.6675 40.035 25.6462 40.0949C25.6249 40.1549 25.5711 40.2039 25.5267 40.2039C25.4309 40.2039 25.416 39.9452 25.5112 39.9358C25.7682 39.9103 26.0125 39.8394 26.0526 39.7787C26.0786 39.7391 26.1588 39.6814 26.2308 39.6504C26.4471 39.5572 30.3455 39.6519 30.4073 39.7519ZM24.0504 39.7678C24.0504 39.8158 23.9719 39.855 23.8759 39.855C23.78 39.855 23.7015 39.8158 23.7015 39.7678C23.7015 39.7198 23.78 39.6806 23.8759 39.6806C23.9719 39.6806 24.0504 39.7198 24.0504 39.7678ZM9.4616 39.9077C9.43265 39.9367 9.35738 39.9398 9.2945 39.9146C9.2249 39.8868 9.24557 39.8661 9.34717 39.8619C9.4391 39.8582 9.49056 39.8788 9.4616 39.9077ZM31.4637 40.0731C31.4637 40.145 31.4245 40.2039 31.3765 40.2039C31.3286 40.2039 31.2893 40.145 31.2893 40.0731C31.2893 40.0011 31.3286 39.9422 31.3765 39.9422C31.4245 39.9422 31.4637 40.0011 31.4637 40.0731ZM10.1553 40.4819C10.1275 40.5515 10.1068 40.5308 10.1026 40.4292C10.0989 40.3373 10.1195 40.2858 10.1484 40.3147C10.1774 40.3437 10.1805 40.419 10.1553 40.4819ZM38.9643 40.64C38.9643 40.7359 38.9251 40.8144 38.8771 40.8144C38.8291 40.8144 38.7899 40.7359 38.7899 40.64C38.7899 40.544 38.8291 40.4655 38.8771 40.4655C38.9251 40.4655 38.9643 40.544 38.9643 40.64ZM33.4897 41.0052C33.5436 41.1669 33.7314 41.1937 33.7314 41.0397C33.7314 40.9637 33.6693 40.9016 33.5933 40.9016C33.5173 40.9016 33.4707 40.9482 33.4897 41.0052ZM7.3112 42.5587C7.35568 42.5587 7.39205 42.6208 7.39205 42.6968C7.39205 42.9455 7.17444 42.77 7.15839 42.5084C7.14976 42.3682 7.16249 42.3222 7.18657 42.4061C7.21064 42.49 7.2668 42.5587 7.3112 42.5587ZM40.9703 42.3843C40.9703 42.4323 40.9311 42.4715 40.8831 42.4715C40.8351 42.4715 40.7959 42.4323 40.7959 42.3843C40.7959 42.3363 40.8351 42.2971 40.8831 42.2971C40.9311 42.2971 40.9703 42.3363 40.9703 42.3843ZM17.9452 42.6023C17.9452 42.6743 17.906 42.7332 17.858 42.7332C17.81 42.7332 17.7708 42.6743 17.7708 42.6023C17.7708 42.5304 17.81 42.4715 17.858 42.4715C17.906 42.4715 17.9452 42.5304 17.9452 42.6023ZM8.13042 42.8073C8.08123 42.859 7.91534 42.7279 7.91534 42.6374C7.91534 42.5903 7.97029 42.6024 8.03736 42.6644C8.10452 42.7262 8.14638 42.7906 8.13042 42.8073ZM8.61307 42.6947C8.61307 42.7695 8.57383 42.8064 8.52586 42.7768C8.47789 42.7471 8.43864 42.686 8.43864 42.6408C8.43864 42.5956 8.47789 42.5587 8.52586 42.5587C8.57383 42.5587 8.61307 42.62 8.61307 42.6947ZM9.48524 42.646C9.48524 42.6939 9.42637 42.7332 9.35441 42.7332C9.28246 42.7332 9.22359 42.6939 9.22359 42.646C9.22359 42.598 9.28246 42.5587 9.35441 42.5587C9.42637 42.5587 9.48524 42.598 9.48524 42.646ZM38.9959 42.6896C39.03 42.7785 38.9912 42.8204 38.8744 42.8204C38.7799 42.8204 38.7027 42.7615 38.7027 42.6896C38.7027 42.6176 38.7574 42.5587 38.8242 42.5587C38.891 42.5587 38.9683 42.6176 38.9959 42.6896ZM12.7758 42.7858C12.7469 42.8148 12.6716 42.8179 12.6087 42.7927C12.5391 42.7649 12.5598 42.7442 12.6614 42.7401C12.7533 42.7363 12.8048 42.7569 12.7758 42.7858ZM13.366 42.821C13.3029 42.9231 12.9739 42.9386 12.9739 42.8394C12.9739 42.8019 13.0742 42.7629 13.1967 42.7528C13.3259 42.7421 13.3971 42.7708 13.366 42.821ZM15.8302 42.7933C15.7463 42.8152 15.6089 42.8152 15.525 42.7933C15.4411 42.7714 15.5097 42.7534 15.6776 42.7534C15.8455 42.7534 15.9141 42.7714 15.8302 42.7933ZM19.1008 42.7909C19.0409 42.8152 18.9428 42.8152 18.8828 42.7909C18.8229 42.7667 18.8719 42.747 18.9918 42.747C19.1117 42.747 19.1608 42.7667 19.1008 42.7909ZM35.815 42.7717C35.7563 42.8306 34.6982 42.8569 34.6422 42.801C34.6172 42.7759 34.8803 42.7496 35.227 42.7424C35.5737 42.7353 35.8383 42.7485 35.815 42.7717ZM36.3713 42.7904C36.3123 42.8143 36.1945 42.8158 36.1097 42.7936C36.0248 42.7715 36.0731 42.7519 36.217 42.7502C36.3609 42.7484 36.4304 42.7665 36.3713 42.7904ZM37.1546 42.7909C37.0947 42.8152 36.9966 42.8152 36.9366 42.7909C36.8766 42.7667 36.9257 42.747 37.0456 42.747C37.1655 42.747 37.2146 42.7667 37.1546 42.7909ZM11.5548 42.8731C11.5258 42.902 11.4506 42.9052 11.3877 42.88C11.3181 42.8521 11.3388 42.8315 11.4404 42.8273C11.5323 42.8235 11.5837 42.8441 11.5548 42.8731ZM38.0268 42.8781C37.9668 42.9024 37.8687 42.9024 37.8087 42.8781C37.7488 42.854 37.7978 42.8342 37.9177 42.8342C38.0377 42.8342 38.0868 42.854 38.0268 42.8781ZM3.03123 42.9948C3.03123 43.0428 3.10973 43.082 3.20567 43.082C3.3016 43.082 3.3801 43.0428 3.3801 42.9948C3.3801 42.9468 3.3016 42.9076 3.20567 42.9076C3.10973 42.9076 3.03123 42.9468 3.03123 42.9948ZM23.091 42.9948C23.091 43.0428 23.1695 43.082 23.2654 43.082C23.3613 43.082 23.4398 43.0428 23.4398 42.9948C23.4398 42.9468 23.3613 42.9076 23.2654 42.9076C23.1695 42.9076 23.091 42.9468 23.091 42.9948ZM40.0981 42.9948C40.0981 43.0428 40.1374 43.082 40.1854 43.082C40.2333 43.082 40.2726 43.0428 40.2726 42.9948C40.2726 42.9468 40.2333 42.9076 40.1854 42.9076C40.1374 42.9076 40.0981 42.9468 40.0981 42.9948ZM63.415 43.2166C63.3865 43.2907 63.3446 43.3325 63.3217 43.3097C63.2989 43.2868 63.306 43.2262 63.3377 43.1751C63.4237 43.0359 63.4739 43.0629 63.415 43.2166Z" fill="#333333"/>
<rect x="24.207" y="22.0015" width="13.7802" height="11.8614" fill="#333333"/>
</g>
<defs>
<clipPath id="clip0_1620_20325">
<rect width="57.7372" height="46.3118" fill="white" transform="translate(0.398438 0.110107)"/>
</clipPath>
</defs>
</svg>
