<svg width="62" height="47" viewBox="0 0 62 47" fill="none" xmlns="http://www.w3.org/2000/svg">
<g clip-path="url(#clip0_1620_20328)">
<path fill-rule="evenodd" clip-rule="evenodd" d="M-7.99043 0.174168C-8.36808 0.210101 -8.70168 0.277345 -8.73177 0.32357C-8.76195 0.369794 -8.99699 0.434945 -9.25411 0.468349C-9.68644 0.524516 -10.3491 0.668074 -11.0978 0.867799C-11.9195 1.08697 -12.729 1.3256 -12.8857 1.39476C-12.9817 1.43715 -13.433 1.59492 -13.8887 1.74546C-14.3444 1.89599 -14.8366 2.07243 -14.9826 2.13749C-15.1284 2.20256 -15.4738 2.32536 -15.7499 2.41039C-16.026 2.49543 -16.3269 2.6348 -16.4185 2.72019C-16.5102 2.80548 -16.6162 2.87665 -16.6542 2.87831C-16.6922 2.87996 -16.8802 2.95706 -17.0721 3.04978C-17.264 3.14249 -17.47 3.21959 -17.53 3.22124C-17.5899 3.2229 -17.639 3.26346 -17.639 3.31142C-17.639 3.35939 -17.6979 3.39864 -17.7698 3.39864C-17.8418 3.39864 -17.9006 3.44024 -17.9006 3.491C-17.9006 3.54176 -17.9402 3.55894 -17.9886 3.52903C-18.0983 3.46126 -18.3508 3.70198 -18.2671 3.7946C-18.2335 3.83193 -18.272 3.83882 -18.3529 3.80995C-18.4337 3.781 -18.5122 3.79138 -18.5273 3.83306C-18.5424 3.87475 -18.6135 3.92159 -18.6852 3.9372C-18.757 3.95281 -18.8679 4.02442 -18.9316 4.09637C-19.0197 4.19597 -19.032 4.19763 -18.983 4.10326C-18.942 4.0245 -18.9998 4.04038 -19.1419 4.14687C-19.2648 4.23906 -19.3519 4.33665 -19.3354 4.36386C-19.319 4.39099 -19.431 4.48474 -19.5843 4.57213C-20.0993 4.86579 -20.8221 5.35019 -20.8514 5.42136C-20.8675 5.46008 -20.9361 5.49183 -21.0041 5.49183C-21.072 5.49183 -21.1276 5.53108 -21.1276 5.57905C-21.1276 5.62702 -21.1865 5.66626 -21.2585 5.66626C-21.3304 5.66626 -21.3893 5.69984 -21.3893 5.74083C-21.3893 5.78182 -21.5659 5.92704 -21.7818 6.06345C-21.9976 6.19994 -22.1742 6.34297 -22.1742 6.38135C-22.1742 6.41981 -22.2165 6.45121 -22.2682 6.45121C-22.3198 6.45121 -22.4799 6.56895 -22.6238 6.71286C-22.7677 6.85676 -22.9118 6.97512 -22.9441 6.9759C-22.9764 6.97669 -23.1258 7.08457 -23.2761 7.21575C-23.8987 7.75876 -24.0104 7.84667 -24.0776 7.84667C-24.1164 7.84667 -24.3457 8.03314 -24.587 8.26095C-24.8284 8.48884 -25.2739 8.89108 -25.5772 9.15491C-25.8804 9.41874 -26.3671 9.86215 -26.6588 10.1402C-26.9505 10.4183 -27.3363 10.7784 -27.5162 10.9406C-27.6961 11.1027 -27.8438 11.2676 -27.8445 11.3071C-27.8451 11.3467 -28.0777 11.6066 -28.3611 11.8848C-28.878 12.392 -29.2309 12.7837 -29.7184 13.3912C-29.8624 13.5705 -30.0902 13.8386 -30.2249 13.9871C-30.3596 14.1356 -30.5558 14.3684 -30.661 14.5044C-30.7662 14.6405 -30.8919 14.7975 -30.9404 14.8533C-31.0966 15.033 -31.8967 15.9957 -31.9659 16.0872C-32.0027 16.136 -32.1152 16.2739 -32.2158 16.3939C-32.3164 16.5138 -32.4628 16.71 -32.5412 16.8299C-32.7056 17.0813 -32.8895 17.3189 -33.0763 17.5211C-33.1482 17.5991 -33.3641 17.8967 -33.556 18.1825C-33.953 18.7739 -33.9617 18.7862 -34.233 19.1412C-34.5671 19.5783 -35.0822 20.3976 -35.0822 20.4917C-35.0822 20.5404 -35.1125 20.5802 -35.1495 20.5802C-35.1865 20.5802 -35.3132 20.7569 -35.4311 20.9727C-35.549 21.1886 -35.6698 21.3652 -35.6995 21.3652C-35.7292 21.3652 -35.8243 21.5222 -35.9108 21.7141C-35.9973 21.9059 -36.1014 22.0629 -36.1421 22.0629C-36.1827 22.0629 -36.2161 22.1057 -36.2161 22.158C-36.2161 22.311 -37.2962 24.0685 -37.3928 24.0726C-37.4411 24.0747 -37.6684 24.3986 -37.8978 24.7922C-38.2647 25.4218 -38.5222 25.833 -39.007 26.5631C-39.0789 26.6714 -39.3121 27.0474 -39.5252 27.3985C-39.7383 27.7496 -39.9835 28.113 -40.0703 28.2061C-40.157 28.2992 -40.228 28.4076 -40.228 28.4471C-40.228 28.4865 -40.358 28.7047 -40.5169 28.9321C-40.6758 29.1594 -40.8323 29.4164 -40.8649 29.503C-40.8974 29.5896 -41.1795 30.048 -41.4918 30.5216C-41.8041 30.9952 -42.0595 31.4019 -42.0595 31.4255C-42.0595 31.4807 -43.0345 32.9073 -43.1115 32.965C-43.1436 32.9889 -43.1999 33.1048 -43.2367 33.2225C-43.2735 33.3402 -43.3475 33.4861 -43.4011 33.5466C-43.5971 33.7678 -43.6828 33.8876 -43.8893 34.2296C-44.0051 34.4215 -44.1227 34.5981 -44.1504 34.6221C-44.1781 34.646 -44.3372 34.8409 -44.5039 35.055C-44.6705 35.2692 -44.8952 35.5398 -45.0031 35.6564C-45.111 35.7731 -45.1993 35.8964 -45.1993 35.9303C-45.1993 35.9642 -45.2877 36.0899 -45.3956 36.2096C-45.6572 36.4996 -45.8787 36.7672 -46.2459 37.2373C-46.4138 37.4521 -46.6101 37.6923 -46.682 37.7709C-46.754 37.8496 -46.9502 38.0811 -47.1181 38.2853C-47.7537 39.0586 -47.9603 39.288 -48.4263 39.7389C-48.6902 39.9941 -48.9688 40.2031 -49.0457 40.2034C-49.9365 40.2065 -50.6127 41.5594 -50.3476 42.8084C-50.2434 43.2996 -49.8261 43.9542 -49.6171 43.9542C-49.5789 43.9542 -49.4919 44.0099 -49.4239 44.078C-49.3558 44.1461 -49.0348 44.2304 -48.7106 44.2654C-48.3864 44.3004 -44.0786 44.3039 -39.1378 44.2733C-34.197 44.2428 -27.6721 44.2173 -24.6381 44.2168C-19.7932 44.2159 -19.1217 44.1999 -19.1217 44.085C-19.1217 44.0131 -19.0922 43.953 -19.0563 43.9515C-19.0203 43.95 -18.7357 43.7089 -18.4239 43.4156C-17.2752 42.3354 -16.8703 42.1904 -14.8045 42.1204C-13.941 42.0912 -13.1659 42.0362 -13.0819 41.9984C-12.9601 41.9434 -12.9293 41.8191 -12.9293 41.3829C-12.9293 41.0823 -12.9044 40.7113 -12.8738 40.5586C-12.8268 40.324 -12.8472 40.2735 -13.0046 40.2322C-13.1072 40.2055 -13.191 40.1321 -13.191 40.0692C-13.191 39.8862 -13.6031 39.6127 -13.9736 39.5501C-14.2915 39.4965 -14.3169 39.4703 -14.3417 39.1723C-14.3659 38.8827 -14.3951 38.8494 -14.6463 38.8251C-14.9108 38.7995 -14.9254 38.8142 -14.9515 39.1304L-14.9789 39.4626L-15.5676 39.4884C-16.1557 39.5141 -16.1563 39.5144 -16.1563 39.7718C-16.1563 40.0046 -16.1836 40.0294 -16.4398 40.0282C-16.5956 40.0274 -16.7657 39.998 -16.8177 39.9627C-16.9946 39.8426 -18.1312 37.8959 -18.6628 36.8025C-19.2536 35.5871 -19.3805 35.2976 -19.5995 34.6657C-19.6826 34.4258 -19.7831 34.1511 -19.8229 34.0552C-20.0865 33.4183 -20.544 31.5264 -20.7086 30.3921C-20.8577 29.3635 -20.859 25.8382 -20.7106 24.8538C-20.4613 23.2003 -19.9555 21.3927 -19.3195 19.8825C-19.0512 19.2455 -18.1221 17.3956 -18.0564 17.3678C-18.0187 17.3518 -17.9879 17.2962 -17.9879 17.2442C-17.9879 17.0096 -15.9783 14.1179 -15.5745 13.7714C-15.4868 13.6961 -15.1991 13.383 -14.9353 13.0755C-13.6421 11.5687 -12.0543 9.98041 -10.9705 9.10991C-10.7326 8.91882 -10.4748 8.70357 -10.3974 8.63162C-10.1842 8.43311 -9.60952 7.9877 -9.4507 7.89769C-9.37325 7.85382 -9.29022 7.79303 -9.26624 7.76251C-9.0713 7.51446 -6.03688 5.46567 -5.2979 5.08305C-5.10602 4.98371 -4.69715 4.77012 -4.38928 4.60842C-3.64253 4.21612 -2.68114 3.27287 -2.55651 2.81019C-2.41191 2.27311 -2.52303 1.94727 -3.02164 1.44639C-3.46915 0.996879 -4.41666 0.433288 -4.72498 0.433288C-4.8162 0.433288 -4.90629 0.387063 -4.92513 0.330547C-4.99394 0.124106 -6.60247 0.0420355 -7.99043 0.174168ZM-68.6145 0.231207C-68.9489 0.251267 -69.2433 0.297579 -69.2686 0.334123C-69.294 0.370666 -69.8052 0.451865 -70.4048 0.514573C-71.0044 0.577194 -71.5081 0.663015 -71.5241 0.705315C-71.5401 0.747615 -71.648 0.782153 -71.7639 0.782153C-71.8799 0.782153 -71.9747 0.817562 -71.9747 0.860822C-71.9747 0.904081 -72.22 0.967662 -72.5198 1.00211C-72.8196 1.03656 -73.0875 1.10032 -73.1151 1.14384C-73.1427 1.18727 -73.3684 1.24693 -73.6166 1.27632C-73.8648 1.30571 -74.0679 1.35813 -74.0679 1.39293C-74.0679 1.42764 -74.3034 1.50605 -74.5912 1.5671C-74.879 1.62815 -75.1145 1.70961 -75.1145 1.74807C-75.1145 1.78662 -75.2911 1.84453 -75.507 1.87689C-75.7228 1.90925 -75.8995 1.96611 -75.8995 2.00318C-75.8995 2.04025 -76.0172 2.09467 -76.1611 2.12415C-76.305 2.15354 -76.5405 2.20168 -76.6844 2.23108C-76.8283 2.26056 -76.9461 2.31507 -76.9461 2.35222C-76.9461 2.38946 -77.0834 2.44563 -77.2513 2.47711C-77.4192 2.5086 -77.5566 2.56791 -77.5566 2.60898C-77.5566 2.64998 -77.7528 2.73056 -77.9926 2.78813C-78.2403 2.84752 -78.4287 2.94206 -78.4287 3.00678C-78.4287 3.07062 -78.6208 3.17013 -78.8648 3.23267C-79.1047 3.29407 -79.3009 3.37448 -79.3009 3.4112C-79.3009 3.44792 -79.4383 3.50374 -79.6061 3.53522C-79.774 3.56671 -79.9114 3.62575 -79.9114 3.66648C-79.9114 3.70721 -80.0684 3.78754 -80.2603 3.84501C-80.4521 3.90249 -80.6091 3.97837 -80.6091 4.01351C-80.6091 4.04866 -80.7073 4.10213 -80.8272 4.13222C-80.9471 4.16231 -81.0452 4.22179 -81.0452 4.26444C-81.0452 4.307 -81.2415 4.39221 -81.4813 4.4537C-81.7211 4.5151 -81.9174 4.59725 -81.9174 4.63615C-81.9174 4.67505 -81.9775 4.70688 -82.0509 4.70688C-82.1244 4.70688 -82.2057 4.76218 -82.2317 4.82986C-82.2576 4.89745 -82.3741 4.97673 -82.4906 5.00595C-82.6071 5.03517 -82.7023 5.09761 -82.7023 5.14462C-82.7023 5.19172 -82.7612 5.23018 -82.8331 5.23018C-82.9051 5.23018 -82.964 5.2669 -82.964 5.31173C-82.964 5.35664 -83.1013 5.44299 -83.2692 5.50369C-83.4371 5.56439 -83.5745 5.64542 -83.5745 5.68379C-83.5745 5.72208 -83.6542 5.75348 -83.7516 5.75348C-83.8491 5.75348 -83.95 5.80877 -83.976 5.87645C-84.0019 5.94405 -84.1112 6.02149 -84.2188 6.04853C-84.3265 6.07548 -84.5062 6.17718 -84.6184 6.27442C-84.7305 6.37167 -84.8751 6.45121 -84.9397 6.45121C-85.0043 6.45121 -85.0572 6.49142 -85.0572 6.54061C-85.0572 6.58971 -85.1524 6.6662 -85.2688 6.71042C-85.5495 6.81717 -85.8421 7.07315 -85.8421 7.21191C-85.8421 7.27322 -85.9015 7.32337 -85.9742 7.32337C-86.1285 7.32337 -86.4156 7.47827 -86.6609 7.69404C-86.7563 7.77803 -86.8816 7.84667 -86.9395 7.84667C-86.9972 7.84667 -87.0671 7.90554 -87.0947 7.97749C-87.1223 8.04945 -87.1867 8.10832 -87.2377 8.10832C-87.2889 8.10832 -87.4458 8.22606 -87.5864 8.36997C-87.7271 8.51387 -87.9004 8.63162 -87.9717 8.63162C-88.0428 8.63162 -88.1324 8.68473 -88.1708 8.74971C-88.2092 8.81468 -88.3301 8.91481 -88.4396 8.97228C-88.549 9.02976 -88.9156 9.34949 -89.2543 9.68275C-89.5928 10.016 -89.8996 10.2887 -89.9359 10.2887C-89.9721 10.2887 -90.0838 10.3599 -90.1841 10.4468C-90.2843 10.5337 -90.4694 10.6809 -90.5953 10.7738C-90.9969 11.0701 -91.3058 11.3744 -91.3619 11.5289C-91.3919 11.6114 -91.5113 11.7028 -91.6271 11.7318C-91.7429 11.7609 -91.8886 11.8798 -91.9508 11.9961C-92.013 12.1123 -92.1121 12.2075 -92.1709 12.2075C-92.2297 12.2075 -92.3702 12.308 -92.4832 12.431C-92.5961 12.554 -92.9142 12.8811 -93.1901 13.158C-93.4659 13.4348 -93.6916 13.7004 -93.6916 13.7482C-93.6916 13.796 -93.7799 13.8828 -93.8878 13.9412C-93.9958 13.9994 -94.2018 14.1832 -94.3457 14.3495C-94.4896 14.5157 -94.833 14.8905 -95.1088 15.1823C-95.3847 15.474 -95.6103 15.7513 -95.6103 15.7984C-95.6103 15.9198 -96.2601 16.5683 -96.3817 16.5683C-96.4371 16.5683 -96.4825 16.6191 -96.4825 16.6812C-96.4825 16.7432 -96.6379 16.969 -96.8278 17.1826C-97.0177 17.3964 -97.2336 17.64 -97.3075 17.7239C-97.3814 17.8078 -97.442 17.9256 -97.442 17.9856C-97.442 18.0852 -97.5563 18.2415 -98.0526 18.8215C-98.1484 18.9335 -98.2268 19.0611 -98.2268 19.105C-98.2268 19.1488 -98.2831 19.1848 -98.3518 19.1848C-98.4205 19.1848 -98.5026 19.2664 -98.5343 19.3662C-98.5659 19.466 -98.7007 19.6523 -98.8337 19.7805C-98.9666 19.9085 -99.103 20.1016 -99.1367 20.2096C-99.1704 20.3175 -99.2345 20.4058 -99.2793 20.4058C-99.324 20.4058 -99.3606 20.4643 -99.3606 20.5359C-99.3606 20.6075 -99.4391 20.715 -99.5351 20.7749C-99.631 20.8348 -99.7095 20.9273 -99.7095 20.9804C-99.7095 21.0334 -99.789 21.1686 -99.8863 21.2807C-99.9835 21.3928 -100.085 21.5704 -100.111 21.6753C-100.137 21.7803 -100.254 21.917 -100.37 21.9793C-100.487 22.0415 -100.582 22.1601 -100.582 22.2428C-100.582 22.3254 -100.641 22.4157 -100.712 22.4434C-100.784 22.4709 -100.843 22.5536 -100.843 22.6271C-100.843 22.7006 -100.878 22.7606 -100.92 22.7606C-100.962 22.7606 -101.045 22.8784 -101.105 23.0223C-101.165 23.1662 -101.248 23.2839 -101.29 23.2839C-101.332 23.2839 -101.367 23.3409 -101.367 23.4104C-101.367 23.48 -101.416 23.5683 -101.476 23.6066C-101.536 23.645 -101.644 23.7942 -101.716 23.9381C-101.788 24.082 -101.895 24.2516 -101.955 24.3149C-102.015 24.3783 -102.064 24.4863 -102.064 24.5548C-102.064 24.6233 -102.106 24.6794 -102.156 24.6794C-102.207 24.6794 -102.289 24.7971 -102.339 24.9411C-102.389 25.085 -102.481 25.2027 -102.542 25.2027C-102.603 25.2027 -102.705 25.3303 -102.768 25.4862C-102.831 25.6421 -102.934 25.801 -102.997 25.8394C-103.06 25.8778 -103.111 25.966 -103.111 26.0356C-103.111 26.1051 -103.15 26.1621 -103.198 26.1621C-103.246 26.1621 -103.285 26.2215 -103.285 26.2941C-103.285 26.4611 -103.47 26.7946 -103.612 26.886C-103.672 26.9244 -103.721 27.0084 -103.721 27.0729C-103.721 27.1373 -103.777 27.2112 -103.844 27.237C-103.911 27.2629 -103.992 27.4013 -104.024 27.5444C-104.055 27.6875 -104.137 27.8263 -104.206 27.8528C-104.275 27.8793 -104.332 27.961 -104.332 28.0345C-104.332 28.108 -104.371 28.1681 -104.419 28.1681C-104.467 28.1681 -104.506 28.2227 -104.506 28.2895C-104.506 28.3564 -104.565 28.4336 -104.637 28.4613C-104.709 28.4888 -104.768 28.587 -104.768 28.6793C-104.768 28.7716 -104.823 28.8683 -104.891 28.8941C-104.958 28.92 -105.04 29.0616 -105.072 29.2087C-105.104 29.3559 -105.167 29.4763 -105.211 29.4763C-105.255 29.4763 -105.291 29.5364 -105.291 29.6098C-105.291 29.6834 -105.348 29.7651 -105.417 29.7916C-105.486 29.8181 -105.568 29.9569 -105.599 30.1C-105.631 30.2431 -105.712 30.3814 -105.779 30.4073C-105.847 30.4331 -105.902 30.5226 -105.902 30.6061C-105.902 30.6896 -105.98 30.8484 -106.076 30.959C-106.172 31.0696 -106.251 31.2069 -106.251 31.2642C-106.251 31.3215 -106.329 31.4589 -106.425 31.5695C-106.521 31.6801 -106.6 31.8235 -106.6 31.8881C-106.6 31.9527 -106.655 32.0056 -106.724 32.0056C-106.792 32.0056 -106.893 32.1429 -106.948 32.3108C-107.004 32.4787 -107.085 32.6161 -107.128 32.6161C-107.172 32.6161 -107.251 32.79 -107.305 33.0026C-107.358 33.2153 -107.457 33.4102 -107.524 33.436C-107.591 33.4617 -107.646 33.5428 -107.646 33.6164C-107.646 33.6898 -107.682 33.7499 -107.727 33.7499C-107.771 33.7499 -107.832 33.8644 -107.863 34.0044C-107.893 34.1444 -107.995 34.3465 -108.088 34.4538C-108.181 34.561 -108.257 34.7016 -108.257 34.7662C-108.257 34.8309 -108.291 34.8837 -108.333 34.8837C-108.374 34.8837 -108.457 35.0568 -108.516 35.2684C-108.585 35.5152 -108.683 35.6686 -108.789 35.6963C-108.88 35.7201 -108.954 35.8021 -108.954 35.8785C-108.954 35.955 -108.987 36.0175 -109.028 36.0175C-109.068 36.0175 -109.148 36.1745 -109.206 36.3664C-109.263 36.5583 -109.348 36.7152 -109.394 36.7152C-109.44 36.7152 -109.478 36.7753 -109.478 36.8488C-109.478 36.9223 -109.532 37.0032 -109.599 37.0288C-109.665 37.0543 -109.741 37.1812 -109.767 37.3108C-109.874 37.8451 -110.187 38.0038 -111.165 38.0184L-111.5 38.0235L-111.47 38.8803C-111.44 39.745 -111.327 40.0499 -111.069 39.9638C-110.846 39.8895 -110.949 40.463 -111.2 40.6963C-111.42 40.9007 -111.44 40.9719 -111.44 41.5675C-111.44 41.969 -111.401 42.2403 -111.338 42.2794C-111.282 42.314 -111.209 42.45 -111.176 42.5814C-111.143 42.7128 -111.084 42.8204 -111.044 42.8204C-111.005 42.8204 -110.911 42.882 -110.836 42.9574C-110.76 43.0328 -110.699 43.0525 -110.699 43.001C-110.699 42.9459 -110.502 42.9076 -110.219 42.9076C-109.955 42.9076 -109.739 42.9468 -109.739 42.9948C-109.739 43.0428 -109.563 43.082 -109.347 43.082C-108.981 43.082 -108.816 42.9682 -109.062 42.8862C-109.122 42.8664 -109.022 42.8446 -108.841 42.8378C-108.622 42.8296 -108.494 42.8687 -108.462 42.9537C-108.435 43.0243 -108.319 43.082 -108.204 43.082C-107.962 43.082 -107.922 42.939 -108.148 42.8813C-108.232 42.8599 -108.084 42.863 -107.821 42.8883C-107.557 42.9135 -107.312 42.9773 -107.277 43.03C-107.233 43.096 -107.212 43.0918 -107.211 43.0166C-107.211 42.9567 -107.135 42.9076 -107.043 42.9076C-106.951 42.9076 -106.861 42.8639 -106.843 42.8104C-106.826 42.757 -106.734 42.7332 -106.64 42.7576C-106.479 42.7991 -106.481 42.8058 -106.665 42.865C-106.773 42.8996 -106.861 42.9626 -106.861 43.005C-106.861 43.1073 -106.535 43.1045 -106.498 43.0019C-106.482 42.9578 -106.292 42.9039 -106.076 42.8823C-105.86 42.8607 -105.615 42.814 -105.531 42.7787C-105.447 42.7434 -105.379 42.751 -105.379 42.7955C-105.379 42.8401 -104.918 42.8825 -104.355 42.8896C-103.743 42.8975 -103.319 42.9388 -103.301 42.9924C-103.284 43.0417 -103.211 43.082 -103.138 43.082C-103.065 43.082 -103.024 43.0315 -103.048 42.9699C-103.074 42.903 -103.025 42.8578 -102.927 42.8578C-102.836 42.8578 -102.762 42.9082 -102.762 42.9699C-102.762 43.114 -102.444 43.1166 -102.377 42.973C-102.336 42.8858 -102.316 42.8858 -102.275 42.973C-102.209 43.1138 -102.005 43.1138 -101.947 42.973C-101.914 42.8905 -101.882 42.8952 -101.814 42.9923C-101.704 43.1505 -101.605 43.0703 -101.677 42.882C-101.71 42.7973 -101.785 42.7653 -101.872 42.7988C-101.999 42.8473 -102 42.8375 -101.887 42.7133C-101.77 42.5851 -101.752 42.5873 -101.68 42.7403C-101.637 42.8323 -101.549 42.9076 -101.484 42.9076C-101.419 42.9076 -101.367 42.9468 -101.367 42.9948C-101.367 43.0428 -101.308 43.082 -101.236 43.082C-101.164 43.082 -101.105 43.0428 -101.105 42.9948C-101.105 42.9468 -101.026 42.9076 -100.931 42.9076C-100.835 42.9076 -100.756 42.9468 -100.756 42.9948C-100.756 43.0428 -100.619 43.082 -100.451 43.082C-100.219 43.082 -100.145 43.0451 -100.143 42.9294C-100.14 42.784 -100.135 42.784 -100.024 42.9294C-99.8981 43.0955 -99.7095 43.1346 -99.7095 42.9948C-99.7095 42.9468 -99.5918 42.9076 -99.4478 42.9076C-99.3039 42.9076 -99.1862 42.9468 -99.1862 42.9948C-99.1862 43.044 -98.9391 43.082 -98.6193 43.082C-98.1106 43.082 -98.0524 43.0642 -98.0524 42.9076C-98.0524 42.8117 -98.0131 42.7332 -97.9652 42.7332C-97.9172 42.7332 -97.878 42.7626 -97.8779 42.7986C-97.8779 42.8346 -97.7784 42.8698 -97.6569 42.8767C-97.4772 42.8871 -97.4457 42.8586 -97.4884 42.7241C-97.5246 42.6098 -97.4986 42.5587 -97.4041 42.5587C-97.3104 42.5587 -97.2674 42.641 -97.2674 42.8204C-97.2674 43.0294 -97.2299 43.082 -97.0814 43.082C-96.9791 43.082 -96.8221 42.9975 -96.7325 42.8943C-96.643 42.791 -96.5697 42.7517 -96.5697 42.807C-96.5697 42.8663 -96.4262 42.9076 -96.2208 42.9076C-96.029 42.9076 -95.872 42.8684 -95.872 42.8204C-95.872 42.6598 -95.6228 42.731 -95.5667 42.9076C-95.5042 43.1046 -95.3851 43.1361 -95.3192 42.973C-95.2841 42.8858 -95.2739 42.8858 -95.2684 42.973C-95.2584 43.1306 -95.082 43.1069 -94.9438 42.9294C-94.8306 42.784 -94.8275 42.784 -94.8782 42.9294C-94.9224 43.0564 -94.8784 43.082 -94.6167 43.082C-94.3851 43.082 -94.3021 43.0448 -94.3021 42.941C-94.3021 42.843 -94.3552 42.8139 -94.4765 42.8457C-94.5725 42.8707 -94.651 42.8557 -94.651 42.8122C-94.651 42.7688 -94.5939 42.7332 -94.5242 42.7332C-94.344 42.7332 -93.9532 42.9218 -93.9532 43.0089C-93.9532 43.0491 -93.8747 43.082 -93.7788 43.082C-93.6829 43.082 -93.6044 43.0428 -93.6044 42.9948C-93.6044 42.8693 -93.3655 42.8872 -93.3132 43.0166C-93.2781 43.1038 -93.2679 43.1038 -93.2624 43.0166C-93.2543 42.8882 -92.9938 42.867 -92.9938 42.9948C-92.9938 43.1203 -92.755 43.1024 -92.7027 42.973C-92.6676 42.8858 -92.6574 42.8858 -92.6519 42.973C-92.6438 43.1015 -92.3833 43.1227 -92.3833 42.9948C-92.3833 42.8686 -92.0571 42.8875 -92.005 43.0166C-91.9801 43.0784 -91.9581 43.0553 -91.9541 42.9636C-91.9485 42.8312 -91.9034 42.8125 -91.7083 42.8615C-91.5768 42.8944 -91.4401 42.9673 -91.4043 43.0235C-91.3561 43.0995 -91.3391 43.0977 -91.338 43.0166C-91.3373 42.9567 -91.2616 42.9076 -91.1695 42.9076C-91.0776 42.9076 -90.9795 42.9567 -90.9515 43.0166C-90.9109 43.1038 -90.8904 43.1038 -90.8498 43.0166C-90.8218 42.9567 -90.7237 42.9076 -90.6318 42.9076C-90.5398 42.9076 -90.464 42.9567 -90.4633 43.0166C-90.4622 43.1018 -90.4471 43.1024 -90.3941 43.019C-90.2962 42.8649 -88.183 42.822 -88.132 42.973C-88.0844 43.114 -87.8756 43.114 -87.8186 42.973C-87.7835 42.8858 -87.7733 42.8858 -87.7678 42.973C-87.7596 43.1015 -87.412 43.1228 -87.412 42.9948C-87.412 42.9468 -87.3531 42.9076 -87.2812 42.9076C-87.2092 42.9076 -87.1497 42.9567 -87.149 43.0166C-87.1481 43.0905 -87.1179 43.0835 -87.0552 42.9948C-86.9855 42.8964 -86.9517 42.8909 -86.9184 42.973C-86.8939 43.0335 -86.7255 43.082 -86.5398 43.082C-86.354 43.082 -86.186 43.0336 -86.1615 42.973C-86.1263 42.8858 -86.1161 42.8858 -86.1107 42.973C-86.106 43.0459 -85.9475 43.082 -85.6313 43.082C-85.335 43.082 -85.1425 43.0414 -85.1149 42.973C-85.0798 42.8858 -85.0696 42.8858 -85.0641 42.973C-85.0552 43.112 -83.7787 43.1277 -83.7325 42.9893C-83.7155 42.9383 -83.6043 42.8841 -83.4854 42.8688C-83.3666 42.8534 -83.2045 42.814 -83.1254 42.7811C-83.0463 42.7482 -82.9585 42.7588 -82.9301 42.8046C-82.9018 42.8504 -82.9427 42.8825 -83.0209 42.8759C-83.0992 42.8694 -83.1805 42.9131 -83.2017 42.973C-83.2269 43.0445 -83.1502 43.082 -82.9785 43.082C-82.8346 43.082 -82.6971 43.033 -82.6728 42.973C-82.6377 42.8858 -82.6275 42.8858 -82.622 42.973C-82.6137 43.1042 -81.9174 43.1257 -81.9174 42.9948C-81.9174 42.9468 -81.8585 42.9076 -81.7866 42.9076C-81.7146 42.9076 -81.6557 42.9468 -81.6557 42.9948C-81.6557 43.0492 -81.147 43.082 -80.3039 43.082C-79.4608 43.082 -78.952 43.0492 -78.952 42.9948C-78.952 42.9468 -78.8179 42.9076 -78.654 42.9076C-78.4901 42.9076 -78.3331 42.8586 -78.3051 42.7986C-78.2645 42.7114 -78.2441 42.7114 -78.2034 42.7986C-78.1705 42.8692 -77.9553 42.9076 -77.5929 42.9076C-77.204 42.9076 -77.0328 42.9408 -77.032 43.0166C-77.031 43.0905 -77.0008 43.0835 -76.9381 42.9948C-76.8684 42.8964 -76.8346 42.8909 -76.8014 42.973C-76.7467 43.1077 -75.9273 43.1219 -75.883 42.9891C-75.8421 42.8664 -74.2988 42.8691 -74.2579 42.9919C-74.2116 43.1306 -73.4574 43.1065 -73.4574 42.9663C-73.4574 42.8874 -73.3743 42.8628 -73.1958 42.889C-73.0518 42.9101 -72.9341 42.9622 -72.9341 43.0047C-72.9341 43.1384 -72.2597 43.0941 -72.207 42.9569C-72.146 42.798 -71.6266 42.8043 -71.565 42.9647C-71.5106 43.1066 -70.1432 43.1356 -70.1432 42.9948C-70.1432 42.9468 -70.0454 42.9076 -69.9258 42.9076C-69.803 42.9076 -69.6612 42.8318 -69.5997 42.7332C-69.5397 42.6372 -69.4413 42.5587 -69.3808 42.5587C-69.3135 42.5587 -69.271 42.4407 -69.271 42.2535C-69.271 42.0529 -69.3121 41.9482 -69.3907 41.9482C-69.4629 41.9482 -69.5325 41.8098 -69.5662 41.5994C-69.6204 41.26 -69.6314 41.2505 -69.9698 41.2505C-70.2208 41.2505 -70.3176 41.2869 -70.3176 41.3813C-70.3176 41.573 -70.4641 41.541 -70.5173 41.3377C-70.5446 41.2333 -70.6363 41.1633 -70.7455 41.1633C-70.87 41.1633 -70.9281 41.1077 -70.9281 40.9888C-70.9281 40.8919 -70.9863 40.8144 -71.059 40.8144C-71.1993 40.8144 -71.2214 40.6455 -71.1367 40.2219C-71.0982 40.0295 -71.0204 39.9405 -70.8541 39.8988C-70.7279 39.8672 -70.5954 39.7953 -70.5596 39.7391C-70.5114 39.6632 -70.4944 39.6649 -70.4934 39.746C-70.4916 39.8877 -70.2581 39.8877 -70.2009 39.746C-70.1658 39.6588 -70.1556 39.6588 -70.1501 39.746C-70.1399 39.9071 -69.6488 39.882 -69.5856 39.7171C-69.5565 39.6412 -69.5327 39.4449 -69.5327 39.281C-69.5327 39.0741 -69.4926 38.9829 -69.4018 38.9829C-69.3205 38.9829 -69.271 38.9005 -69.271 38.7648C-69.271 38.6432 -69.3215 38.5468 -69.3854 38.5468C-69.4496 38.5468 -69.5487 38.3554 -69.6114 38.1107C-69.6729 37.8709 -69.7554 37.6746 -69.7948 37.6746C-69.834 37.6746 -69.8927 37.5176 -69.9251 37.3258C-69.9576 37.1339 -70.0136 36.9769 -70.0497 36.9769C-70.0858 36.9769 -70.1671 36.761 -70.2304 36.4972C-70.2937 36.2334 -70.3722 36.0175 -70.4049 36.0175C-70.4375 36.0175 -70.5126 35.8017 -70.5717 35.5378C-70.6307 35.274 -70.7099 35.0581 -70.7478 35.0581C-70.7856 35.0581 -70.841 34.8523 -70.8707 34.6008C-70.9006 34.3492 -70.9625 34.1309 -71.0083 34.1157C-71.0542 34.1003 -71.1388 33.7959 -71.1963 33.4392C-71.2608 33.0395 -71.3422 32.7905 -71.4085 32.7905C-71.4752 32.7905 -71.5384 32.5937 -71.5747 32.2732C-71.6068 31.9888 -71.6659 31.7435 -71.7058 31.7281C-71.8325 31.6796 -71.9747 29.5393 -71.9747 27.6833C-71.9747 25.9249 -71.8523 24.2442 -71.7177 24.1568C-71.6802 24.1325 -71.6217 23.8869 -71.5877 23.611C-71.5477 23.285 -71.4858 23.1095 -71.411 23.1095C-71.3391 23.1095 -71.2537 22.897 -71.1832 22.5426C-71.1212 22.2308 -71.0403 21.9757 -71.0033 21.9757C-70.9663 21.9757 -70.9103 21.8383 -70.8788 21.6704C-70.8473 21.5026 -70.7937 21.3652 -70.7597 21.3652C-70.7258 21.3652 -70.645 21.1706 -70.5802 20.9328C-70.5155 20.6949 -70.4103 20.4803 -70.3465 20.4558C-70.2826 20.4314 -70.2304 20.318 -70.2304 20.2038C-70.2304 20.0897 -70.1519 19.9059 -70.056 19.7953C-69.96 19.6847 -69.8815 19.5413 -69.8815 19.4767C-69.8815 19.4121 -69.8471 19.3592 -69.8049 19.3592C-69.7627 19.3592 -69.6795 19.2415 -69.6199 19.0976C-69.5603 18.9537 -69.4574 18.8359 -69.3913 18.8359C-69.3251 18.8359 -69.271 18.779 -69.271 18.7095C-69.271 18.6399 -69.2219 18.5516 -69.1618 18.5132C-69.1018 18.4748 -68.9939 18.3257 -68.9222 18.1818C-68.8504 18.0379 -68.7425 17.8888 -68.6825 17.8504C-68.6224 17.812 -68.5733 17.7437 -68.5733 17.6985C-68.5733 17.6534 -68.4555 17.5039 -68.3116 17.3663C-68.1677 17.2289 -68.05 17.081 -68.05 17.0379C-68.05 16.9948 -67.8539 16.7832 -67.6143 16.5677C-67.1363 16.1376 -66.9612 15.9639 -66.3184 15.2819C-66.0811 15.0301 -65.8578 14.824 -65.8222 14.824C-65.7867 14.824 -65.6451 14.7062 -65.5076 14.5623C-65.3701 14.4184 -65.2248 14.3007 -65.1847 14.3007C-65.1446 14.3007 -64.9978 14.2026 -64.8584 14.0827C-64.7189 13.9629 -64.5558 13.8648 -64.4959 13.8647C-64.4359 13.8647 -64.3869 13.8023 -64.3869 13.7262C-64.3869 13.65 -64.2717 13.5443 -64.1309 13.4911C-63.9901 13.438 -63.8301 13.3109 -63.7754 13.2086C-63.7207 13.1063 -63.5317 12.971 -63.3555 12.9077C-63.1792 12.8445 -62.9562 12.7102 -62.8599 12.6092C-62.7636 12.5082 -62.5674 12.3667 -62.4238 12.2949C-62.2803 12.223 -62.1315 12.115 -62.0931 12.055C-62.0547 11.9949 -61.9665 11.9458 -61.8969 11.9458C-61.8274 11.9458 -61.7704 11.9139 -61.7704 11.8749C-61.7704 11.8359 -61.6331 11.75 -61.4652 11.6842C-61.2973 11.6183 -61.1599 11.5171 -61.1599 11.4593C-61.1599 11.4015 -61.069 11.3314 -60.9579 11.3036C-60.8469 11.2757 -60.6643 11.1733 -60.5521 11.076C-60.44 10.9788 -60.2954 10.8992 -60.2308 10.8992C-60.1662 10.8992 -60.1133 10.8648 -60.1133 10.8226C-60.1133 10.7804 -59.9858 10.6938 -59.8299 10.6301C-59.6739 10.5663 -59.4987 10.4732 -59.4404 10.4232C-59.3821 10.3732 -59.2818 10.2888 -59.2174 10.2356C-59.1532 10.1825 -58.9555 10.0911 -58.7784 10.0327C-58.6012 9.97413 -58.4562 9.89084 -58.4562 9.8475C-58.4562 9.80424 -58.3595 9.74449 -58.2413 9.71484C-58.1231 9.6851 -58.0027 9.58628 -57.9737 9.49514C-57.9449 9.40392 -57.8637 9.32935 -57.7934 9.32935C-57.7232 9.32935 -57.6458 9.27719 -57.6213 9.21335C-57.5968 9.14959 -57.441 9.04415 -57.2751 8.97908C-57.1092 8.91393 -56.9735 8.82881 -56.9735 8.78974C-56.9735 8.75075 -56.8938 8.71883 -56.7964 8.71883C-56.6989 8.71883 -56.598 8.66354 -56.5721 8.59603C-56.5462 8.52844 -56.4128 8.42674 -56.2758 8.36997C-56.1388 8.31319 -56.0054 8.2115 -55.9795 8.1439C-55.9536 8.0764 -55.894 8.0211 -55.847 8.0211C-55.7232 8.0211 -55.3164 7.6268 -55.3164 7.50688C-55.3164 7.45088 -55.2614 7.38399 -55.1941 7.35817C-55.1269 7.33244 -55.0467 7.17667 -55.0158 7.0121C-54.9849 6.84752 -54.9079 6.71286 -54.8447 6.71286C-54.7739 6.71286 -54.7083 6.557 -54.6742 6.30817C-54.5608 5.48084 -54.6413 4.70688 -54.8407 4.70688C-54.9028 4.70688 -54.9796 4.58914 -55.0112 4.44524C-55.0427 4.30133 -55.0952 4.18359 -55.1276 4.18359C-55.16 4.18359 -55.2431 4.05599 -55.3121 3.90013C-55.381 3.74428 -55.5672 3.49432 -55.7258 3.34474C-55.8844 3.19517 -56.0141 3.03312 -56.0141 2.98462C-56.0141 2.93613 -56.1291 2.84892 -56.2695 2.79074C-56.41 2.73257 -56.5462 2.62965 -56.5721 2.56206C-56.598 2.49456 -56.6947 2.43926 -56.7871 2.43926C-56.8793 2.43926 -56.9761 2.38405 -57.0019 2.31664C-57.0278 2.24922 -57.1661 2.16837 -57.3092 2.13688C-57.4523 2.10548 -57.5911 2.02324 -57.6176 1.95425C-57.6441 1.88526 -57.7455 1.82875 -57.843 1.82875C-57.9404 1.82875 -58.0201 1.79456 -58.0201 1.75287C-58.0201 1.71109 -58.1967 1.62754 -58.4126 1.5671C-58.6285 1.50666 -58.8051 1.42651 -58.8051 1.389C-58.8051 1.3515 -58.9621 1.29429 -59.1539 1.26184C-59.3458 1.2294 -59.5028 1.17053 -59.5028 1.13102C-59.5028 1.09151 -59.6598 1.03264 -59.8517 1.00019C-60.0435 0.967749 -60.2005 0.905477 -60.2005 0.861694C-60.2005 0.817912 -60.3183 0.782153 -60.4622 0.782153C-60.6061 0.782153 -60.7238 0.749708 -60.7238 0.710024C-60.7238 0.63214 -61.9001 0.431805 -62.3519 0.432677C-62.5037 0.433026 -62.6435 0.386976 -62.6624 0.330285C-62.6876 0.254582 -63.4006 0.223009 -65.3515 0.211061C-66.8117 0.202077 -68.2801 0.211148 -68.6145 0.231207ZM49.4586 2.96238C44.0891 3.5258 38.8805 5.66775 32.7977 9.81392C29.452 12.0944 27.096 14.0727 23.4406 17.6709C20.49 20.5754 19.3667 21.7724 17.6001 23.8945C13.8002 28.4589 10.5383 33.2288 7.35229 38.8794L6.28591 40.7708L4.72395 40.8428C3.86495 40.8824 3.11307 40.9302 3.05306 40.9491C2.92756 40.9886 2.89938 42.1789 3.01949 42.3683C3.06405 42.4385 3.35247 42.5027 3.76326 42.5337C4.34185 42.5775 4.45785 42.6144 4.60498 42.8014C4.83131 43.0892 4.82661 43.551 4.59513 43.7667C4.39122 43.9566 4.05535 44.0414 3.5072 44.0414C2.89111 44.0414 2.85683 44.0766 2.85683 44.7088C2.85683 45.1809 2.88927 45.3028 3.06039 45.4739L3.26403 45.6775L6.74527 45.7312C12.22 45.8157 14.772 45.8711 15.8084 45.928C16.6639 45.975 16.789 45.963 16.9635 45.8178C17.1023 45.7022 17.3624 45.0509 17.8603 43.5724C18.246 42.4269 18.6036 41.4112 18.655 41.3152C18.7431 41.1505 18.8084 41.1437 19.8076 41.1942C20.3904 41.2237 21.8089 41.2698 22.9602 41.2965C24.1114 41.3232 25.183 41.3653 25.3414 41.3899L25.6294 41.4345L25.5696 43.5883C25.4919 46.3886 25.3224 46.1463 27.4182 46.2318C28.2762 46.2669 30.391 46.3233 32.1179 46.3571L35.2577 46.4187L35.4487 46.2112C35.6092 46.0367 35.9635 45.1446 37.1035 42.0438L37.2447 41.6596L40.5077 41.7115C43.2557 41.7551 43.7781 41.744 43.8175 41.6415C43.8432 41.5744 43.8027 41.0372 43.7275 40.4475C43.209 36.3841 43.4012 32.7815 44.33 29.1577C45.1472 25.9692 46.9955 22.3016 49.136 19.6209C50.023 18.5101 51.8064 16.7783 52.8364 16.0277C54.1164 15.0949 55.2182 14.4571 57.9775 13.0511C60.7621 11.6323 61.0453 11.4548 61.3892 10.9126C61.7202 10.3907 61.8276 9.9744 61.8252 9.22224C61.8224 8.3329 61.6754 7.72823 61.2471 6.84368C60.772 5.86276 60.2616 5.28033 59.3465 4.67488C57.5456 3.48333 55.4168 2.96753 52.0904 2.91686C51.0351 2.90072 49.8508 2.92122 49.4586 2.96238ZM-76.3898 23.8545C-76.3313 24.0071 -76.5132 24.7666 -76.6083 24.7666C-76.6425 24.7666 -76.6964 24.8844 -76.728 25.0283C-76.7596 25.1722 -76.8172 25.2899 -76.856 25.2899C-76.8949 25.2899 -76.9524 25.4273 -76.9839 25.5952L-77.0412 25.9004L-78.9342 25.9017C-80.8089 25.9028 -81.2196 25.9358 -81.2196 26.0851C-81.2196 26.1274 -80.6454 26.1621 -79.9436 26.1621H-78.6675L-78.7172 26.4682C-78.7445 26.6366 -78.8282 26.8357 -78.9031 26.9106C-78.9779 26.9854 -79.0392 27.1028 -79.0392 27.1713C-79.0392 27.2398 -79.0739 27.2959 -79.1161 27.2959C-79.1584 27.2959 -79.2374 27.4725 -79.2918 27.6884L-79.3906 28.0808H-82.3111C-84.7794 28.0808 -85.2316 28.0617 -85.2316 27.9566C-85.2316 27.7025 -85.0246 26.947 -84.9549 26.947C-84.9153 26.947 -84.8827 26.8909 -84.8827 26.8224C-84.8827 26.7539 -84.8287 26.6438 -84.7625 26.5777C-84.6964 26.5116 -84.6143 26.3295 -84.5799 26.1731C-84.5456 26.0166 -84.4658 25.8689 -84.4027 25.8446C-84.3396 25.8204 -84.264 25.7053 -84.2348 25.5889C-84.2056 25.4724 -84.1497 25.3771 -84.1106 25.3771C-84.0715 25.3771 -83.8705 25.221 -83.6638 25.0302C-83.4571 24.8394 -83.2151 24.6601 -83.126 24.6319C-83.0369 24.6036 -82.964 24.5439 -82.964 24.4991C-82.964 24.4544 -82.9051 24.4178 -82.8331 24.4178C-82.7612 24.4178 -82.7023 24.3785 -82.7023 24.3305C-82.7023 24.2826 -82.6266 24.2433 -82.5341 24.2433C-82.4416 24.2433 -82.3077 24.1851 -82.2364 24.1138C-82.1606 24.038 -81.8504 23.9605 -81.4888 23.9268C-81.1489 23.8952 -80.8708 23.8358 -80.8708 23.7947C-80.8708 23.7536 -79.8742 23.72 -78.6561 23.72C-76.7409 23.72 -76.4344 23.7383 -76.3898 23.8545ZM-80.4347 28.4733C-80.4347 28.5932 -80.4708 28.6914 -80.515 28.6914C-80.5592 28.6914 -80.6212 28.8091 -80.6527 28.953C-80.6843 29.0969 -80.7432 29.2147 -80.7836 29.2147C-80.8239 29.2147 -80.8833 29.335 -80.9157 29.4822C-80.948 29.6294 -81.0296 29.7709 -81.097 29.7968C-81.1644 29.8226 -81.2196 29.8997 -81.2196 29.968C-81.2196 30.0364 -81.2718 30.1123 -81.3356 30.1368C-81.3994 30.1613 -81.5048 30.3171 -81.5699 30.4829C-81.6351 30.6488 -81.741 30.7845 -81.8056 30.7845C-81.8701 30.7845 -81.9488 30.8521 -81.9804 30.9346C-82.0661 31.1578 -82.8946 31.8997 -83.2739 32.0928C-83.4152 32.1647 -83.5828 32.2727 -83.6461 32.3326C-83.7095 32.3926 -83.8567 32.4417 -83.9732 32.4417C-84.0897 32.4417 -84.185 32.4781 -84.185 32.5227C-84.185 32.6587 -85.1368 32.8107 -85.7663 32.7751C-86.4481 32.7365 -86.7143 32.5463 -86.7143 32.0974C-86.7143 31.8162 -86.4892 31.4823 -86.2996 31.4823C-86.2369 31.4823 -86.1629 31.4234 -86.1353 31.3514C-86.1077 31.2795 -86.0465 31.2206 -85.9994 31.2206C-85.8932 31.2206 -85.406 30.7681 -85.406 30.6696C-85.406 30.63 -85.35 30.5416 -85.2815 30.4731C-85.1195 30.3111 -85.023 29.5176 -85.0795 28.8129L-85.1243 28.2553H-82.7795H-80.4347V28.4733ZM-80.906 30.9601C-80.9012 31.0315 -80.8914 31.237 -80.884 31.4169C-80.8673 31.8288 -80.7341 31.8417 -80.6585 31.4387C-80.627 31.2708 -80.5683 31.1334 -80.5281 31.1334C-80.4879 31.1334 -80.4345 31.0549 -80.4094 30.959C-80.3821 30.8546 -80.2904 30.7845 -80.1813 30.7845C-80.0179 30.7845 -79.9979 30.8374 -79.9917 31.286C-79.988 31.5619 -79.965 31.7385 -79.9409 31.6785C-79.9166 31.6186 -79.842 31.5695 -79.775 31.5695C-79.7079 31.5695 -79.6285 31.4714 -79.5984 31.3514C-79.5683 31.2315 -79.5132 31.1334 -79.476 31.1334C-79.4389 31.1334 -79.3879 31.0549 -79.3628 30.959C-79.317 30.7837 -79.0392 30.7088 -79.0392 30.8718C-79.0392 30.9197 -79.0734 30.959 -79.1151 30.959C-79.1569 30.959 -79.2404 31.1356 -79.3009 31.3514C-79.3613 31.5673 -79.4405 31.7439 -79.477 31.7439C-79.5134 31.7439 -79.5689 31.8813 -79.6004 32.0492C-79.6527 32.3281 -79.6837 32.3544 -79.9589 32.3544H-80.2603L-80.2695 31.8529C-80.278 31.3986 -80.2877 31.374 -80.3736 31.5913C-80.4257 31.7232 -80.4969 31.8311 -80.5319 31.8311C-80.5667 31.8311 -80.6212 31.9489 -80.6527 32.0928C-80.7006 32.3107 -80.7528 32.3544 -80.9649 32.3544H-81.2196V31.5631C-81.2196 30.8567 -81.2033 30.7749 -81.0672 30.8011C-80.9833 30.8172 -80.9108 30.8889 -80.906 30.9601ZM-77.719 31.039C-77.5505 31.2198 -77.5508 31.2206 -77.7739 31.2206C-77.8972 31.2206 -78.0207 31.1618 -78.0483 31.0898C-78.1148 30.9166 -78.299 30.9242 -78.515 31.1092C-78.6453 31.2208 -78.6904 31.3665 -78.6904 31.6761V32.0928H-78.3851C-78.172 32.0928 -78.0799 32.0534 -78.0799 31.962C-78.0799 31.8893 -78.0023 31.8311 -77.9054 31.8311C-77.671 31.8311 -77.6858 31.9525 -77.953 32.2197C-78.2382 32.5048 -78.5354 32.5015 -78.827 32.2098C-79.0231 32.0138 -79.0525 31.922 -79.0178 31.6142C-78.994 31.403 -78.8893 31.1494 -78.7682 31.0094C-78.5896 30.8031 -78.5111 30.7748 -78.2239 30.813C-78.0391 30.8374 -77.8119 30.9392 -77.719 31.039ZM-76.0899 30.9139C-76.0651 30.9387 -76.1308 30.959 -76.2359 30.959C-76.3786 30.959 -76.4404 31.0254 -76.4794 31.2206C-76.5082 31.3645 -76.5661 31.4823 -76.6081 31.4823C-76.65 31.4823 -76.6844 31.6164 -76.6844 31.7804C-76.6844 32.1688 -76.7598 32.3544 -76.9178 32.3544C-77.0238 32.3544 -77.0359 32.2335 -76.9894 31.6349C-76.9586 31.2391 -76.9658 30.9601 -77.0052 31.0147C-77.0579 31.0877 -77.1053 31.0834 -77.1839 30.9987C-77.2701 30.9059 -77.2531 30.8764 -77.0967 30.8476C-76.8619 30.8043 -76.1528 30.851 -76.0899 30.9139ZM-33.4515 32.4155C-33.1102 32.54 -33.0835 32.5736 -33.059 32.9097C-33.0376 33.2029 -32.9974 33.2753 -32.8438 33.2971C-32.7188 33.3149 -32.6431 33.2707 -32.6198 33.1662C-32.6004 33.0796 -32.5542 33.2517 -32.5171 33.549C-32.4801 33.8463 -32.4734 34.1278 -32.5023 34.1746C-32.5313 34.2215 -32.6821 34.2847 -32.8374 34.3151C-32.9928 34.3457 -33.1984 34.4026 -33.2943 34.4419C-33.3903 34.481 -33.5786 34.5573 -33.7127 34.6112C-33.8468 34.6651 -34.0823 34.7067 -34.236 34.7033C-34.5003 34.6978 -34.5048 34.6924 -34.3191 34.6029C-34.098 34.4962 -34.0539 34.1553 -34.2374 33.9718C-34.4024 33.8068 -35.05 33.4882 -35.2205 33.4882C-35.3331 33.4882 -35.3547 33.5432 -35.3168 33.7329C-35.276 33.9368 -35.3262 34.0326 -35.6181 34.3074C-35.977 34.6454 -36.0237 34.8768 -35.6706 34.5674C-35.1963 34.1518 -35.1738 34.1471 -35.2775 34.4849C-35.3298 34.655 -35.4445 34.8717 -35.5326 34.9662C-35.7424 35.1914 -35.7351 35.2165 -35.4747 35.1667C-35.3307 35.1392 -35.2567 35.0671 -35.2567 34.9545C-35.2567 34.8608 -35.2012 34.7285 -35.1334 34.6607C-35.0297 34.557 -34.9746 34.5558 -34.7866 34.6534L-34.5631 34.7693L-34.7573 34.8637C-34.864 34.9156 -35.0103 34.9776 -35.0822 35.0013C-35.1542 35.025 -35.0757 35.0458 -34.9078 35.0474C-34.7399 35.0491 -34.4456 34.9939 -34.2537 34.9248C-33.8412 34.7762 -33.774 34.7696 -33.774 34.8776C-33.774 34.9223 -33.8624 34.9758 -33.9702 34.9966C-34.1121 35.024 -34.088 35.0376 -33.883 35.0463C-33.6629 35.0555 -33.5996 35.0227 -33.5996 34.8997C-33.5996 34.7845 -33.472 34.7009 -33.134 34.5944C-32.8779 34.5136 -32.6428 34.4476 -32.6114 34.4476C-32.493 34.4476 -32.8508 35.2001 -33.0915 35.4572C-33.3663 35.7506 -34.0759 36.0175 -34.5814 36.0175C-35.1103 36.0175 -35.9817 35.7543 -36.2317 35.519C-36.5156 35.2517 -36.6895 34.5962 -36.6133 34.0795C-36.4768 33.1525 -36.2161 32.5927 -36.2161 33.2266C-36.2161 33.401 -36.1724 33.4882 -36.0852 33.4882C-36.0133 33.4882 -35.9544 33.449 -35.9544 33.401C-35.9544 33.3531 -35.8641 33.3138 -35.7539 33.3138C-35.5761 33.3138 -35.5574 33.2793 -35.589 33.0086C-35.6086 32.8407 -35.6596 32.7033 -35.7023 32.7033C-35.745 32.7033 -35.78 32.7413 -35.78 32.7878C-35.78 32.8342 -35.8389 32.8496 -35.9108 32.8221C-36.0937 32.7519 -36.0737 32.6395 -35.8579 32.5239C-35.7249 32.4527 -35.6477 32.4519 -35.5788 32.5208C-35.4283 32.6712 -35.2567 32.6321 -35.2567 32.4474C-35.2567 32.3308 -35.1827 32.267 -35.0168 32.2408C-34.6401 32.1811 -33.8528 32.269 -33.4515 32.4155ZM-34.5905 32.398C-34.6181 32.47 -34.6026 32.5289 -34.5562 32.5289C-34.5098 32.5289 -34.4717 32.47 -34.4717 32.398C-34.4717 32.3261 -34.4872 32.2672 -34.506 32.2672C-34.5248 32.2672 -34.5629 32.3261 -34.5905 32.398ZM-35.1626 32.4925C-35.1584 32.5941 -35.1377 32.6148 -35.1099 32.5453C-35.0847 32.4823 -35.0878 32.407 -35.1168 32.3781C-35.1457 32.3491 -35.1663 32.4006 -35.1626 32.4925ZM-34.995 32.4635C-34.995 32.5314 -34.935 32.587 -34.8618 32.587C-34.711 32.587 -34.7333 32.4272 -34.8914 32.3744C-34.9485 32.3554 -34.995 32.3955 -34.995 32.4635ZM-34.2973 32.6109C-34.2973 32.8138 -34.4388 32.9237 -34.501 32.7692C-34.5253 32.709 -34.5483 32.8069 -34.5521 32.9868C-34.5583 33.2787 -34.5357 33.3138 -34.3425 33.3138C-34.1395 33.3138 -34.1266 33.2865 -34.1359 32.8777C-34.1413 32.6379 -34.1798 32.4417 -34.2215 32.4417C-34.2632 32.4417 -34.2973 32.5178 -34.2973 32.6109ZM-35.5183 32.7731C-35.5183 32.8114 -35.4829 32.8802 -35.4396 32.9257C-35.3962 32.9712 -35.342 33.0871 -35.3189 33.183C-35.2871 33.3149 -35.2745 33.2988 -35.2668 33.1176C-35.2612 32.9857 -35.2174 32.8777 -35.1695 32.8777C-35.1215 32.8777 -35.0822 32.8385 -35.0822 32.7905C-35.0822 32.7425 -35.1804 32.7033 -35.3003 32.7033C-35.4202 32.7033 -35.5183 32.7347 -35.5183 32.7731ZM-34.995 33.0086C-34.995 33.2316 -34.957 33.3138 -34.854 33.3138C-34.7504 33.3138 -34.7269 33.2618 -34.7657 33.1176C-34.7945 33.0096 -34.8188 32.8723 -34.8194 32.8123C-34.8201 32.7524 -34.8598 32.7033 -34.9078 32.7033C-34.9558 32.7033 -34.995 32.8407 -34.995 33.0086ZM-34.0357 33.0086C-34.0357 33.1764 -33.9964 33.3138 -33.9484 33.3138C-33.9005 33.3138 -33.8612 33.2353 -33.8612 33.1394C-33.8612 33.0425 -33.803 32.965 -33.7304 32.965C-33.6584 32.965 -33.5996 32.9061 -33.5996 32.8341C-33.5996 32.7528 -33.6819 32.7033 -33.8176 32.7033C-34.0086 32.7033 -34.0357 32.7411 -34.0357 33.0086ZM-33.5124 33.0086C-33.5124 33.2162 -33.4722 33.3138 -33.3867 33.3138C-33.1946 33.3138 -33.1575 33.1874 -33.275 32.9342C-33.4219 32.6177 -33.5124 32.6459 -33.5124 33.0086ZM24.9391 33.8894C25.2898 34.0142 25.629 34.166 25.6929 34.2269C25.7872 34.3166 25.7971 34.7753 25.7457 36.6601L25.6823 38.9829H24.8533H24.0242L24.0825 37.0423C24.14 35.1294 24.2236 33.6627 24.2752 33.6627C24.2898 33.6627 24.5885 33.7647 24.9391 33.8894ZM-34.8206 34.0988C-34.8206 34.1467 -34.8575 34.186 -34.9027 34.186C-34.9478 34.186 -35.009 34.1467 -35.0386 34.0988C-35.0683 34.0508 -35.0313 34.0115 -34.9566 34.0115C-34.8818 34.0115 -34.8206 34.0508 -34.8206 34.0988ZM-33.4226 34.7931C-33.4932 34.8377 -33.5172 34.9058 -33.4761 34.9444C-33.4349 34.983 -33.3836 34.9653 -33.3622 34.905C-33.3406 34.8447 -33.2872 34.8176 -33.2433 34.8447C-33.1994 34.8718 -33.1635 34.8524 -33.1635 34.8016C-33.1635 34.6886 -33.2527 34.6856 -33.4226 34.7931ZM27.8725 36.3243C27.888 36.7552 27.8743 37.5493 27.8421 38.0889L27.7835 39.0701H26.9612H26.1389L26.1888 37.3912C26.2163 36.4678 26.2582 35.5511 26.2818 35.3542L26.3249 34.996L27.0846 35.2684L27.8443 35.5408L27.8725 36.3243ZM-32.4876 35.9904C-32.5715 36.0124 -32.6402 36.0667 -32.6402 36.1111C-32.6402 36.2195 -32.4028 36.2145 -32.3349 36.1047C-32.3053 36.0568 -32.2441 36.0175 -32.199 36.0175C-32.1538 36.0175 -32.1169 36.0568 -32.1169 36.1047C-32.1169 36.1527 -32.1758 36.192 -32.2477 36.192C-32.3197 36.192 -32.3785 36.2312 -32.3785 36.2792C-32.3785 36.3271 -32.3 36.3664 -32.2041 36.3664C-32.1082 36.3664 -32.0297 36.3366 -32.0297 36.3002C-32.0297 36.2187 -31.6777 35.9916 -31.6281 36.0411C-31.6085 36.0607 -31.666 36.1615 -31.7559 36.2652C-31.9509 36.49 -32.2175 36.5059 -32.5157 36.3106C-32.7206 36.1763 -32.7421 36.1776 -32.8663 36.3324C-32.9922 36.4892 -32.9942 36.488 -32.9066 36.3067C-32.7851 36.0551 -32.7885 36.0371 -32.9673 35.9904C-33.0512 35.9685 -32.9433 35.9505 -32.7274 35.9505C-32.5116 35.9505 -32.4037 35.9685 -32.4876 35.9904ZM-30.9264 36.1453C-31.0152 36.2125 -31.0619 36.3094 -31.0303 36.3605C-30.9987 36.4117 -31.0144 36.4536 -31.0652 36.4536C-31.2143 36.4536 -31.171 36.2085 -31.0049 36.1117C-30.7841 35.9832 -30.7383 36.0028 -30.9264 36.1453ZM-38.1359 36.3644C-38.0606 36.5051 -38.068 36.5275 -38.1764 36.486C-38.2646 36.452 -38.3092 36.4869 -38.3092 36.5897C-38.3092 36.6747 -38.3308 36.7227 -38.3571 36.6965C-38.4054 36.6482 -38.3169 36.192 -38.2593 36.192C-38.2422 36.192 -38.1866 36.2696 -38.1359 36.3644ZM-37.8793 36.519C-37.8848 36.7316 -37.8939 36.739 -37.9604 36.5844C-38.0628 36.3462 -38.0628 36.2792 -37.9604 36.2792C-37.9124 36.2792 -37.876 36.3871 -37.8793 36.519ZM-37.5847 36.4477C-37.6206 36.5849 -37.5939 36.6071 -37.4408 36.5671C-37.3277 36.5375 -37.271 36.4703 -37.2986 36.3986C-37.3238 36.3329 -37.3064 36.2792 -37.2599 36.2792C-37.163 36.2792 -37.1524 36.3792 -37.2284 36.5773C-37.2598 36.6591 -37.384 36.7152 -37.5336 36.7152C-37.8128 36.7152 -37.8266 36.6926 -37.6957 36.4478C-37.58 36.2318 -37.5282 36.2317 -37.5847 36.4477ZM-36.2437 36.47C-36.2715 36.5395 -36.2922 36.5188 -36.2964 36.4172C-36.3001 36.3253 -36.2795 36.2738 -36.2506 36.3028C-36.2216 36.3318 -36.2185 36.407 -36.2437 36.47ZM-35.9544 36.3592C-35.9544 36.5125 -36.0608 36.7152 -36.1412 36.7152C-36.1888 36.7152 -36.1862 36.648 -36.1349 36.5522C-36.087 36.4627 -36.0726 36.3646 -36.1029 36.3342C-36.1331 36.3039 -36.1121 36.2792 -36.0562 36.2792C-36.0002 36.2792 -35.9544 36.3152 -35.9544 36.3592ZM-35.2654 36.519L-35.274 36.7589L-35.3408 36.5408L-35.4075 36.3228L-35.501 36.5408C-35.5987 36.7685 -35.6449 36.6577 -35.5526 36.4171C-35.4625 36.1824 -35.2558 36.2557 -35.2654 36.519ZM-36.7394 36.5844C-36.7394 36.6564 -36.7548 36.7152 -36.7736 36.7152C-36.7925 36.7152 -36.8305 36.6564 -36.8581 36.5844C-36.8857 36.5125 -36.8703 36.4536 -36.8239 36.4536C-36.7774 36.4536 -36.7394 36.5125 -36.7394 36.5844ZM16.0959 37.0423C16.0684 37.1791 15.9612 37.192 15.0648 37.1662C13.8642 37.1319 13.5601 37.2148 13.6005 37.5656L13.628 37.8055L14.6964 37.83C15.5669 37.8499 15.7648 37.8782 15.7648 37.9826C15.7648 38.0885 15.5754 38.1107 14.6746 38.1107H13.5844V38.5032V38.8957H12.9365H12.2886L12.2598 38.0889C12.2439 37.6452 12.2692 37.2287 12.316 37.1634C12.4781 36.9369 12.7643 36.9007 14.4411 36.8952C16.0014 36.8901 16.1243 36.901 16.0959 37.0423ZM19.6023 37.0713C19.6023 37.2411 19.5584 37.2518 18.9264 37.2364C17.9325 37.2119 17.8954 37.2183 17.6031 37.4643C17.2637 37.7498 17.2478 38.0858 17.5596 38.379C17.7608 38.5682 17.876 38.5935 18.6546 38.6205C19.3745 38.6454 19.5201 38.6734 19.4981 38.7825C19.4757 38.8937 19.2739 38.9122 18.2158 38.9008C16.8418 38.8859 16.5257 38.8091 16.2156 38.4147C15.8351 37.9311 16.0307 37.347 16.6704 37.0566C16.9684 36.9213 17.2483 36.8932 18.3159 36.8916C19.5618 36.8898 19.6023 36.8954 19.6023 37.0713ZM23.0474 37.0641C23.0474 37.1711 22.8703 37.1994 22.0746 37.2195C21.3488 37.2379 21.0748 37.2766 20.9955 37.3722C20.7869 37.6235 21.0465 37.7618 21.728 37.7624C22.8205 37.7632 23.268 38.0026 23.1389 38.517C23.0408 38.9078 22.6198 39.0017 21.1141 38.9686C19.9113 38.9422 19.778 38.924 19.7774 38.7866C19.7769 38.6501 19.882 38.634 20.7691 38.634C21.5447 38.634 21.7851 38.6054 21.87 38.5032C22.0846 38.2445 21.825 38.1111 21.0962 38.1058C20.2951 38.0999 19.8613 37.9658 19.7193 37.6801C19.5819 37.4039 19.701 37.1764 20.0671 37.0157C20.478 36.8353 23.0474 36.877 23.0474 37.0641ZM29.6413 38.5032C29.7309 38.791 29.8046 39.0559 29.8053 39.0919C29.8076 39.2068 29.5703 39.162 29.4578 39.0265C29.398 38.9545 29.2797 38.8957 29.1948 38.8957C29.1099 38.8957 29.0178 38.9545 28.9901 39.0265C28.9358 39.1682 28.6728 39.2091 28.6728 39.0758C28.6728 39.031 28.777 38.7544 28.9041 38.461C29.2124 37.7502 29.4106 37.7616 29.6413 38.5032ZM30.8148 38.0613C31.0559 38.2393 30.8666 38.4366 30.6089 38.2757C30.3851 38.1359 30.1555 38.2952 30.1555 38.5904C30.1555 38.8856 30.3851 39.0449 30.6089 38.9051C30.8846 38.7329 31.0128 38.9314 30.741 39.1096C30.3213 39.3845 29.8939 39.1132 29.8939 38.5719C29.8939 38.0316 30.3967 37.7527 30.8148 38.0613ZM31.904 38.0966C32.0235 38.1933 32.0758 38.2994 32.0359 38.3639C31.9854 38.4455 31.9334 38.438 31.8165 38.3323C31.6224 38.1567 31.3908 38.2418 31.3225 38.5139C31.2433 38.8294 31.4359 39.0075 31.7852 38.942C31.9442 38.9121 32.0743 38.9209 32.0743 38.9615C32.0743 39.1174 31.8533 39.2445 31.5821 39.2445C31.0471 39.2445 30.8337 38.5584 31.2418 38.1504C31.4977 37.8944 31.6401 37.8829 31.904 38.0966ZM-96.5364 38.1589C-96.5067 38.2365 -96.5213 38.2715 -96.5707 38.2409C-96.6181 38.2116 -96.6569 38.1507 -96.6569 38.1056C-96.6569 37.9801 -96.5944 38.0078 -96.5364 38.1589ZM32.8517 38.0787C33.2063 38.1496 33.1508 38.3378 32.7865 38.3004C32.5813 38.2793 32.5103 38.3073 32.5103 38.4094C32.5103 38.5039 32.592 38.5468 32.772 38.5468C32.9523 38.5468 33.0336 38.5896 33.0336 38.6845C33.0336 38.7909 32.9765 38.8097 32.7831 38.7673C32.6059 38.7284 32.5182 38.7493 32.4838 38.8391C32.4156 39.017 32.4952 39.0701 32.8302 39.0701C33.0404 39.0701 33.1209 39.1093 33.1209 39.2118C33.1209 39.3241 33.0641 39.3422 32.8483 39.299C32.6984 39.269 32.485 39.2445 32.374 39.2445C32.1534 39.2445 32.1415 39.1818 32.2209 38.4378C32.2685 37.991 32.3062 37.9696 32.8517 38.0787ZM33.6442 38.5904C33.6442 39.0439 33.656 39.0701 33.8622 39.0701C33.9979 39.0701 34.0802 39.1195 34.0802 39.2009C34.0802 39.2982 33.9778 39.3317 33.6816 39.3317H33.283L33.3019 38.7866C33.3234 38.1703 33.3425 38.1107 33.5185 38.1107C33.6127 38.1107 33.6442 38.2309 33.6442 38.5904ZM34.887 38.1967C35.0447 38.1975 35.1268 38.2441 35.1268 38.3327C35.1268 38.4395 35.0634 38.4556 34.8216 38.4102C34.5753 38.364 34.5163 38.3801 34.5163 38.4935C34.5163 38.5966 34.5996 38.634 34.8288 38.634C35.0412 38.634 35.1291 38.669 35.103 38.743C35.0818 38.8031 34.9416 38.8463 34.7904 38.8392C34.5748 38.8291 34.5163 38.8616 34.5163 38.9919C34.5163 39.1228 34.58 39.1573 34.8216 39.1573C35.0347 39.1573 35.1268 39.1967 35.1268 39.2881C35.1268 39.4287 34.8946 39.4553 34.4479 39.366C34.2137 39.3192 34.186 39.2817 34.2066 39.039C34.2194 38.8882 34.2354 38.6131 34.2423 38.4276C34.2535 38.1227 34.2735 38.0954 34.4509 38.143C34.5588 38.1718 34.755 38.1961 34.887 38.1967ZM36.2412 38.3337C36.4688 38.4931 36.4876 38.6562 36.3001 38.8438C36.1976 38.9462 36.1871 39.0199 36.2565 39.1495C36.3912 39.4012 36.3684 39.4952 36.1841 39.447C36.094 39.4235 35.9771 39.3094 35.9243 39.1935C35.7995 38.9196 35.6501 38.9236 35.6501 39.2009C35.6501 39.3653 35.6044 39.419 35.4643 39.419C35.298 39.419 35.2842 39.3844 35.3325 39.0919C35.3622 38.9121 35.387 38.6373 35.3875 38.4814C35.3884 38.2118 35.4046 38.1979 35.7179 38.1979C35.8991 38.1979 36.1346 38.2591 36.2412 38.3337ZM-94.3893 38.4689C-94.3893 38.5117 -94.4482 38.5468 -94.5201 38.5468C-94.5921 38.5468 -94.651 38.4891 -94.651 38.4187C-94.651 38.3407 -94.5998 38.3103 -94.5201 38.3408C-94.4482 38.3684 -94.3893 38.4261 -94.3893 38.4689ZM37.5338 38.9175C37.7262 39.4893 37.727 39.5062 37.5631 39.5062C37.4703 39.5062 37.3945 39.4695 37.3945 39.4248C37.3945 39.266 37.0362 39.226 36.8799 39.3675C36.7347 39.4988 36.5223 39.5559 36.5223 39.4635C36.5223 39.44 36.6254 39.1632 36.7514 38.8484C36.9391 38.3797 37.0128 38.2807 37.1581 38.3023C37.2917 38.3222 37.3845 38.4742 37.5338 38.9175ZM38.5283 38.416C38.5283 38.4886 38.4507 38.5468 38.3538 38.5468C38.2003 38.5468 38.1794 38.605 38.1794 39.0328C38.1794 39.4439 38.1565 39.5145 38.0308 39.4903C37.9094 39.4669 37.8866 39.3778 37.9064 39.0042C37.9283 38.5917 37.913 38.5468 37.7498 38.5468C37.6471 38.5468 37.5689 38.4902 37.5689 38.416C37.5689 38.3155 37.6804 38.2851 38.0486 38.2851C38.4168 38.2851 38.5283 38.3155 38.5283 38.416ZM39.5456 38.5095C39.7301 38.6941 39.7612 38.7889 39.7201 39.0422C39.6334 39.5763 39.1855 39.7488 38.7581 39.4126C38.4576 39.1763 38.451 38.7906 38.7424 38.4993C39.0168 38.2248 39.2639 38.2279 39.5456 38.5095ZM-100.407 38.4502C-100.407 38.4931 -100.469 38.5519 -100.545 38.5811C-100.74 38.6559 -100.756 38.65 -100.756 38.5032C-100.756 38.4305 -100.679 38.3724 -100.582 38.3724C-100.486 38.3724 -100.407 38.4074 -100.407 38.4502ZM29.1619 38.5103C29.087 38.7053 29.093 38.7212 29.2397 38.7212C29.3124 38.7212 29.3706 38.6437 29.3706 38.5468C29.3706 38.3389 29.2366 38.3154 29.1619 38.5103ZM40.8017 38.4626C41.0073 38.5727 41.0247 38.9438 40.8292 39.0532C40.7 39.1255 40.7009 39.1516 40.8392 39.3628C40.9853 39.5856 40.9845 39.5934 40.8159 39.5934C40.72 39.5934 40.5773 39.4953 40.4987 39.3753C40.3148 39.0947 40.1854 39.0973 40.1854 39.3817C40.1854 39.5386 40.1446 39.5977 40.0499 39.5779C39.9754 39.5624 39.9166 39.5204 39.9191 39.4844C39.9216 39.4483 39.9237 39.1835 39.9237 38.8957V38.3724H40.2784C40.4734 38.3724 40.7089 38.413 40.8017 38.4626ZM35.6501 38.6401C35.6501 38.7771 35.6971 38.8138 35.8455 38.7927C36.1354 38.7513 36.1609 38.4596 35.8745 38.4596C35.7058 38.4596 35.6501 38.5043 35.6501 38.6401ZM-101.216 38.5995C-101.245 38.6284 -101.32 38.6316 -101.383 38.6064C-101.453 38.5785 -101.432 38.5579 -101.33 38.5537C-101.238 38.5499 -101.187 38.5705 -101.216 38.5995ZM38.8712 38.7322C38.7401 38.9772 38.8954 39.3317 39.1338 39.3317C39.3441 39.3317 39.5089 39.0546 39.4283 38.8365C39.3067 38.5075 39.0203 38.4538 38.8712 38.7322ZM40.2121 38.6903C40.1454 38.8641 40.2955 39.0021 40.4761 38.9328C40.6782 38.8553 40.658 38.6639 40.4417 38.6073C40.3291 38.5779 40.2433 38.6089 40.2121 38.6903ZM-103.46 38.7212C-103.46 38.7692 -103.499 38.8084 -103.547 38.8084C-103.595 38.8084 -103.634 38.7692 -103.634 38.7212C-103.634 38.6733 -103.595 38.634 -103.547 38.634C-103.499 38.634 -103.46 38.6733 -103.46 38.7212ZM37.0113 38.8592C36.9365 39.0541 36.9424 39.0701 37.0892 39.0701C37.1618 39.0701 37.22 38.9925 37.22 38.8957C37.22 38.6877 37.0861 38.6643 37.0113 38.8592ZM-104.268 38.8611C-104.297 38.8901 -104.373 38.8932 -104.435 38.868C-104.505 38.8402 -104.484 38.8195 -104.383 38.8153C-104.291 38.8116 -104.239 38.8322 -104.268 38.8611ZM-83.3365 38.8611C-83.3654 38.8901 -83.4407 38.8932 -83.5036 38.868C-83.5732 38.8402 -83.5525 38.8195 -83.4509 38.8153C-83.359 38.8116 -83.3075 38.8322 -83.3365 38.8611ZM-107.995 39.0265C-107.995 39.0984 -108.034 39.1573 -108.082 39.1573C-108.13 39.1573 -108.169 39.0984 -108.169 39.0265C-108.169 38.9545 -108.13 38.8957 -108.082 38.8957C-108.034 38.8957 -107.995 38.9545 -107.995 39.0265ZM-100.344 38.9483C-100.373 38.9773 -100.448 38.9804 -100.511 38.9552C-100.58 38.9274 -100.56 38.9067 -100.458 38.9025C-100.366 38.8988 -100.315 38.9194 -100.344 38.9483ZM-97.2674 39.0265C-97.2674 39.0991 -97.345 39.1573 -97.4419 39.1573C-97.6349 39.1573 -97.6782 39.0224 -97.5073 38.9534C-97.3175 38.8768 -97.2674 38.8921 -97.2674 39.0265ZM-92.2961 39.0265C-92.2961 39.0991 -92.3736 39.1573 -92.4705 39.1573C-92.6854 39.1573 -92.7013 39.0103 -92.4924 38.9557C-92.4084 38.9339 -92.3299 38.9114 -92.3179 38.9058C-92.306 38.9002 -92.2961 38.9545 -92.2961 39.0265ZM-89.418 39.0265C-89.418 39.0991 -89.4955 39.1573 -89.5924 39.1573C-89.7661 39.1573 -89.8193 39.0643 -89.7087 38.9538C-89.6024 38.8476 -89.418 38.8937 -89.418 39.0265ZM-77.6812 39.0327C-77.7566 39.1081 -77.8182 39.2062 -77.8182 39.2507C-77.8182 39.2953 -77.8771 39.3317 -77.949 39.3317C-78.2673 39.3317 -77.9597 38.9356 -77.6158 38.9025C-77.5764 38.8988 -77.6058 38.9573 -77.6812 39.0327ZM-77.0215 39.2225C-77.0693 39.3118 -77.0816 39.4264 -77.049 39.4773C-77.0143 39.5315 -76.4121 39.5963 -75.5942 39.6338C-74.8267 39.6689 -74.1791 39.7273 -74.1551 39.7637C-74.1311 39.8 -73.9662 39.8771 -73.7886 39.935C-73.5882 40.0003 -73.4432 40.1127 -73.4062 40.2311C-73.3735 40.336 -73.3163 40.4417 -73.2792 40.4657C-73.2421 40.4899 -73.1837 40.6591 -73.1494 40.8418C-73.0946 41.1341 -73.1094 41.1798 -73.2722 41.2224C-73.3741 41.249 -73.4574 41.3189 -73.4574 41.3775C-73.4574 41.4926 -73.8189 41.6866 -74.0336 41.6866C-74.1158 41.6866 -74.1408 41.6456 -74.0999 41.5776C-74.0493 41.4934 -74.0631 41.4915 -74.1602 41.5689C-74.2403 41.6329 -74.6839 41.6684 -75.3837 41.667L-76.4816 41.6648L-76.4518 41.4358C-76.4354 41.3099 -76.448 41.2651 -76.48 41.3361C-76.5783 41.555 -76.7508 41.6866 -76.9399 41.6866C-77.0392 41.6866 -77.1159 41.6572 -77.1102 41.6212C-77.1044 41.5851 -77.1044 41.487 -77.1102 41.4031C-77.1263 41.1645 -77.2949 41.2242 -77.2949 41.4685C-77.2949 41.6042 -77.3444 41.6866 -77.4257 41.6866C-77.4977 41.6866 -77.5566 41.7258 -77.5566 41.7738C-77.5566 41.8218 -77.5958 41.861 -77.6438 41.861C-77.6917 41.861 -77.7363 41.7139 -77.7429 41.5339C-77.7502 41.3315 -77.7691 41.2816 -77.7926 41.4031C-77.8445 41.6725 -78.3415 41.6922 -78.3415 41.4249C-78.3415 41.328 -78.3997 41.2505 -78.4723 41.2505C-78.5443 41.2505 -78.6032 41.1752 -78.6032 41.0832C-78.6032 40.9912 -78.627 40.8538 -78.6561 40.778C-78.6908 40.6874 -78.6609 40.64 -78.5689 40.64C-78.4869 40.64 -78.4287 40.5676 -78.4287 40.4655C-78.4287 40.3696 -78.4777 40.2905 -78.5377 40.2898C-78.6128 40.2888 -78.617 40.2685 -78.5512 40.2244C-78.4986 40.1892 -78.4292 40.0524 -78.3969 39.9204C-78.3518 39.7362 -78.3698 39.6806 -78.4741 39.6806C-78.5861 39.6806 -78.5902 39.6591 -78.4975 39.5583C-78.4011 39.4535 -78.3811 39.4535 -78.3569 39.5583C-78.3356 39.6509 -78.24 39.6667 -77.9645 39.6237C-77.7641 39.5924 -77.5871 39.5336 -77.5711 39.4929C-77.5551 39.4523 -77.4864 39.419 -77.4185 39.419C-77.3459 39.419 -77.2949 39.3317 -77.2949 39.2073C-77.2949 39.0758 -77.2371 38.9838 -77.1423 38.9643C-76.9509 38.925 -76.9096 39.0135 -77.0215 39.2225ZM-75.457 39.1573C-75.3166 39.1573 -75.2017 39.1965 -75.2017 39.2445C-75.2017 39.2925 -75.3587 39.3317 -75.5506 39.3317C-75.8307 39.3317 -75.8995 39.3003 -75.8995 39.1719C-75.8995 38.9604 -75.7764 38.8418 -75.7405 39.0186C-75.7224 39.1073 -75.6203 39.1573 -75.457 39.1573ZM-105.727 39.0701C-105.727 39.1181 -105.767 39.1573 -105.815 39.1573C-105.863 39.1573 -105.902 39.1181 -105.902 39.0701C-105.902 39.0221 -105.863 38.9829 -105.815 38.9829C-105.767 38.9829 -105.727 39.0221 -105.727 39.0701ZM-99.7967 39.0701C-99.7967 39.1181 -99.8752 39.1573 -99.9711 39.1573C-100.067 39.1573 -100.146 39.1181 -100.146 39.0701C-100.146 39.0221 -100.067 38.9829 -99.9711 38.9829C-99.8752 38.9829 -99.7967 39.0221 -99.7967 39.0701ZM-98.1396 39.0701C-98.1396 39.1181 -98.2181 39.1573 -98.314 39.1573C-98.41 39.1573 -98.4885 39.1181 -98.4885 39.0701C-98.4885 39.0221 -98.41 38.9829 -98.314 38.9829C-98.2181 38.9829 -98.1396 39.0221 -98.1396 39.0701ZM-96.6569 39.0701C-96.6569 39.1181 -96.7158 39.1573 -96.7878 39.1573C-96.8597 39.1573 -96.9186 39.1181 -96.9186 39.0701C-96.9186 39.0221 -96.8597 38.9829 -96.7878 38.9829C-96.7158 38.9829 -96.6569 39.0221 -96.6569 39.0701ZM-91.5984 39.0701C-91.5984 39.1181 -91.6769 39.1573 -91.7728 39.1573C-91.8688 39.1573 -91.9472 39.1181 -91.9472 39.0701C-91.9472 39.0221 -91.8688 38.9829 -91.7728 38.9829C-91.6769 38.9829 -91.5984 39.0221 -91.5984 39.0701ZM-90.2029 39.0701C-90.2029 39.1181 -90.2618 39.1573 -90.3337 39.1573C-90.4057 39.1573 -90.4646 39.1181 -90.4646 39.0701C-90.4646 39.0221 -90.4057 38.9829 -90.3337 38.9829C-90.2618 38.9829 -90.2029 39.0221 -90.2029 39.0701ZM-82.9062 39.2663C-82.9304 39.3263 -82.9502 39.2772 -82.9502 39.1573C-82.9502 39.0374 -82.9304 38.9884 -82.9062 39.0483C-82.882 39.1083 -82.882 39.2064 -82.9062 39.2663ZM-76.4296 39.1791C-76.4334 39.2871 -76.4563 39.3263 -76.4805 39.2663C-76.5047 39.2064 -76.5801 39.1573 -76.648 39.1573C-76.7161 39.1573 -76.7716 39.1181 -76.7716 39.0701C-76.7716 39.0221 -76.6931 38.9829 -76.5972 38.9829C-76.4724 38.9829 -76.4247 39.0387 -76.4296 39.1791ZM-74.0264 39.1573C-73.9635 39.1573 -73.8896 39.2162 -73.8619 39.2881C-73.8344 39.3601 -73.7498 39.419 -73.674 39.419C-73.4564 39.419 -73.1071 39.8535 -73.1204 40.1076C-73.1311 40.313 -73.1359 40.316 -73.1701 40.1385C-73.1909 40.0306 -73.2444 39.9422 -73.2891 39.9422C-73.3336 39.9422 -73.3702 39.8834 -73.3702 39.8114C-73.3702 39.7395 -73.4263 39.6806 -73.4948 39.6806C-73.5633 39.6806 -73.6734 39.6265 -73.7395 39.5604C-73.8057 39.4943 -73.9851 39.4127 -74.1383 39.379C-74.2915 39.3454 -74.4168 39.2997 -74.4168 39.2775C-74.4168 39.1842 -74.1963 39.0068 -74.1697 39.0787C-74.1536 39.1219 -74.0892 39.1573 -74.0264 39.1573ZM-108.954 39.2445C-108.954 39.2925 -108.994 39.3317 -109.042 39.3317C-109.09 39.3317 -109.129 39.2925 -109.129 39.2445C-109.129 39.1965 -109.09 39.1573 -109.042 39.1573C-108.994 39.1573 -108.954 39.1965 -108.954 39.2445ZM-103.983 39.2445C-103.983 39.2925 -104.042 39.3317 -104.114 39.3317C-104.186 39.3317 -104.245 39.2925 -104.245 39.2445C-104.245 39.1965 -104.186 39.1573 -104.114 39.1573C-104.042 39.1573 -103.983 39.1965 -103.983 39.2445ZM-81.0918 39.4059C-81.141 39.4576 -81.3069 39.3265 -81.3069 39.236C-81.3069 39.1889 -81.2519 39.201 -81.1849 39.2629C-81.1177 39.3248 -81.0758 39.3891 -81.0918 39.4059ZM-74.504 39.2445C-74.504 39.2925 -74.5825 39.3317 -74.6784 39.3317C-74.7744 39.3317 -74.8529 39.2925 -74.8529 39.2445C-74.8529 39.1965 -74.7744 39.1573 -74.6784 39.1573C-74.5825 39.1573 -74.504 39.1965 -74.504 39.2445ZM-95.872 39.4626C-95.872 39.5345 -95.9267 39.5934 -95.9935 39.5934C-96.0603 39.5934 -96.1376 39.5345 -96.1652 39.4626C-96.1993 39.3736 -96.1605 39.3317 -96.0437 39.3317C-95.9492 39.3317 -95.872 39.3906 -95.872 39.4626ZM-88.4822 39.3844C-88.5112 39.4134 -88.5865 39.4165 -88.6493 39.3913C-88.7189 39.3635 -88.6983 39.3428 -88.5967 39.3386C-88.5047 39.3349 -88.4533 39.3555 -88.4822 39.3844ZM-105.727 39.4965C-105.727 39.5392 -105.289 39.5891 -104.753 39.6074C-104.085 39.6303 -103.767 39.6746 -103.743 39.7479C-103.723 39.8068 -103.612 39.855 -103.496 39.855C-103.329 39.855 -103.285 39.9006 -103.285 40.0731C-103.285 40.193 -103.246 40.2911 -103.198 40.2911C-103.15 40.2911 -103.111 40.35 -103.111 40.4219C-103.111 40.4939 -103.15 40.5528 -103.198 40.5528C-103.246 40.5528 -103.285 40.6116 -103.285 40.6836C-103.285 40.7555 -103.246 40.8144 -103.198 40.8144C-103.15 40.8144 -103.111 40.8733 -103.111 40.9452C-103.111 41.0172 -103.172 41.0761 -103.247 41.0761C-103.322 41.0761 -103.359 41.1153 -103.329 41.1633C-103.299 41.2112 -103.356 41.2505 -103.455 41.2505C-103.557 41.2505 -103.634 41.3074 -103.634 41.3835C-103.634 41.6254 -104.055 41.6895 -105.365 41.6467C-106.068 41.6238 -107.153 41.5947 -107.777 41.582C-108.401 41.5693 -108.842 41.5455 -108.758 41.5291C-108.512 41.481 -108.583 41.2692 -108.867 41.2069C-109.138 41.1474 -109.237 40.8728 -109.02 40.7847C-108.937 40.7514 -108.943 40.7159 -109.042 40.64C-109.14 40.5641 -109.146 40.5286 -109.063 40.4953C-109.003 40.471 -108.954 40.3552 -108.954 40.2381C-108.954 40.0912 -108.887 39.9995 -108.736 39.9422C-108.616 39.8966 -108.518 39.8209 -108.518 39.7739C-108.518 39.7269 -108.381 39.6627 -108.213 39.6312C-108.045 39.5998 -107.908 39.5391 -107.908 39.4965C-107.908 39.4538 -107.417 39.419 -106.818 39.419C-106.218 39.419 -105.727 39.4538 -105.727 39.4965ZM-103.46 39.557C-103.46 39.711 -103.648 39.6843 -103.701 39.5226C-103.72 39.4655 -103.674 39.419 -103.598 39.419C-103.522 39.419 -103.46 39.481 -103.46 39.557ZM-99.4478 39.4993C-99.4478 39.5442 -98.7468 39.5922 -97.8562 39.6083C-96.3142 39.6361 -96.257 39.6436 -96.0246 39.8489C-95.8927 39.9655 -95.7848 40.1169 -95.7848 40.1853C-95.7848 40.2645 -95.733 40.2899 -95.6427 40.2553C-95.5238 40.2097 -95.5096 40.2454 -95.5555 40.4749C-95.5856 40.6257 -95.6103 40.8619 -95.6103 40.9997C-95.6103 41.1923 -95.6508 41.2505 -95.7848 41.2505C-95.8807 41.2505 -95.9592 41.3066 -95.9592 41.375C-95.9592 41.4549 -96.1314 41.5382 -96.4389 41.6069C-96.7027 41.666 -96.9186 41.7474 -96.9186 41.7877C-96.9186 41.8971 -97.1606 41.8763 -97.1981 41.7637C-97.2199 41.6984 -97.6992 41.6593 -98.647 41.6451C-99.8703 41.6268 -100.075 41.6431 -100.148 41.7643C-100.225 41.8917 -100.241 41.8906 -100.324 41.752C-100.387 41.6479 -100.525 41.5994 -100.76 41.5994C-101.052 41.5994 -101.105 41.5713 -101.105 41.4167C-101.105 41.3075 -101.175 41.2159 -101.279 41.1886C-101.41 41.1543 -101.454 41.0696 -101.454 40.8478C-101.454 40.6856 -101.493 40.5528 -101.541 40.5528C-101.589 40.5528 -101.628 40.4939 -101.628 40.4219C-101.628 40.35 -101.589 40.2911 -101.541 40.2911C-101.493 40.2911 -101.454 40.2488 -101.454 40.1972C-101.454 40.0328 -100.951 39.5934 -100.763 39.5934C-100.663 39.5934 -100.582 39.5541 -100.582 39.5062C-100.582 39.457 -100.335 39.419 -100.015 39.419C-99.703 39.419 -99.4478 39.4551 -99.4478 39.4993ZM-88.4772 39.7244C-88.443 39.7724 -88.2972 39.8705 -88.1533 39.9422C-87.8087 40.1142 -87.7894 40.1482 -87.8314 40.508C-87.8531 40.6943 -87.9147 40.8144 -87.9884 40.8144C-88.0551 40.8144 -88.1097 40.8733 -88.1097 40.9452C-88.1097 41.0179 -88.0322 41.0761 -87.9353 41.0761C-87.8394 41.0761 -87.7609 41.1153 -87.7609 41.1633C-87.7609 41.2112 -87.8937 41.2505 -88.0559 41.2505C-88.2702 41.2505 -88.3627 41.2949 -88.3934 41.4126C-88.4167 41.5018 -88.5485 41.603 -88.6861 41.6376C-88.8239 41.6721 -88.9664 41.7463 -89.0028 41.8025C-89.0521 41.8784 -89.0886 41.8744 -89.1452 41.7868C-89.2036 41.6962 -89.6015 41.6632 -90.8677 41.6442C-91.7733 41.6306 -92.7398 41.5908 -93.0156 41.5557C-93.4681 41.4983 -93.5171 41.4718 -93.5171 41.2841C-93.5171 41.1696 -93.5539 41.0761 -93.5989 41.0761C-93.6439 41.0761 -93.6583 40.9387 -93.631 40.7708C-93.5914 40.5265 -93.6099 40.4655 -93.7238 40.4655C-93.802 40.4655 -93.866 40.4067 -93.866 40.3347C-93.866 40.2628 -93.8071 40.2039 -93.7352 40.2039C-93.6632 40.2039 -93.6044 40.1537 -93.6044 40.0924C-93.6044 39.976 -93.3668 39.7406 -93.1588 39.6511C-92.9487 39.5607 -88.5447 39.6296 -88.4772 39.7244ZM-81.4912 39.7519C-81.4608 39.801 -81.3233 39.8695 -81.1855 39.904C-81.0479 39.9386 -80.9161 40.0398 -80.8928 40.129C-80.8695 40.2182 -80.8157 40.2911 -80.7734 40.2911C-80.7311 40.2911 -80.6964 40.35 -80.6964 40.4219C-80.6964 40.4939 -80.6276 40.5559 -80.5437 40.5597C-80.4526 40.5638 -80.435 40.5842 -80.5001 40.6105C-80.56 40.6347 -80.6091 40.7671 -80.6091 40.9046C-80.6091 41.042 -80.6605 41.186 -80.7233 41.2243C-80.7861 41.2627 -80.8889 41.4216 -80.9519 41.5776C-81.0603 41.8459 -81.2196 41.9627 -81.2196 41.7738C-81.2196 41.7258 -81.2785 41.6866 -81.3505 41.6866C-81.4224 41.6866 -81.4813 41.7258 -81.4813 41.7738C-81.4813 41.8218 -81.5794 41.861 -81.6993 41.861C-81.8193 41.861 -81.9174 41.8218 -81.9174 41.7738C-81.9174 41.7258 -82.0155 41.6866 -82.1354 41.6866C-82.2711 41.6866 -82.3535 41.736 -82.3535 41.8174C-82.3535 41.8894 -82.408 41.9482 -82.4746 41.9482C-82.5412 41.9482 -82.5903 41.8825 -82.5836 41.802C-82.5732 41.6764 -82.691 41.6513 -83.4219 41.6239C-84.1437 41.5968 -84.2722 41.6123 -84.2722 41.7265C-84.2722 41.8005 -84.3115 41.861 -84.3594 41.861C-84.4074 41.861 -84.4466 41.8054 -84.4466 41.7373C-84.4466 41.6457 -84.5661 41.6148 -84.9092 41.6178C-85.472 41.6229 -85.7549 41.5418 -85.7549 41.3755C-85.7549 41.1963 -86.0845 41.2208 -86.1284 41.4031C-86.1486 41.487 -86.1478 41.4086 -86.1268 41.2287C-86.0933 40.943 -86.1114 40.9016 -86.2705 40.9016C-86.4578 40.9016 -86.5391 40.5968 -86.3674 40.5382C-86.3205 40.5222 -86.2667 40.3914 -86.2478 40.2475C-86.2289 40.1036 -86.2309 40.035 -86.2522 40.0949C-86.2736 40.1549 -86.3274 40.2039 -86.3718 40.2039C-86.4675 40.2039 -86.4825 39.9452 -86.3872 39.9358C-86.1303 39.9103 -85.8859 39.8394 -85.8459 39.7787C-85.8199 39.7391 -85.7396 39.6814 -85.6677 39.6504C-85.4514 39.5572 -81.5529 39.6519 -81.4912 39.7519ZM-87.8481 39.7678C-87.8481 39.8158 -87.9266 39.855 -88.0225 39.855C-88.1185 39.855 -88.1969 39.8158 -88.1969 39.7678C-88.1969 39.7198 -88.1185 39.6806 -88.0225 39.6806C-87.9266 39.6806 -87.8481 39.7198 -87.8481 39.7678ZM-102.437 39.9077C-102.466 39.9367 -102.541 39.9398 -102.604 39.9146C-102.674 39.8868 -102.653 39.8661 -102.551 39.8619C-102.459 39.8582 -102.408 39.8788 -102.437 39.9077ZM-80.4347 40.0731C-80.4347 40.145 -80.4739 40.2039 -80.5219 40.2039C-80.5699 40.2039 -80.6091 40.145 -80.6091 40.0731C-80.6091 40.0011 -80.5699 39.9422 -80.5219 39.9422C-80.4739 39.9422 -80.4347 40.0011 -80.4347 40.0731ZM-101.743 40.4819C-101.771 40.5515 -101.792 40.5308 -101.796 40.4292C-101.8 40.3373 -101.779 40.2858 -101.75 40.3148C-101.721 40.3437 -101.718 40.419 -101.743 40.4819ZM-72.9341 40.64C-72.9341 40.7359 -72.9734 40.8144 -73.0213 40.8144C-73.0693 40.8144 -73.1085 40.7359 -73.1085 40.64C-73.1085 40.544 -73.0693 40.4655 -73.0213 40.4655C-72.9734 40.4655 -72.9341 40.544 -72.9341 40.64ZM-78.4088 41.0052C-78.3549 41.1669 -78.1671 41.1937 -78.1671 41.0397C-78.1671 40.9637 -78.2292 40.9016 -78.3051 40.9016C-78.3811 40.9016 -78.4278 40.9482 -78.4088 41.0052ZM-104.587 42.5587C-104.543 42.5587 -104.506 42.6208 -104.506 42.6968C-104.506 42.9455 -104.724 42.77 -104.74 42.5084C-104.749 42.3682 -104.736 42.3222 -104.712 42.4061C-104.688 42.49 -104.632 42.5587 -104.587 42.5587ZM-70.9281 42.3843C-70.9281 42.4323 -70.9674 42.4715 -71.0153 42.4715C-71.0633 42.4715 -71.1026 42.4323 -71.1026 42.3843C-71.1026 42.3363 -71.0633 42.2971 -71.0153 42.2971C-70.9674 42.2971 -70.9281 42.3363 -70.9281 42.3843ZM-93.9532 42.6023C-93.9532 42.6743 -93.9925 42.7332 -94.0404 42.7332C-94.0884 42.7332 -94.1277 42.6743 -94.1277 42.6023C-94.1277 42.5304 -94.0884 42.4715 -94.0404 42.4715C-93.9925 42.4715 -93.9532 42.5304 -93.9532 42.6023ZM-103.768 42.8073C-103.817 42.859 -103.983 42.7279 -103.983 42.6374C-103.983 42.5903 -103.928 42.6024 -103.861 42.6644C-103.794 42.7262 -103.752 42.7906 -103.768 42.8073ZM-103.285 42.6947C-103.285 42.7695 -103.325 42.8064 -103.373 42.7768C-103.421 42.7471 -103.46 42.686 -103.46 42.6408C-103.46 42.5956 -103.421 42.5587 -103.373 42.5587C-103.325 42.5587 -103.285 42.62 -103.285 42.6947ZM-102.413 42.646C-102.413 42.6939 -102.472 42.7332 -102.544 42.7332C-102.616 42.7332 -102.675 42.6939 -102.675 42.646C-102.675 42.598 -102.616 42.5587 -102.544 42.5587C-102.472 42.5587 -102.413 42.598 -102.413 42.646ZM-72.9025 42.6896C-72.8684 42.7785 -72.9072 42.8204 -73.024 42.8204C-73.1186 42.8204 -73.1958 42.7615 -73.1958 42.6896C-73.1958 42.6176 -73.1411 42.5587 -73.0743 42.5587C-73.0075 42.5587 -72.9302 42.6176 -72.9025 42.6896ZM-99.1226 42.7858C-99.1516 42.8148 -99.2268 42.8179 -99.2897 42.7927C-99.3593 42.7649 -99.3387 42.7442 -99.237 42.7401C-99.1451 42.7363 -99.0937 42.7569 -99.1226 42.7858ZM-98.5324 42.821C-98.5956 42.9231 -98.9246 42.9386 -98.9246 42.8394C-98.9246 42.8019 -98.8243 42.7629 -98.7017 42.7528C-98.5725 42.7421 -98.5014 42.7708 -98.5324 42.821ZM-96.0682 42.7933C-96.1521 42.8152 -96.2896 42.8152 -96.3735 42.7933C-96.4574 42.7714 -96.3887 42.7534 -96.2208 42.7534C-96.053 42.7534 -95.9843 42.7714 -96.0682 42.7933ZM-92.7976 42.7909C-92.8575 42.8152 -92.9556 42.8152 -93.0156 42.7909C-93.0756 42.7667 -93.0266 42.747 -92.9066 42.747C-92.7867 42.747 -92.7376 42.7667 -92.7976 42.7909ZM-76.0834 42.7717C-76.1422 42.8306 -77.2002 42.8569 -77.2562 42.801C-77.2812 42.7759 -77.0181 42.7496 -76.6714 42.7424C-76.3247 42.7353 -76.0601 42.7485 -76.0834 42.7717ZM-75.5271 42.7904C-75.5862 42.8143 -75.7039 42.8158 -75.7888 42.7936C-75.8736 42.7715 -75.8253 42.7519 -75.6814 42.7502C-75.5375 42.7484 -75.4681 42.7665 -75.5271 42.7904ZM-74.7438 42.7909C-74.8038 42.8152 -74.9019 42.8152 -74.9619 42.7909C-75.0218 42.7667 -74.9728 42.747 -74.8529 42.747C-74.7329 42.747 -74.6838 42.7667 -74.7438 42.7909ZM-100.344 42.8731C-100.373 42.902 -100.448 42.9052 -100.511 42.88C-100.58 42.8521 -100.56 42.8315 -100.458 42.8273C-100.366 42.8235 -100.315 42.8441 -100.344 42.8731ZM-73.8717 42.8781C-73.9316 42.9024 -74.0297 42.9024 -74.0897 42.8781C-74.1496 42.854 -74.1006 42.8342 -73.9807 42.8342C-73.8608 42.8342 -73.8117 42.854 -73.8717 42.8781ZM-108.867 42.9948C-108.867 43.0428 -108.789 43.082 -108.693 43.082C-108.597 43.082 -108.518 43.0428 -108.518 42.9948C-108.518 42.9468 -108.597 42.9076 -108.693 42.9076C-108.789 42.9076 -108.867 42.9468 -108.867 42.9948ZM-88.8075 42.9948C-88.8075 43.0428 -88.729 43.082 -88.633 43.082C-88.5371 43.082 -88.4586 43.0428 -88.4586 42.9948C-88.4586 42.9468 -88.5371 42.9076 -88.633 42.9076C-88.729 42.9076 -88.8075 42.9468 -88.8075 42.9948ZM-71.8003 42.9948C-71.8003 43.0428 -71.761 43.082 -71.7131 43.082C-71.6651 43.082 -71.6259 43.0428 -71.6259 42.9948C-71.6259 42.9468 -71.6651 42.9076 -71.7131 42.9076C-71.761 42.9076 -71.8003 42.9468 -71.8003 42.9948ZM-48.4835 43.2166C-48.5119 43.2907 -48.5538 43.3325 -48.5767 43.3097C-48.5995 43.2868 -48.5924 43.2262 -48.5607 43.1751C-48.4747 43.0359 -48.4245 43.0629 -48.4835 43.2166Z" fill="#EFEFEF"/>
<rect x="12.2578" y="32.9907" width="29.1302" height="7.15173" fill="#EFEFEF"/>
</g>
<defs>
<clipPath id="clip0_1620_20328">
<rect width="61.6619" height="46.3118" fill="white" transform="translate(0.136719 0.110107)"/>
</clipPath>
</defs>
</svg>
