<svg width="33" height="24" viewBox="0 0 33 24" fill="none" xmlns="http://www.w3.org/2000/svg">
<path fill-rule="evenodd" clip-rule="evenodd" d="M7.30117 1.53994C6.65442 1.70474 6.00356 2.25792 5.68616 2.91243L5.5 3.29624V8.35334V13.4104L5.67787 13.7947C5.90655 14.2887 6.39949 14.7932 6.8678 15.0127C7.17232 15.1554 7.35771 15.1906 7.92836 15.2143L8.61988 15.243V16.7231C8.61988 18.115 8.62754 18.211 8.74854 18.3353C9.03911 18.6339 9.11932 18.5759 10.8057 16.8479L12.3864 15.2284H14.1997H16.013L16.2244 15.4164C16.5557 15.7113 17.0788 16.0619 17.4316 16.2258C17.6091 16.3083 17.7543 16.3927 17.7541 16.4135C17.7539 16.4343 17.5441 16.562 17.2878 16.6974C16.7709 16.9702 16.0736 17.5324 15.6248 18.0379C14.7745 18.9955 14.2648 20.2439 14.1211 21.7212C14.0806 22.1376 14.0881 22.1759 14.2407 22.3327L14.4035 22.5H20.038H25.6725L25.8366 22.3314C25.9924 22.1713 25.9984 22.1387 25.9557 21.6868C25.8514 20.5835 25.423 19.349 24.8754 18.5737C24.3411 17.8174 23.4616 17.0352 22.7237 16.6603C22.5026 16.5479 22.3216 16.4362 22.3216 16.4121C22.3216 16.3879 22.4157 16.3297 22.5307 16.2825C22.8134 16.1667 23.598 15.6522 23.8212 15.4363C23.9937 15.2695 24.0431 15.2596 24.8826 15.2235C25.6483 15.1905 25.8113 15.163 26.1322 15.0127C26.6004 14.7932 27.0934 14.2887 27.3221 13.7947L27.5 13.4104V8.35334V3.29624L27.3138 2.91243C27.0695 2.40844 26.6755 2.00083 26.1717 1.73052L25.7632 1.51138L16.6287 1.50107C11.6047 1.49539 7.40731 1.5129 7.30117 1.53994ZM25.7994 2.49887C26.1905 2.70076 26.4693 3.01245 26.597 3.39064C26.7426 3.82172 26.746 12.8842 26.6008 13.3073C26.3779 13.9565 25.9336 14.2961 25.2315 14.354L24.8015 14.3895L24.9124 14.2305C25.8219 12.9265 26.1745 11.0058 25.7971 9.41104C25.5316 8.28869 25.077 7.43619 24.288 6.58131C22.3983 4.53361 19.3883 4.12746 16.9703 5.59395C16.4057 5.93645 15.4182 6.91309 15.066 7.47751C13.8961 9.35214 13.8195 11.7971 14.8702 13.7292C14.9725 13.9175 15.1025 14.1384 15.1588 14.2202L15.2613 14.369H13.6358H12.0103L10.7332 15.6709L9.45614 16.973V15.8134C9.45614 14.3283 9.52658 14.4145 8.27567 14.3687C7.42892 14.3376 7.34453 14.3227 7.06412 14.1536C6.72409 13.9485 6.53812 13.7118 6.39923 13.3073C6.25398 12.8842 6.25739 3.82172 6.40297 3.39064C6.52963 3.01569 6.82997 2.67657 7.2012 2.48949L7.49415 2.34187L16.4907 2.33976L25.4872 2.33771L25.7994 2.49887ZM21.0455 5.67083C22.9695 6.05378 24.5863 7.67523 24.9996 9.63639C25.1261 10.2367 25.1262 11.2968 24.9998 11.89C24.5535 13.9838 22.9347 15.5533 20.8469 15.9162C20.0947 16.0469 19.9813 16.0469 19.2292 15.9162C17.3486 15.5893 15.8586 14.2938 15.2066 12.4189C15.0328 11.919 15.0227 11.8303 15.0216 10.7993C15.0206 9.82069 15.0363 9.66092 15.1741 9.24577C15.6884 7.69718 16.6955 6.56068 18.0851 5.96071C18.9412 5.59104 20.0828 5.47926 21.0455 5.67083ZM19.4782 7.16145C17.6934 7.49311 16.3724 9.17154 16.4852 10.9645C16.5784 12.4469 17.4604 13.6692 18.8335 14.2187C19.2139 14.371 19.3591 14.392 20.038 14.3925C20.7421 14.393 20.8514 14.3761 21.2813 14.1995C22.2773 13.7904 23.0895 12.9236 23.4152 11.9219C23.6342 11.2485 23.6397 10.3051 23.4285 9.67546C23.0502 8.54789 22.2476 7.71337 21.1691 7.32612C20.6814 7.15107 19.9288 7.07776 19.4782 7.16145ZM20.8569 8.11986C21.4908 8.31599 22.1497 8.87108 22.4372 9.45123C22.7986 10.1802 22.8552 10.8554 22.619 11.6197C22.3467 12.5009 21.7741 13.1066 20.9206 13.4161C18.9103 14.1453 16.8651 12.2286 17.4003 10.117C17.5935 9.35465 18.0566 8.71977 18.6805 8.362C18.9677 8.19727 19.1572 8.13037 19.7164 7.99624C19.9128 7.94917 20.5167 8.01462 20.8569 8.11986ZM21.1302 16.9825C22.6181 17.3808 23.7468 18.3129 24.4417 19.7172C24.6111 20.0592 24.8671 20.9108 24.9297 21.3394L24.9737 21.6406H20.0453C15.3395 21.6406 15.117 21.6353 15.117 21.5214C15.117 21.3026 15.4216 20.2242 15.5941 19.8324C15.8391 19.276 16.2127 18.7369 16.6855 18.2574C17.2879 17.6465 18.0052 17.2382 18.92 16.9854C19.3951 16.854 20.6442 16.8524 21.1302 16.9825Z" fill="black"/>
</svg>
