<svg width="33" height="24" viewBox="0 0 33 24" fill="none" xmlns="http://www.w3.org/2000/svg">
<path d="M24.2767 21.4783H24.2319L17.2348 18.6522C17.175 18.5942 17.1451 18.5507 17.1451 18.5217C17.0853 18.4638 17.1002 18.4058 17.1899 18.3478C17.9973 17.5942 18.401 16.6522 18.401 15.5217C18.401 14.971 18.3262 14.5217 18.1767 14.1739V14.1304L13.0634 7.47826C11.7178 8.6087 11.0899 9.73913 11.1796 10.8696C11.1796 10.9855 11.1198 11.0435 11.0002 11.0435C10.8806 11.1014 10.8208 11.058 10.8208 10.913C10.7012 9.55072 11.4637 8.24638 13.1083 7C14.6632 5.81159 16.0088 5.4058 17.1451 5.78261C17.2348 5.78261 17.2796 5.85507 17.2796 6C17.2198 6.08696 17.1301 6.11594 17.0105 6.08696C15.9938 5.7971 14.7679 6.18841 13.3326 7.26087L18.5804 14.0435C19.2382 14.4493 19.9783 14.6377 20.8006 14.6087C21.6229 14.5797 22.363 14.3478 23.0209 13.913C23.0807 13.8551 23.1405 13.8551 23.2003 13.913C23.2601 13.913 23.29 13.9565 23.29 14.0435L24.4562 21.3043C24.4562 21.3913 24.4412 21.4348 24.4113 21.4348C24.3814 21.4638 24.3365 21.4783 24.2767 21.4783ZM17.6385 18.4348L24.0525 21.0435L22.976 14.3478C21.5407 15.1594 20.1054 15.2029 18.6701 14.4783C18.7598 14.8261 18.8046 15.1739 18.8046 15.5217C18.8046 16.5652 18.4159 17.5362 17.6385 18.4348ZM9.60973 9.17391C9.49012 9.17391 9.43032 9.11594 9.43032 9C9.31071 7.63768 10.0732 6.33333 11.7178 5.08696C13.2727 3.89855 14.6183 3.49275 15.7546 3.86957C15.8443 3.89855 15.8892 3.97101 15.8892 4.08696C15.8294 4.17391 15.7397 4.21739 15.6201 4.21739C14.6034 3.86957 13.3774 4.24638 11.9421 5.34783C10.4171 6.53623 9.69944 7.73913 9.78915 8.95652C9.78915 9.07246 9.72934 9.13043 9.60973 9.13043V9.17391ZM21.8995 20.3478C22.1985 19.3623 22.8564 18.7826 23.8731 18.6087L24.2767 21.3043L21.8995 20.3478ZM13.7362 2.69565C12.4504 2.69565 11.1871 3.34783 9.94613 4.65217C8.70519 5.95652 8.3987 7.14493 9.02664 8.21739L16.876 18.3043L24.2767 21.3043L23.0209 13.4348L15.1715 3.3913C14.8725 2.92754 14.3941 2.69565 13.7362 2.69565ZM13.7362 2C14.6333 2 15.321 2.31884 15.7995 2.95652L23.6039 13C23.6936 13.087 23.7385 13.1884 23.7385 13.3043L24.9944 21.2174C25.0243 21.4783 24.9346 21.6957 24.7253 21.8696C24.5758 21.9565 24.4263 22 24.2767 22C24.1571 22 24.0674 21.9855 24.0076 21.9565L16.562 18.9565C16.4125 18.8986 16.3228 18.8261 16.2929 18.7391L8.44355 8.65217C8.44355 8.62319 8.43607 8.6087 8.42112 8.6087C8.40617 8.6087 8.3987 8.5942 8.3987 8.56522C7.80065 7.57971 7.87541 6.46377 8.62296 5.21739C9.1612 4.31884 9.93118 3.55797 10.9329 2.93478C11.9346 2.31159 12.8691 2 13.7362 2Z" fill="black"/>
</svg>
