<svg width="33" height="24" viewBox="0 0 33 24" fill="none" xmlns="http://www.w3.org/2000/svg">
<rect x="6.35" y="3.56436" width="20.3" height="14.3" rx="1.79286" stroke="black" stroke-width="0.7"/>
<rect width="9" height="13.7143" transform="translate(12 7.07153)" fill="white"/>
<path fill-rule="evenodd" clip-rule="evenodd" d="M15.7695 7.12758C14.8228 7.26803 14.0501 7.62669 13.3385 8.25588C12.6297 8.88251 12.2227 9.55028 12.0685 10.3396L12 10.6903H12.4403H12.8806L12.9151 10.48C12.9998 9.9645 13.3891 9.28443 13.8475 8.85108C14.6599 8.08329 15.7894 7.7241 16.9671 7.85911C17.8343 7.95851 18.5 8.24738 19.0969 8.78333C19.7749 9.39207 20.0969 10.0397 20.1368 10.875C20.156 11.2755 20.143 11.391 20.0519 11.6333C19.8481 12.1745 19.462 12.6464 18.4863 13.5463C17.068 14.8545 16.6276 15.4145 16.2964 16.3307C16.1664 16.6903 16.1326 16.8699 16.1073 17.338L16.0765 17.9077H16.5024H16.9281L16.9587 17.3653C17.0341 16.031 17.4519 15.3936 19.4048 13.6334C20.3683 12.7651 20.6479 12.4141 20.8968 11.761C20.976 11.5532 21 11.3777 21 11.0074C21 9.47009 19.9904 8.09321 18.381 7.43585C17.5573 7.09937 16.6674 6.9943 15.7695 7.12758ZM16.092 20.0552V20.7858H16.5177H16.9434V20.0552V19.3246H16.5177H16.092V20.0552Z" fill="black" stroke="black" stroke-width="0.2"/>
</svg>
