<svg width="21" height="21" viewBox="0 0 21 21" fill="none" xmlns="http://www.w3.org/2000/svg">
<path d="M6 4.72266C5.60218 4.72266 5.22064 4.88069 4.93934 5.162C4.65804 5.4433 4.5 5.82483 4.5 6.22266V7.22266C4.5 7.35526 4.44732 7.48244 4.35355 7.57621C4.25979 7.66998 4.13261 7.72266 4 7.72266C3.86739 7.72266 3.74021 7.66998 3.64645 7.57621C3.55268 7.48244 3.5 7.35526 3.5 7.22266V6.22266C3.5 5.55962 3.76339 4.92373 4.23223 4.45489C4.70107 3.98605 5.33696 3.72266 6 3.72266H7C7.13261 3.72266 7.25979 3.77533 7.35355 3.8691C7.44732 3.96287 7.5 4.09005 7.5 4.22266C7.5 4.35526 7.44732 4.48244 7.35355 4.57621C7.25979 4.66998 7.13261 4.72266 7 4.72266H6ZM9 7.72266C8.60218 7.72266 8.22064 7.88069 7.93934 8.162C7.65804 8.4433 7.5 8.82483 7.5 9.22266V12.2227C7.5 12.6205 7.65804 13.002 7.93934 13.2833C8.22064 13.5646 8.60218 13.7227 9 13.7227H12C12.3978 13.7227 12.7794 13.5646 13.0607 13.2833C13.342 13.002 13.5 12.6205 13.5 12.2227V9.22266C13.5 8.82483 13.342 8.4433 13.0607 8.162C12.7794 7.88069 12.3978 7.72266 12 7.72266H9ZM15 4.72266C15.3978 4.72266 15.7794 4.88069 16.0607 5.162C16.342 5.4433 16.5 5.82483 16.5 6.22266V7.22266C16.5 7.35526 16.5527 7.48244 16.6464 7.57621C16.7402 7.66998 16.8674 7.72266 17 7.72266C17.1326 7.72266 17.2598 7.66998 17.3536 7.57621C17.4473 7.48244 17.5 7.35526 17.5 7.22266V6.22266C17.5 5.55962 17.2366 4.92373 16.7678 4.45489C16.2989 3.98605 15.663 3.72266 15 3.72266H14C13.8674 3.72266 13.7402 3.77533 13.6464 3.8691C13.5527 3.96287 13.5 4.09005 13.5 4.22266C13.5 4.35526 13.5527 4.48244 13.6464 4.57621C13.7402 4.66998 13.8674 4.72266 14 4.72266H15ZM15 16.7227C15.3978 16.7227 15.7794 16.5646 16.0607 16.2833C16.342 16.002 16.5 15.6205 16.5 15.2227V14.2227C16.5 14.09 16.5527 13.9629 16.6464 13.8691C16.7402 13.7753 16.8674 13.7227 17 13.7227C17.1326 13.7227 17.2598 13.7753 17.3536 13.8691C17.4473 13.9629 17.5 14.09 17.5 14.2227V15.2227C17.5 15.8857 17.2366 16.5216 16.7678 16.9904C16.2989 17.4593 15.663 17.7227 15 17.7227H14C13.8674 17.7227 13.7402 17.67 13.6464 17.5762C13.5527 17.4824 13.5 17.3553 13.5 17.2227C13.5 17.09 13.5527 16.9629 13.6464 16.8691C13.7402 16.7753 13.8674 16.7227 14 16.7227H15ZM6 16.7227C5.60218 16.7227 5.22064 16.5646 4.93934 16.2833C4.65804 16.002 4.5 15.6205 4.5 15.2227V13.9727C4.5 13.84 4.44732 13.7129 4.35355 13.6191C4.25979 13.5253 4.13261 13.4727 4 13.4727C3.86739 13.4727 3.74021 13.5253 3.64645 13.6191C3.55268 13.7129 3.5 13.84 3.5 13.9727V15.2227C3.5 15.8857 3.76339 16.5216 4.23223 16.9904C4.70107 17.4593 5.33696 17.7227 6 17.7227H7.25C7.38261 17.7227 7.50979 17.67 7.60355 17.5762C7.69732 17.4824 7.75 17.3553 7.75 17.2227C7.75 17.09 7.69732 16.9629 7.60355 16.8691C7.50979 16.7753 7.38261 16.7227 7.25 16.7227H6Z" fill="#333333"/>
</svg>
