<svg width="21" height="21" viewBox="0 0 21 21" fill="none" xmlns="http://www.w3.org/2000/svg">
<path d="M15.675 17.4726L11.5688 13.3664L13.1437 11.7914L17.25 15.8976L15.675 17.4726ZM5.325 17.4726L3.75 15.8976L8.925 10.7226L7.65 9.44761L7.125 9.97261L6.16875 9.01636V10.5539L5.64375 11.0789L3.375 8.81011L3.9 8.28511H5.4375L4.5 7.34761L7.1625 4.68511C7.4125 4.43511 7.68125 4.25386 7.96875 4.14136C8.25625 4.02886 8.55 3.97261 8.85 3.97261C9.15 3.97261 9.44375 4.02886 9.73125 4.14136C10.0188 4.25386 10.2875 4.43511 10.5375 4.68511L8.8125 6.41011L9.75 7.34761L9.225 7.87261L10.5 9.14761L12.1875 7.46011C12.1375 7.32261 12.097 7.17886 12.066 7.02886C12.0345 6.87886 12.0187 6.72886 12.0187 6.57886C12.0187 5.84136 12.272 5.21936 12.7785 4.71286C13.2845 4.20686 13.9062 3.95386 14.6437 3.95386C14.8312 3.95386 15.0095 3.97261 15.1785 4.01011C15.347 4.04761 15.5187 4.10386 15.6937 4.17886L13.8375 6.03511L15.1875 7.38511L17.0438 5.52886C17.1313 5.70386 17.1907 5.87561 17.2222 6.04411C17.2532 6.21311 17.2687 6.39136 17.2687 6.57886C17.2687 7.31636 17.0157 7.93811 16.5098 8.44411C16.0033 8.95061 15.3812 9.20386 14.6437 9.20386C14.4937 9.20386 14.3437 9.19136 14.1937 9.16636C14.0437 9.14136 13.9 9.09761 13.7625 9.03511L5.325 17.4726Z" fill="#333333"/>
</svg>
