<svg width="21" height="21" viewBox="0 0 21 21" fill="none" xmlns="http://www.w3.org/2000/svg">
<path fill-rule="evenodd" clip-rule="evenodd" d="M11.3587 3.853C10.9169 4.08651 10.3907 4.61876 10.1827 5.04217C10.0104 5.393 9.98479 5.5277 9.98479 6.0813C9.98479 6.62238 10.0129 6.7773 10.1728 7.11844C10.4037 7.61097 10.8514 8.10944 11.3515 8.4308L11.7288 8.67321L11.6729 9.10878C11.6421 9.34836 11.6249 9.62385 11.6347 9.72103C11.6444 9.81821 11.6636 10.1362 11.6773 10.4278L11.7023 10.9578L12.1777 11.0115C12.4392 11.041 12.8477 11.1101 13.0854 11.165C13.3232 11.22 13.5283 11.2542 13.5413 11.2412C13.5543 11.2282 13.6401 10.7378 13.7318 10.1515C13.8235 9.56519 13.9157 9.05768 13.9367 9.02383C13.9576 8.9899 14.0947 8.94255 14.2414 8.91859C14.6634 8.84954 15.3602 8.48373 15.732 8.13594C15.9197 7.96039 16.1649 7.63295 16.2769 7.40842C16.4521 7.05717 16.481 6.9161 16.4837 6.39933C16.4865 5.86786 16.4613 5.74566 16.2658 5.33922C16.0361 4.86195 15.5838 4.30991 15.4767 4.37606C15.4428 4.39698 15.3731 4.7317 15.3217 5.11977C15.2703 5.50792 15.2084 5.85761 15.1841 5.89691C15.1598 5.9362 14.7115 6.05479 14.1879 6.16038L13.2358 6.35233L12.3889 5.87641C11.9231 5.6147 11.5365 5.39469 11.5297 5.38756C11.5183 5.37533 11.6719 4.33677 11.7487 3.90806C11.7901 3.67681 11.7126 3.66586 11.3587 3.853ZM10.4088 9.9262C10.0931 10.0729 9.76082 10.4044 9.31911 11.0134C9.15599 11.2383 8.8892 11.5208 8.72622 11.6412C8.42197 11.866 7.20467 12.4773 7.06127 12.4773C6.9682 12.4773 6.94311 17.11 7.0359 17.1674C7.19775 17.2674 9.57827 17.7276 10.0976 17.7593C10.7291 17.7977 11.9796 17.6949 12.951 17.5245C13.6155 17.4079 14.069 17.154 14.2853 16.7772C14.4692 16.4569 14.4001 16.1929 14.0749 15.9737L13.8556 15.826L14.0581 15.5994C14.3029 15.3254 14.3183 15.0584 14.1123 14.6546L13.964 14.3639L14.1123 14.1001C14.3251 13.7214 14.3014 13.5124 14.0088 13.1884L13.7569 12.9096L13.9635 12.8029C14.2256 12.6673 14.3782 12.3212 14.2884 12.0659C14.159 11.6977 13.4044 11.4225 12.0975 11.2667C11.7129 11.2208 11.3904 11.1776 11.3806 11.1707C11.3709 11.1638 11.3987 10.98 11.4425 10.7622C11.5738 10.1083 11.4128 9.7905 10.9515 9.79326C10.8085 9.79411 10.5643 9.8539 10.4088 9.9262ZM3.80078 14.7389V17.5659H5.24961H6.69843V14.7389V11.9119H5.24961H3.80078V14.7389ZM11.9283 17.9222C11.7145 17.9518 11.3091 17.9791 11.0272 17.9829C10.6108 17.9886 10.5149 18.0108 10.5149 18.1014C10.5149 18.2792 10.8903 18.6059 11.1896 18.6885C11.6951 18.8281 12.3217 18.5237 12.4833 18.06C12.5664 17.8217 12.5983 17.8296 11.9283 17.9222Z" fill="#333333"/>
</svg>
