<svg width="21" height="21" viewBox="0 0 21 21" fill="none" xmlns="http://www.w3.org/2000/svg">
<path fill-rule="evenodd" clip-rule="evenodd" d="M3.98326 7.22557L3.5 7.72811L3.83568 8.0367C5.74216 9.78927 8.30768 10.6714 10.7993 10.4312C11.6291 10.3512 12.6779 10.1045 13.3428 9.83306C14.2967 9.44348 15.3938 8.74493 16.1643 8.0367L16.5 7.72811L16.0166 7.22538L15.5331 6.72266L15.1968 7.03898C14.218 7.95993 12.7434 8.69536 11.373 8.94609C10.6564 9.07721 9.34359 9.07721 8.627 8.94609C7.24333 8.69291 5.81675 7.97589 4.77669 7.01077L4.46658 6.72297L3.98326 7.22557ZM3.98362 10.4928L3.5 10.9965L3.80516 11.2849C5.03113 12.4433 6.60267 13.25 8.32379 13.6042C9.09092 13.7621 10.9091 13.7621 11.6762 13.6042C12.7933 13.3743 13.852 12.9551 14.78 12.3752C15.2755 12.0656 16.147 11.3785 16.3742 11.1185L16.4926 10.983L16.0127 10.4861L15.5328 9.98918L15.1797 10.3257C14.2157 11.2444 12.8414 11.9367 11.4149 12.2222C10.7017 12.3649 9.29831 12.3649 8.58514 12.2222C7.15861 11.9367 5.78434 11.2444 4.82032 10.3257L4.46719 9.98918L3.98362 10.4928Z" fill="#333333"/>
</svg>
