<svg width="21" height="21" viewBox="0 0 21 21" fill="none" xmlns="http://www.w3.org/2000/svg">
<g clip-path="url(#clip0_1620_20445)">
<path fill-rule="evenodd" clip-rule="evenodd" d="M-6.62188 -2.55262C-7.03961 -2.35958 -7.5 -1.64507 -7.5 -1.18986C-7.5 -1.06616 -4.21932 2.17104 -0.209414 6.00386L7.08097 12.9727L-0.209414 19.9415C-4.21932 23.7743 -7.5 27.0115 -7.5 27.1352C-7.5 27.8727 -6.6096 28.7227 -5.83692 28.7227C-5.70734 28.7227 -2.31598 25.5911 1.69935 21.7635L9 14.8045L16.3006 21.7635C20.316 25.5911 23.7073 28.7227 23.8369 28.7227C24.6096 28.7227 25.5 27.8727 25.5 27.1352C25.5 27.0115 22.2193 23.7743 18.2094 19.9415L10.919 12.9727L18.2094 6.00386C22.2193 2.17104 25.5 -1.06616 25.5 -1.18986C25.5 -1.92742 24.6096 -2.77734 23.8369 -2.77734C23.7073 -2.77734 20.316 0.354218 16.3006 4.18185L9 11.1409L1.69935 4.18185C-2.31598 0.354218 -5.7341 -2.77158 -5.89668 -2.76428C-6.05907 -2.75718 -6.38545 -2.66191 -6.62188 -2.55262Z" fill="#333333"/>
</g>
<defs>
<clipPath id="clip0_1620_20445">
<rect width="12" height="12" fill="white" transform="translate(4.5 4.72266)"/>
</clipPath>
</defs>
</svg>
