<svg width="21" height="21" viewBox="0 0 21 21" fill="none" xmlns="http://www.w3.org/2000/svg">
<path fill-rule="evenodd" clip-rule="evenodd" d="M12.6998 4.87999C11.211 5.37854 9.47986 6.9905 7.63869 9.59258C6.8126 10.76 5.75602 12.4765 5.06611 13.7718L4.8073 14.2579L4.319 14.0238C3.96903 13.856 3.69473 13.7781 3.35089 13.7487C2.90215 13.7105 2.85899 13.7193 2.6844 13.8834C2.30656 14.2388 2.57683 14.7428 3.14525 14.7428C3.51215 14.7428 3.84157 14.8701 4.26892 15.177C4.79664 15.5559 5.31289 15.7125 6.02831 15.7104C6.73018 15.7085 7.20969 15.5615 7.76478 15.1783C8.22362 14.8615 8.55204 14.7428 8.96944 14.7428C9.43022 14.7428 9.71598 14.8418 10.2539 15.1878C10.8272 15.5566 11.3401 15.7136 11.9727 15.714C12.6044 15.7143 12.9468 15.6236 13.4498 15.3226C13.6677 15.1922 14.0082 15.0086 14.2063 14.9148C14.8337 14.6176 15.5504 14.7099 16.2062 15.1724C16.8061 15.5954 17.7424 15.8438 18.1453 15.6868C18.5087 15.5453 18.5967 15.2234 18.3522 14.931C18.2433 14.8008 18.118 14.7518 17.8056 14.7172C17.3516 14.6671 17.1165 14.5685 16.6476 14.232C16.0005 13.7674 14.8917 13.6017 14.1163 13.8536L13.738 13.9766L13.7383 13.4956C13.7386 12.9538 13.9722 8.92251 14.1371 6.61236C14.2422 5.14143 14.2413 5.08329 14.1107 4.91821C13.9159 4.67208 13.3651 4.65711 12.6998 4.87999ZM2.64463 15.9076C2.56386 15.9891 2.49872 16.134 2.50002 16.2295C2.50398 16.5309 2.66754 16.6477 3.22552 16.7477C3.63932 16.8219 3.85642 16.9109 4.28153 17.181C4.97129 17.6193 5.44151 17.7492 6.20188 17.7114C6.84193 17.6797 7.29204 17.5163 7.91855 17.0882C8.55376 16.6543 9.28806 16.6296 9.93855 17.0204C10.7523 17.5093 11.2074 17.6787 11.7931 17.7105C12.5159 17.7499 13.0522 17.6058 13.6908 17.2009C14.5507 16.6556 15.2215 16.6013 15.9196 17.0208C16.6829 17.4795 17.1858 17.6741 17.6958 17.7084C18.1583 17.7395 18.1883 17.7324 18.3372 17.5542C18.6857 17.1375 18.4631 16.7993 17.7807 16.7088C17.4659 16.6671 17.215 16.5824 16.9881 16.4412C16.2229 15.965 15.7554 15.796 15.1318 15.7702C14.4105 15.7404 13.9029 15.8665 13.3672 16.2086C12.7717 16.589 12.4508 16.7049 11.9884 16.7065C11.503 16.7083 11.2537 16.6217 10.6695 16.249C10.1077 15.8904 9.66842 15.7593 9.0291 15.7593C8.32384 15.7593 7.87366 15.8974 7.21516 16.3158C6.73882 16.6184 6.60553 16.6703 6.24022 16.6952C5.61537 16.7377 5.37839 16.6727 4.79253 16.298C4.19334 15.9147 3.72557 15.7593 3.17191 15.7593C2.8734 15.7593 2.75991 15.7912 2.64463 15.9076Z" fill="#333333"/>
</svg>
