<svg width="45" height="46" viewBox="0 0 45 46" fill="none" xmlns="http://www.w3.org/2000/svg">
<path d="M45 2.88261L42.7275 0.610107L0 43.3376L2.2725 45.6101L5.48679 42.3958H38.5714C39.4235 42.3945 40.2403 42.0555 40.8429 41.453C41.4454 40.8505 41.7844 40.0336 41.7857 39.1815V6.09689L45 2.88261ZM38.5714 39.1815H8.70107L21.2255 26.6571L25.0489 30.4805C25.6517 31.083 26.4691 31.4216 27.3214 31.4216C28.1737 31.4216 28.9912 31.083 29.5939 30.4805L32.1429 27.9315L38.5714 34.3553V39.1815ZM38.5714 29.8087L34.4154 25.6526C33.8126 25.05 32.9952 24.7115 32.1429 24.7115C31.2905 24.7115 30.4731 25.05 29.8704 25.6526L27.3214 28.2015L23.5012 24.3814L38.5714 9.31118V29.8087ZM6.42857 32.753V27.9315L14.4643 19.9006L16.6709 22.1089L18.9466 19.8331L16.7368 17.6233C16.134 17.0207 15.3166 16.6822 14.4643 16.6822C13.612 16.6822 12.7946 17.0207 12.1918 17.6233L6.42857 23.3865V7.03868H32.1429V3.82439H6.42857C5.57635 3.82524 4.75928 4.16416 4.15667 4.76678C3.55406 5.36939 3.21514 6.18646 3.21429 7.03868V32.753H6.42857Z" fill="#BFBFBF"/>
</svg>
