<svg width="33" height="43" viewBox="0 0 33 43" fill="none" xmlns="http://www.w3.org/2000/svg">
<path d="M0.445319 4.02599V39.3284C0.445319 42.0204 3.19372 43.656 5.3103 42.1907L31.0252 24.5395C31.4754 24.2322 31.8462 23.8071 32.1032 23.3036C32.3602 22.8002 32.4949 22.2348 32.4949 21.6601C32.4949 21.0855 32.3602 20.5201 32.1032 20.0167C31.8462 19.5132 31.4754 19.0881 31.0252 18.7808L5.3103 1.16363C4.83381 0.831205 4.28298 0.643661 3.7159 0.620785C3.14883 0.597908 2.58655 0.740547 2.08837 1.03366C1.59019 1.32676 1.17459 1.75947 0.885404 2.28613C0.596221 2.8128 0.44418 3.41389 0.445319 4.02599Z" fill="white"/>
</svg>
