<svg width="17" height="18" viewBox="0 0 17 18" fill="none" xmlns="http://www.w3.org/2000/svg">
<g clip-path="url(#clip0_1439_10483)">
<path fill-rule="evenodd" clip-rule="evenodd" d="M6.6709 2.95426C5.61003 2.95426 4.59262 3.37568 3.84247 4.12583C3.09233 4.87598 2.6709 5.89339 2.6709 6.95426C2.6709 8.01512 3.09233 9.03254 3.84247 9.78269C4.59262 10.5328 5.61003 10.9543 6.6709 10.9543C7.73176 10.9543 8.74918 10.5328 9.49933 9.78269C10.2495 9.03254 10.6709 8.01512 10.6709 6.95426C10.6709 5.89339 10.2495 4.87598 9.49933 4.12583C8.74918 3.37568 7.73176 2.95426 6.6709 2.95426ZM0.670899 6.95426C0.670778 6.00996 0.893541 5.07897 1.32107 4.237C1.7486 3.39503 2.36882 2.66586 3.13129 2.10878C3.89377 1.55171 4.77696 1.18247 5.70904 1.03109C6.64113 0.879711 7.59578 0.950469 8.49536 1.23761C9.39494 1.52475 10.2141 2.02016 10.8861 2.68355C11.5581 3.34695 12.064 4.15959 12.3628 5.05539C12.6615 5.95119 12.7446 6.90485 12.6052 7.83881C12.4659 8.77277 12.1081 9.66066 11.5609 10.4303L16.3779 15.2473C16.5601 15.4359 16.6609 15.6885 16.6586 15.9507C16.6563 16.2129 16.5511 16.4637 16.3657 16.6491C16.1803 16.8345 15.9295 16.9397 15.6673 16.9419C15.4051 16.9442 15.1525 16.8434 14.9639 16.6613L10.1479 11.8453C9.25026 12.4835 8.19425 12.8624 7.09557 12.9404C5.9969 13.0183 4.89797 12.7924 3.9192 12.2872C2.94043 11.7821 2.11959 11.0173 1.54662 10.0766C0.973659 9.13593 0.670684 8.05569 0.670899 6.95426Z" fill="#BFBFBF"/>
</g>
<defs>
<clipPath id="clip0_1439_10483">
<rect width="17" height="17" fill="white" transform="translate(0 0.0550537)"/>
</clipPath>
</defs>
</svg>
