<svg width="6" height="12" viewBox="0 0 6 12" fill="none" xmlns="http://www.w3.org/2000/svg">
<path d="M1.18894 0.32803L5.84792 5.20402C5.90322 5.26207 5.94248 5.32495 5.96571 5.39267C5.98893 5.4604 6.00036 5.53295 5.99999 5.61035C5.99999 5.68775 5.98856 5.76031 5.96571 5.82803C5.94285 5.89575 5.90359 5.95864 5.84792 6.01668L1.18894 10.9072C1.05991 11.0426 0.898616 11.1104 0.705068 11.1104C0.51152 11.1104 0.345621 11.0378 0.207373 10.8927C0.0691241 10.7476 -2.74651e-07 10.5782 -2.74651e-07 10.3848C-2.74651e-07 10.1913 0.0691241 10.022 0.207373 9.87684L4.27188 5.61035L0.207373 1.34386C0.0783406 1.20842 0.0138244 1.04143 0.0138244 0.842911C0.0138244 0.644389 0.0829487 0.472761 0.221197 0.32803C0.359446 0.182911 0.520736 0.110352 0.705068 0.110352C0.889399 0.110352 1.05069 0.182911 1.18894 0.32803Z" fill="#333333"/>
</svg>
