<svg width="16" height="16" viewBox="0 0 16 16" fill="none" xmlns="http://www.w3.org/2000/svg">
<path d="M12.4204 15.7536C12.2496 15.754 12.0823 15.7058 11.938 15.6147L8.25427 13.2758C8.20398 13.244 8.14568 13.2271 8.08616 13.2271C8.02664 13.2271 7.96835 13.244 7.91806 13.2758L4.49749 15.4466C4.32631 15.5573 4.12542 15.6131 3.92168 15.6066C3.71793 15.6 3.52103 15.5315 3.3573 15.41C3.18544 15.2858 3.05511 15.1126 2.98338 14.9131C2.91165 14.7135 2.90187 14.497 2.95531 14.2918L3.94201 10.4107C3.95944 10.3468 3.95839 10.2792 3.93898 10.2158C3.91958 10.1524 3.88262 10.0958 3.83238 10.0526L0.528746 7.30445C0.385303 7.18604 0.280738 7.02728 0.228608 6.84874C0.176479 6.67019 0.17919 6.48011 0.236389 6.30312C0.291444 6.12889 0.397481 5.97516 0.5408 5.86181C0.68412 5.74846 0.858137 5.68069 1.04037 5.66725L5.35994 5.38951C5.4204 5.38367 5.47816 5.36156 5.52706 5.32553C5.57596 5.28949 5.61419 5.24088 5.63768 5.18486L7.24564 1.12841C7.31035 0.957868 7.42541 0.811043 7.57554 0.707436C7.72566 0.603828 7.90376 0.54834 8.08616 0.54834C8.26857 0.54834 8.44667 0.603828 8.59679 0.707436C8.74692 0.811043 8.86198 0.957868 8.92669 1.12841L10.5347 5.18486C10.5581 5.24088 10.5964 5.28949 10.6453 5.32553C10.6942 5.36156 10.7519 5.38367 10.8124 5.38951L15.132 5.66725C15.3142 5.68069 15.4882 5.74846 15.6315 5.86181C15.7748 5.97516 15.8809 6.12889 15.9359 6.30312C15.9931 6.48011 15.9958 6.67019 15.9437 6.84874C15.8916 7.02728 15.787 7.18604 15.6436 7.30445L12.34 10.0526C12.2897 10.0958 12.2527 10.1524 12.2333 10.2158C12.2139 10.2792 12.2129 10.3468 12.2303 10.4107L13.2974 14.5987C13.3448 14.779 13.3358 14.9695 13.2718 15.1446C13.2078 15.3196 13.0918 15.4709 12.9393 15.5781C12.7902 15.6919 12.6079 15.7536 12.4204 15.7536Z" fill="url(#paint0_linear_1650_9573)"/>
<defs>
<linearGradient id="paint0_linear_1650_9573" x1="20.0114" y1="8.02574" x2="-18.6992" y2="18.1271" gradientUnits="userSpaceOnUse">
<stop stop-color="#FFE600"/>
<stop offset="0.510417" stop-color="#FFAC0C"/>
<stop offset="1" stop-color="#FFE600"/>
</linearGradient>
</defs>
</svg>
