<svg width="16" height="16" viewBox="0 0 16 16" fill="none" xmlns="http://www.w3.org/2000/svg">
<path d="M12.4204 15.8175C12.2496 15.818 12.0823 15.7698 11.938 15.6786L8.25427 13.3398C8.20398 13.308 8.14568 13.2911 8.08616 13.2911C8.02665 13.2911 7.96835 13.308 7.91806 13.3398L4.49749 15.5105C4.32631 15.6212 4.12542 15.677 3.92168 15.6705C3.71793 15.664 3.52103 15.5954 3.3573 15.474C3.18544 15.3498 3.05511 15.1766 2.98338 14.977C2.91165 14.7775 2.90187 14.5609 2.95531 14.3557L3.94201 10.4747C3.95944 10.4107 3.95839 10.3432 3.93898 10.2798C3.91958 10.2164 3.88262 10.1598 3.83238 10.1166L0.528746 7.36841C0.385303 7.25001 0.280738 7.09124 0.228608 6.9127C0.176479 6.73416 0.17919 6.54407 0.236389 6.36709C0.291444 6.19285 0.397481 6.03913 0.5408 5.92578C0.68412 5.81242 0.858137 5.74465 1.04037 5.73121L5.35994 5.45347C5.4204 5.44764 5.47816 5.42552 5.52706 5.38949C5.57596 5.35346 5.61419 5.30485 5.63768 5.24883L7.24564 1.19238C7.31035 1.02183 7.42541 0.875008 7.57554 0.771401C7.72566 0.667793 7.90376 0.612305 8.08616 0.612305C8.26857 0.612305 8.44667 0.667793 8.59679 0.771401C8.74692 0.875008 8.86198 1.02183 8.92669 1.19238L10.5347 5.24883C10.5581 5.30485 10.5964 5.35346 10.6453 5.38949C10.6942 5.42552 10.7519 5.44764 10.8124 5.45347L15.132 5.73121C15.3142 5.74465 15.4882 5.81242 15.6315 5.92578C15.7748 6.03913 15.8809 6.19285 15.9359 6.36709C15.9931 6.54407 15.9958 6.73416 15.9437 6.9127C15.8916 7.09124 15.787 7.25001 15.6436 7.36841L12.34 10.1166C12.2897 10.1598 12.2527 10.2164 12.2333 10.2798C12.2139 10.3432 12.2129 10.4107 12.2303 10.4747L13.2974 14.6627C13.3448 14.843 13.3358 15.0335 13.2718 15.2085C13.2078 15.3836 13.0918 15.5349 12.9393 15.6421C12.7902 15.7559 12.6079 15.8175 12.4204 15.8175ZM8.08616 12.7039C8.25755 12.7061 8.42481 12.7567 8.56855 12.8501L12.2522 15.1816C12.3029 15.2168 12.3635 15.2351 12.4252 15.2338C12.4869 15.2325 12.5466 15.2117 12.5958 15.1743C12.6528 15.1345 12.6961 15.078 12.7197 15.0125C12.7432 14.9471 12.7459 14.8759 12.7273 14.8089L11.6602 10.6136C11.6188 10.4434 11.6255 10.2651 11.6798 10.0985C11.734 9.932 11.8335 9.78386 11.9672 9.67072L15.2708 6.92257C15.3248 6.87734 15.3635 6.81662 15.3818 6.74864C15.4001 6.68067 15.3971 6.60871 15.3732 6.5425C15.3564 6.4804 15.3206 6.42512 15.2708 6.38447C15.221 6.34382 15.1596 6.31984 15.0954 6.31593L10.7758 6.03819C10.6044 6.0253 10.44 5.96428 10.3016 5.86214C10.1633 5.75999 10.0566 5.62088 9.99379 5.46078L8.38583 1.40434C8.36232 1.34398 8.32114 1.29213 8.26767 1.25557C8.2142 1.21902 8.15094 1.19946 8.08616 1.19946C8.02139 1.19946 7.95813 1.21902 7.90466 1.25557C7.85119 1.29213 7.81001 1.34398 7.7865 1.40434L6.17854 5.46078C6.11574 5.62088 6.00903 5.75999 5.87068 5.86214C5.73233 5.96428 5.56797 6.0253 5.39648 6.03819L1.07691 6.31593C1.01237 6.32143 0.950885 6.34586 0.900175 6.38617C0.849465 6.42648 0.811787 6.48086 0.791867 6.5425C0.771741 6.60969 0.771376 6.68126 0.790817 6.74865C0.810257 6.81604 0.84868 6.87642 0.901501 6.92257L4.20513 9.67072C4.33882 9.78386 4.43835 9.932 4.49257 10.0985C4.54679 10.2651 4.55355 10.4434 4.5121 10.6136L3.5254 14.5019C3.49802 14.5926 3.50026 14.6897 3.5318 14.7791C3.56335 14.8685 3.62255 14.9455 3.70081 14.9989C3.7693 15.0522 3.85292 15.0823 3.93963 15.0849C4.02633 15.0875 4.11162 15.0625 4.1832 15.0135L7.60378 12.8501C7.74752 12.7567 7.91478 12.7061 8.08616 12.7039Z" fill="#AEAEAE"/>
</svg>
