<svg width="25" height="26" viewBox="0 0 25 26" fill="none" xmlns="http://www.w3.org/2000/svg">
<path d="M8.42972 2.78955C5.28948 2.78955 2.73438 5.34617 2.73438 8.48718V16.6247C2.73438 19.7653 5.29099 22.3208 8.43201 22.3208H16.5695C19.7101 22.3208 22.2656 19.7642 22.2656 16.6232V8.48489C22.2656 5.34466 19.709 2.78955 16.568 2.78955H8.42972ZM18.3594 5.91455C18.7906 5.91455 19.1406 6.26455 19.1406 6.6958C19.1406 7.12705 18.7906 7.47705 18.3594 7.47705C17.9281 7.47705 17.5781 7.12705 17.5781 6.6958C17.5781 6.26455 17.9281 5.91455 18.3594 5.91455ZM12.5 7.47705C15.3008 7.47705 17.5781 9.75439 17.5781 12.5552C17.5781 15.356 15.3004 17.6333 12.5 17.6333C9.69922 17.6333 7.42188 15.3556 7.42188 12.5552C7.42188 9.75479 9.69922 7.47705 12.5 7.47705ZM12.5 9.03955C10.5582 9.03955 8.98438 10.6134 8.98438 12.5552C8.98438 14.497 10.5582 16.0708 12.5 16.0708C14.4418 16.0708 16.0156 14.497 16.0156 12.5552C16.0156 10.6134 14.4418 9.03955 12.5 9.03955Z" fill="#333333"/>
</svg>
