<svg width="25" height="26" viewBox="0 0 25 26" fill="none" xmlns="http://www.w3.org/2000/svg">
<path d="M24.1941 6.08604C23.3742 6.44932 22.4926 6.6915 21.5625 6.80596C22.5082 6.24463 23.2355 5.34932 23.577 4.2915C22.6922 4.81025 21.7121 5.19111 20.6691 5.39189C19.8363 4.50908 18.6484 3.96143 17.3324 3.96143C14.8043 3.96143 12.7555 5.99268 12.7555 8.49697C12.7555 8.85127 12.7969 9.19658 12.875 9.53174C9.07188 9.34072 5.69883 7.53291 3.44219 4.78916C3.0457 5.45947 2.82266 6.24463 2.82266 7.07314C2.82266 8.64775 3.62891 10.0337 4.8582 10.8505C4.10781 10.8274 3.40156 10.6188 2.7832 10.2841C2.7832 10.2978 2.7832 10.3181 2.7832 10.3372C2.7832 12.5376 4.36133 14.3696 6.45312 14.7868C6.0707 14.8915 5.6668 14.9497 5.25039 14.9497C4.95469 14.9497 4.6668 14.9161 4.38789 14.8661C4.97031 16.6642 6.66016 17.9786 8.66211 18.0173C7.0957 19.2317 5.12305 19.9591 2.97773 19.9591C2.60703 19.9591 2.24492 19.938 1.88672 19.8946C3.91289 21.1778 6.31953 21.9302 8.90273 21.9302C17.3203 21.9302 21.925 15.0177 21.925 9.02119C21.925 8.82471 21.9188 8.629 21.9094 8.43564C22.8082 7.80127 23.5824 7.00049 24.1941 6.08604Z" fill="#BFBFBF"/>
</svg>
