<svg width="23" height="19" viewBox="0 0 23 19" fill="none" xmlns="http://www.w3.org/2000/svg">
<path d="M22.9246 2.6777C22.0961 3.04479 21.2052 3.28953 20.2653 3.40518C21.221 2.83796 21.956 1.93324 22.301 0.864308C21.4069 1.38851 20.4165 1.77337 19.3626 1.97626C18.521 1.08417 17.3207 0.530762 15.9908 0.530762C13.4361 0.530762 11.3658 2.58336 11.3658 5.11397C11.3658 5.47199 11.4076 5.82093 11.4866 6.15961C7.64347 5.96658 4.23498 4.13977 1.95463 1.36719C1.55398 2.04455 1.32858 2.83796 1.32858 3.67518C1.32858 5.26633 2.14331 6.66683 3.38552 7.49221C2.62725 7.46892 1.91357 7.25814 1.28872 6.91986C1.28872 6.93367 1.28872 6.9542 1.28872 6.97354C1.28872 9.19705 2.88342 11.0483 4.9972 11.4699C4.61076 11.5757 4.20261 11.6345 3.78183 11.6345C3.48302 11.6345 3.1921 11.6006 2.91027 11.55C3.49881 13.367 5.20641 14.6952 7.2294 14.7343C5.64653 15.9615 3.65315 16.6965 1.48529 16.6965C1.11069 16.6965 0.74478 16.6752 0.382812 16.6314C2.43028 17.9281 4.8622 18.6883 7.47255 18.6883C15.9786 18.6883 20.6317 11.7032 20.6317 5.64369C20.6317 5.44515 20.6253 5.24739 20.6159 5.05199C21.5241 4.41095 22.3065 3.60176 22.9246 2.6777Z" fill="white" fill-opacity="0.2"/>
</svg>
