<svg width="25" height="26" viewBox="0 0 25 26" fill="none" xmlns="http://www.w3.org/2000/svg">
<path d="M6.30493 2.80005L7.75452 8.03687H7.75528V10.5492H9.01031V8.03687L10.479 2.80005H9.21402L8.68759 5.18271C8.53954 5.87841 8.44485 6.37399 8.40149 6.66891H8.36411C8.30278 6.25681 8.20691 5.75754 8.078 5.17355L7.56989 2.80005H6.30493ZM11.9431 4.77759C11.5173 4.77759 11.1744 4.86096 10.9131 5.03088C10.651 5.20002 10.459 5.4697 10.3355 5.83884C10.2129 6.20876 10.1509 6.69812 10.1509 7.3075V8.12918C10.1509 8.73192 10.2048 9.21548 10.3127 9.57877C10.4205 9.94205 10.6019 10.2099 10.8574 10.3821C11.1133 10.5544 11.4664 10.6407 11.9156 10.6423C12.3527 10.6423 12.6989 10.5578 12.9539 10.3882C13.209 10.2187 13.3942 9.95167 13.5078 9.58487C13.6215 9.21807 13.6787 8.73422 13.6787 8.13071V7.3075C13.6787 6.69812 13.6201 6.21097 13.5033 5.84418C13.3865 5.47816 13.2025 5.20849 12.9494 5.03622C12.697 4.86396 12.3614 4.77759 11.9431 4.77759ZM14.3387 4.88745V9.11642C14.3387 9.64025 14.4291 10.0258 14.6072 10.2715C14.7861 10.5172 15.0631 10.6408 15.4388 10.6408C15.9806 10.6408 16.3869 10.3799 16.6573 9.85648H16.6855L16.7961 10.5485H17.7933V4.88745H16.5184V9.38422C16.4696 9.48969 16.3945 9.57488 16.2926 9.64285C16.1906 9.71121 16.0854 9.74509 15.9744 9.74509C15.8443 9.74509 15.7522 9.69116 15.6967 9.58334C15.6412 9.47553 15.6136 9.29631 15.6136 9.04318V4.88745H14.3387ZM11.9156 5.65497C12.0937 5.65497 12.2191 5.74784 12.2894 5.93573C12.3605 6.12284 12.3955 6.4202 12.3955 6.82684V8.59076C12.3955 9.0099 12.3597 9.3116 12.2894 9.49637C12.2191 9.68074 12.0933 9.77291 11.9156 9.77408C11.7375 9.77408 11.6143 9.68113 11.5463 9.49637C11.478 9.3116 11.4449 9.00912 11.4449 8.59076V6.82684C11.4449 6.42098 11.4806 6.12362 11.5509 5.93573C11.6212 5.74862 11.7433 5.65497 11.9156 5.65497ZM5.46875 12.1644C4.39023 12.1644 3.51562 13.039 3.51562 14.1175V20.3675C3.51562 21.446 4.39023 22.3206 5.46875 22.3206H19.5312C20.6098 22.3206 21.4844 21.446 21.4844 20.3675V14.1175C21.4844 13.039 20.6098 12.1644 19.5312 12.1644H5.46875ZM12.5465 13.6513H13.562V16.1164H13.5696C13.6607 15.9383 13.7908 15.7947 13.9587 15.6853C14.1267 15.576 14.3074 15.5213 14.5012 15.5213C14.7508 15.5213 14.9465 15.5876 15.0879 15.7197C15.2293 15.8517 15.3328 16.066 15.3961 16.3613C15.4594 16.657 15.4915 17.0666 15.4915 17.5904V18.3297H15.4922C15.4922 19.0269 15.4077 19.5393 15.2397 19.8678C15.0717 20.1963 14.8097 20.3606 14.4539 20.3606C14.2555 20.3606 14.0747 20.3143 13.9114 20.2233C13.7482 20.1323 13.6272 20.0069 13.546 19.8487H13.5223L13.4163 20.2912H12.5465V13.6513ZM6.25 13.8878H9.37119V14.7355H8.32596V20.2912H7.29599V14.7355H6.25V13.8878ZM17.3912 15.5244C17.7518 15.5244 18.0291 15.5907 18.2228 15.7227C18.4154 15.8555 18.5524 16.0618 18.6317 16.3407C18.7103 16.6204 18.75 17.007 18.75 17.5004V18.3022V18.303H16.9876V18.5395C16.9876 18.8403 16.9967 19.0658 17.0151 19.2155C17.0334 19.3651 17.0698 19.4755 17.1257 19.5435C17.1816 19.6123 17.2675 19.6458 17.3843 19.6458C17.5418 19.6458 17.6504 19.5841 17.7094 19.4626C17.7676 19.3412 17.7989 19.1371 17.804 18.8523L18.7126 18.9057C18.7173 18.9455 18.7202 19.0025 18.7202 19.0735C18.7202 19.506 18.6022 19.8304 18.3655 20.0432C18.1288 20.2577 17.7943 20.3637 17.3615 20.3637C16.8427 20.3637 16.4791 20.2 16.2697 19.8746C16.0603 19.5492 15.9569 19.0457 15.9569 18.364V17.5469C15.9569 16.845 16.0659 16.3326 16.2819 16.0088C16.4979 15.685 16.8674 15.5244 17.3912 15.5244ZM10.8604 15.6106H11.9141V20.2889H11.9118V20.2912H11.0878L10.9962 19.7182H10.9734C10.7487 20.1514 10.4132 20.3675 9.96552 20.3675C9.65458 20.3675 9.42653 20.2662 9.27887 20.0623C9.13082 19.8592 9.05762 19.5395 9.05762 19.1079V15.6121H10.112V19.0468C10.112 19.2547 10.135 19.4053 10.1807 19.4932C10.2271 19.5826 10.3025 19.6267 10.4103 19.6267C10.5013 19.6267 10.5888 19.5986 10.6728 19.542C10.7575 19.4861 10.819 19.4143 10.8604 19.3276V15.6106ZM17.3683 16.2346C17.2562 16.2346 17.1735 16.2682 17.1196 16.3338C17.0661 16.4002 17.0303 16.5085 17.0135 16.6588C16.9952 16.8085 16.9861 17.037 16.9861 17.3417V17.6774H17.7567V17.3417C17.7567 17.0409 17.7461 16.8139 17.7261 16.6588C17.7066 16.503 17.6706 16.3937 17.617 16.33C17.5635 16.2667 17.4812 16.2346 17.3683 16.2346ZM14.0266 16.2697C13.9251 16.2697 13.8311 16.3094 13.7444 16.3911C13.658 16.4727 13.5964 16.5777 13.5612 16.7039V19.3604C13.6077 19.4421 13.6671 19.5025 13.7405 19.5435C13.814 19.5834 13.8938 19.6053 13.9809 19.6053C14.093 19.6053 14.1815 19.5649 14.2479 19.4832C14.3143 19.4016 14.3621 19.2646 14.389 19.0713C14.4172 18.8787 14.431 18.6108 14.431 18.2702V17.6674C14.431 17.3014 14.4197 17.019 14.3967 16.8198C14.3752 16.6214 14.3335 16.4781 14.2761 16.3949C14.2179 16.3117 14.1348 16.2697 14.0266 16.2697Z" fill="#BFBFBF"/>
</svg>
